ISO-10303-21;
HEADER;
/* Generated by software containing ST-Developer
 * from STEP Tools, Inc. (www.steptools.com) 
 */

FILE_DESCRIPTION(
/* description */ (''),
/* implementation_level */ '2;1');

FILE_NAME(
/* name */ 'Low Profile Keycap 1.5U.step',
/* time_stamp */ '2026-01-27T13:49:14+09:00',
/* author */ (''),
/* organization */ (''),
/* preprocessor_version */ 'ST-DEVELOPER v20.1',
/* originating_system */ 'Autodesk Translation Framework v14.24.0.0',
/* authorisation */ '');

FILE_SCHEMA (('AUTOMOTIVE_DESIGN { 1 0 10303 214 3 1 1 }'));
ENDSEC;

DATA;
#10=MECHANICAL_DESIGN_GEOMETRIC_PRESENTATION_REPRESENTATION('',(#13),#1334);
#11=SHAPE_REPRESENTATION_RELATIONSHIP('SRR','None',#1341,#12);
#12=ADVANCED_BREP_SHAPE_REPRESENTATION('',(#14),#1333);
#13=STYLED_ITEM('',(#1351),#14);
#14=MANIFOLD_SOLID_BREP('\X2\30DC30C730A3\X0\1',#567);
#15=ELLIPSE('',#607,0.909221052963105,0.300158205423);
#16=ELLIPSE('',#608,0.90922105296308,0.300158205423);
#17=ELLIPSE('',#610,0.90922105296308,0.300158205423);
#18=ELLIPSE('',#613,0.909221052963105,0.300158205423);
#19=ELLIPSE('',#615,0.90922105296308,0.300158205423);
#20=ELLIPSE('',#617,0.909221052963084,0.300158205423);
#21=ELLIPSE('',#621,0.90922105296308,0.300158205423);
#22=ELLIPSE('',#623,0.909221052963084,0.300158205423);
#23=FACE_BOUND('',#200,.T.);
#24=FACE_BOUND('',#207,.T.);
#25=(
BOUNDED_SURFACE()
B_SPLINE_SURFACE(3,2,((#1158,#1159,#1160,#1161,#1162,#1163,#1164,#1165,
#1166),(#1167,#1168,#1169,#1170,#1171,#1172,#1173,#1174,#1175),(#1176,#1177,
#1178,#1179,#1180,#1181,#1182,#1183,#1184),(#1185,#1186,#1187,#1188,#1189,
#1190,#1191,#1192,#1193)),.UNSPECIFIED.,.F.,.T.,.F.)
B_SPLINE_SURFACE_WITH_KNOTS((4,4),(3,2,2,2,3),(787.531251167,813.532011115),
(0.,1.5707963267949,3.14159265358979,4.71238898038469,6.28318530717959),
 .UNSPECIFIED.)
GEOMETRIC_REPRESENTATION_ITEM()
RATIONAL_B_SPLINE_SURFACE(((1.,0.707106781186548,1.,0.707106781186548,1.,
0.707106781186548,1.,0.707106781186548,1.),(1.,0.707106781186548,1.,0.707106781186548,
1.,0.707106781186548,1.,0.707106781186548,1.),(1.,0.707106781186548,1.,
0.707106781186548,1.,0.707106781186548,1.,0.707106781186548,1.),(1.,0.707106781186548,
1.,0.707106781186548,1.,0.707106781186548,1.,0.707106781186548,1.)))
REPRESENTATION_ITEM('')
SURFACE()
);
#26=(
BOUNDED_SURFACE()
B_SPLINE_SURFACE(3,2,((#1253,#1254,#1255,#1256,#1257,#1258,#1259,#1260,
#1261,#1262,#1263),(#1264,#1265,#1266,#1267,#1268,#1269,#1270,#1271,#1272,
#1273,#1274),(#1275,#1276,#1277,#1278,#1279,#1280,#1281,#1282,#1283,#1284,
#1285),(#1286,#1287,#1288,#1289,#1290,#1291,#1292,#1293,#1294,#1295,#1296)),
 .UNSPECIFIED.,.F.,.T.,.F.)
B_SPLINE_SURFACE_WITH_KNOTS((4,4),(3,2,2,2,2,3),(787.021746499,814.041515783),
(-0.168464307811029,0.,1.5707963267949,3.14159265358979,4.71238898038469,
6.11472099936856),.UNSPECIFIED.)
GEOMETRIC_REPRESENTATION_ITEM()
RATIONAL_B_SPLINE_SURFACE(((0.943913503714124,0.968587873215472,1.,0.707106781186548,
1.,0.707106781186548,1.,0.707106781186548,1.,0.738518907971076,0.943913503714124),
(0.943913503714124,0.968587873215472,1.,0.707106781186548,1.,0.707106781186548,
1.,0.707106781186548,1.,0.738518907971076,0.943913503714124),(0.943913503714124,
0.968587873215472,1.,0.707106781186548,1.,0.707106781186548,1.,0.707106781186548,
1.,0.738518907971076,0.943913503714124),(0.943913503714124,0.968587873215472,
1.,0.707106781186548,1.,0.707106781186548,1.,0.707106781186548,1.,0.738518907971076,
0.943913503714124)))
REPRESENTATION_ITEM('')
SURFACE()
);
#27=B_SPLINE_SURFACE_WITH_KNOTS('',5,5,((#894,#895,#896,#897,#898,#899),
(#900,#901,#902,#903,#904,#905),(#906,#907,#908,#909,#910,#911),(#912,#913,
#914,#915,#916,#917),(#918,#919,#920,#921,#922,#923),(#924,#925,#926,#927,
#928,#929)),.UNSPECIFIED.,.F.,.F.,.F.,(6,6),(6,6),(0.,5.4014592483),(4.72531374026E-15,
6.59734457254),.UNSPECIFIED.);
#28=B_SPLINE_SURFACE_WITH_KNOTS('',5,5,((#955,#956,#957,#958,#959,#960),
(#961,#962,#963,#964,#965,#966),(#967,#968,#969,#970,#971,#972),(#973,#974,
#975,#976,#977,#978),(#979,#980,#981,#982,#983,#984),(#985,#986,#987,#988,
#989,#990)),.UNSPECIFIED.,.F.,.F.,.F.,(6,6),(6,6),(0.,5.4014592483),(6.59734457254,
13.1946891451),.UNSPECIFIED.);
#29=B_SPLINE_SURFACE_WITH_KNOTS('',5,5,((#1028,#1029,#1030,#1031,#1032,
#1033),(#1034,#1035,#1036,#1037,#1038,#1039),(#1040,#1041,#1042,#1043,#1044,
#1045),(#1046,#1047,#1048,#1049,#1050,#1051),(#1052,#1053,#1054,#1055,#1056,
#1057),(#1058,#1059,#1060,#1061,#1062,#1063)),.UNSPECIFIED.,.F.,.F.,.F.,
(6,6),(6,6),(0.,5.4014592483),(13.1946891451,19.7920337176),
 .UNSPECIFIED.);
#30=B_SPLINE_SURFACE_WITH_KNOTS('',5,5,((#1087,#1088,#1089,#1090,#1091,
#1092),(#1093,#1094,#1095,#1096,#1097,#1098),(#1099,#1100,#1101,#1102,#1103,
#1104),(#1105,#1106,#1107,#1108,#1109,#1110),(#1111,#1112,#1113,#1114,#1115,
#1116),(#1117,#1118,#1119,#1120,#1121,#1122)),.UNSPECIFIED.,.F.,.F.,.F.,
(6,6),(6,6),(0.,5.4014592483),(19.7920337176,26.3893782902),
 .UNSPECIFIED.);
#31=LINE('',#818,#76);
#32=LINE('',#824,#77);
#33=LINE('',#827,#78);
#34=LINE('',#830,#79);
#35=LINE('',#832,#80);
#36=LINE('',#833,#81);
#37=LINE('',#838,#82);
#38=LINE('',#851,#83);
#39=LINE('',#853,#84);
#40=LINE('',#854,#85);
#41=LINE('',#859,#86);
#42=LINE('',#872,#87);
#43=LINE('',#874,#88);
#44=LINE('',#875,#89);
#45=LINE('',#880,#90);
#46=LINE('',#892,#91);
#47=LINE('',#893,#92);
#48=LINE('',#931,#93);
#49=LINE('',#933,#94);
#50=LINE('',#948,#95);
#51=LINE('',#992,#96);
#52=LINE('',#1021,#97);
#53=LINE('',#1065,#98);
#54=LINE('',#1080,#99);
#55=LINE('',#1124,#100);
#56=LINE('',#1199,#101);
#57=LINE('',#1203,#102);
#58=LINE('',#1207,#103);
#59=LINE('',#1210,#104);
#60=LINE('',#1214,#105);
#61=LINE('',#1223,#106);
#62=LINE('',#1227,#107);
#63=LINE('',#1230,#108);
#64=LINE('',#1232,#109);
#65=LINE('',#1235,#110);
#66=LINE('',#1238,#111);
#67=LINE('',#1249,#112);
#68=LINE('',#1252,#113);
#69=LINE('',#1312,#114);
#70=LINE('',#1315,#115);
#71=LINE('',#1317,#116);
#72=LINE('',#1319,#117);
#73=LINE('',#1322,#118);
#74=LINE('',#1327,#119);
#75=LINE('',#1329,#120);
#76=VECTOR('',#634,2.8);
#77=VECTOR('',#639,1.);
#78=VECTOR('',#642,1.);
#79=VECTOR('',#645,1.);
#80=VECTOR('',#646,1.);
#81=VECTOR('',#647,1.);
#82=VECTOR('',#652,1.);
#83=VECTOR('',#655,1.);
#84=VECTOR('',#656,1.);
#85=VECTOR('',#657,1.);
#86=VECTOR('',#662,1.);
#87=VECTOR('',#665,1.);
#88=VECTOR('',#666,1.);
#89=VECTOR('',#667,1.);
#90=VECTOR('',#672,1.);
#91=VECTOR('',#675,1.);
#92=VECTOR('',#676,1.);
#93=VECTOR('',#677,10.);
#94=VECTOR('',#678,10.);
#95=VECTOR('',#681,0.999999999999362);
#96=VECTOR('',#682,10.);
#97=VECTOR('',#685,1.00000000000001);
#98=VECTOR('',#686,10.);
#99=VECTOR('',#689,0.999999999999362);
#100=VECTOR('',#690,10.);
#101=VECTOR('',#697,1.);
#102=VECTOR('',#700,1.);
#103=VECTOR('',#703,1.);
#104=VECTOR('',#706,1.);
#105=VECTOR('',#709,10.);
#106=VECTOR('',#710,10.);
#107=VECTOR('',#713,10.);
#108=VECTOR('',#718,1.);
#109=VECTOR('',#719,1.);
#110=VECTOR('',#724,1.);
#111=VECTOR('',#727,1.);
#112=VECTOR('',#732,10.);
#113=VECTOR('',#735,10.);
#114=VECTOR('',#738,10.);
#115=VECTOR('',#741,10.);
#116=VECTOR('',#744,1.);
#117=VECTOR('',#747,1.);
#118=VECTOR('',#750,1.);
#119=VECTOR('',#757,10.);
#120=VECTOR('',#760,1.);
#121=B_SPLINE_CURVE_WITH_KNOTS('',3,(#770,#771,#772,#773),.UNSPECIFIED.,
 .F.,.F.,(4,4),(-0.105451632111209,0.),.UNSPECIFIED.);
#122=B_SPLINE_CURVE_WITH_KNOTS('',3,(#774,#775,#776,#777,#778,#779,#780,
#781,#782,#783,#784,#785,#786,#787,#788,#789,#790,#791,#792,#793,#794,#795,
#796,#797,#798,#799,#800,#801,#802,#803,#804,#805,#806,#807,#808,#809,#810,
#811,#812,#813,#814,#815,#816,#817),.UNSPECIFIED.,.F.,.F.,(4,2,2,2,2,2,
2,2,2,2,2,2,2,2,2,2,2,2,2,2,2,4),(0.,0.0786269829635946,0.16062529336023,
0.272001051456659,0.362134660002526,0.435406042315593,0.507581412244821,
0.593894757854061,0.600023462125997,0.707339698036997,0.818434129382051,
0.927659442119995,1.0325008963917,1.14389704460149,1.23661944421172,1.31073618553435,
1.38241157783726,1.46663106415233,1.49286246641828,1.54123967896165,1.65214110306437,
1.65806003620127),.UNSPECIFIED.);
#123=B_SPLINE_CURVE_WITH_KNOTS('',3,(#839,#840,#841,#842,#843,#844,#845,
#846,#847,#848),.UNSPECIFIED.,.F.,.F.,(4,2,2,2,4),(6.41032668411552E-6,
0.0516303711065148,0.102421792673877,0.153213214242165,0.204837476057079),
 .UNSPECIFIED.);
#124=B_SPLINE_CURVE_WITH_KNOTS('',3,(#860,#861,#862,#863,#864,#865,#866,
#867,#868,#869),.UNSPECIFIED.,.F.,.F.,(4,2,2,2,4),(6.41032687121797E-6,
0.0516303711101554,0.102421792678275,0.15321321424546,0.204837476060907),
 .UNSPECIFIED.);
#125=B_SPLINE_CURVE_WITH_KNOTS('',3,(#881,#882,#883,#884,#885,#886,#887,
#888,#889,#890),.UNSPECIFIED.,.F.,.F.,(4,2,2,2,4),(6.41032710286123E-6,
0.0516303711065137,0.102421792673872,0.153213214242158,0.204837476057072),
 .UNSPECIFIED.);
#126=B_SPLINE_CURVE_WITH_KNOTS('',3,(#934,#935,#936,#937,#938,#939,#940,
#941,#942,#943,#944,#945),.UNSPECIFIED.,.F.,.F.,(4,2,2,2,2,4),(-0.647102345089354,
-0.538937577266936,-0.45250761402012,-0.302149030931687,-0.156403227283825,
-1.36200575729501E-6),.UNSPECIFIED.);
#127=B_SPLINE_CURVE_WITH_KNOTS('',3,(#949,#950,#951,#952,#953,#954),
 .UNSPECIFIED.,.F.,.F.,(4,2,4),(-1.677352282091,-0.838744734590104,-4.58716451916179E-5),
 .UNSPECIFIED.);
#128=B_SPLINE_CURVE_WITH_KNOTS('',3,(#993,#994,#995,#996,#997,#998,#999,
#1000,#1001,#1002,#1003,#1004,#1005,#1006,#1007,#1008,#1009,#1010,#1011,
#1012,#1013,#1014,#1015,#1016,#1017,#1018),.UNSPECIFIED.,.F.,.F.,(4,2,2,
2,2,2,2,2,2,2,2,2,4),(1.25415519548462E-8,0.0793712365877829,0.19530172403491,
0.207133350518459,0.212328576103273,0.216152598858596,0.219681919115295,
0.224465238362592,0.236195803375526,0.344775881463049,0.46424558441206,
0.565002542717862,0.646503259608257),.UNSPECIFIED.);
#129=B_SPLINE_CURVE_WITH_KNOTS('',3,(#1022,#1023,#1024,#1025,#1026,#1027),
 .UNSPECIFIED.,.F.,.F.,(4,2,4),(5.85762714112417E-6,0.362819173036085,0.725615102475751),
 .UNSPECIFIED.);
#130=B_SPLINE_CURVE_WITH_KNOTS('',3,(#1066,#1067,#1068,#1069,#1070,#1071,
#1072,#1073,#1074,#1075,#1076,#1077),.UNSPECIFIED.,.F.,.F.,(4,2,2,2,2,4),
(-0.647102345086018,-0.538937577253507,-0.452507613998675,-0.302149030897516,
-0.156403227266832,-1.36394443695566E-6),.UNSPECIFIED.);
#131=B_SPLINE_CURVE_WITH_KNOTS('',3,(#1081,#1082,#1083,#1084,#1085,#1086),
 .UNSPECIFIED.,.F.,.F.,(4,2,4),(-1.67735228218327,-0.838744734581869,-4.58717336460276E-5),
 .UNSPECIFIED.);
#132=B_SPLINE_CURVE_WITH_KNOTS('',3,(#1125,#1126,#1127,#1128,#1129,#1130,
#1131,#1132,#1133,#1134,#1135,#1136,#1137,#1138,#1139,#1140,#1141,#1142,
#1143,#1144,#1145,#1146,#1147,#1148,#1149,#1150),.UNSPECIFIED.,.F.,.F.,
(4,2,2,2,2,2,2,2,2,2,2,2,4),(1.25428122821178E-8,0.0793712365883253,0.195301724035175,
0.207133350517955,0.212328576104637,0.216152598866616,0.219681919127084,
0.224465238373413,0.23619580339037,0.344775881538541,0.464245584544593,
0.56500254288736,0.646503259809218),.UNSPECIFIED.);
#133=B_SPLINE_CURVE_WITH_KNOTS('',3,(#1152,#1153,#1154,#1155,#1156,#1157),
 .UNSPECIFIED.,.F.,.F.,(4,2,4),(5.85762653017482E-6,0.362819173035662,0.725615100537531),
 .UNSPECIFIED.);
#134=B_SPLINE_CURVE_WITH_KNOTS('',3,(#1216,#1217,#1218,#1219,#1220,#1221),
 .UNSPECIFIED.,.F.,.F.,(4,2,4),(3.90005879296746E-5,1.17276087265468,2.34529364774643),
 .UNSPECIFIED.);
#135=B_SPLINE_CURVE_WITH_KNOTS('',3,(#1242,#1243,#1244,#1245,#1246,#1247),
 .UNSPECIFIED.,.F.,.F.,(4,2,4),(8.68850943954259E-11,0.708089426619158,
1.41647804565747),.UNSPECIFIED.);
#136=B_SPLINE_CURVE_WITH_KNOTS('',3,(#1298,#1299,#1300,#1301,#1302,#1303),
 .UNSPECIFIED.,.F.,.F.,(4,2,4),(8.79204127635294E-11,0.708089426618793,
1.41647804565787),.UNSPECIFIED.);
#137=B_SPLINE_CURVE_WITH_KNOTS('',3,(#1304,#1305,#1306,#1307,#1308,#1309),
 .UNSPECIFIED.,.F.,.F.,(4,2,4),(3.90005879528272E-5,1.1727608726548,2.34529364774615),
 .UNSPECIFIED.);
#138=CYLINDRICAL_SURFACE('',#583,2.8);
#139=CYLINDRICAL_SURFACE('',#584,1.30015820542);
#140=CYLINDRICAL_SURFACE('',#588,1.30015820542);
#141=CYLINDRICAL_SURFACE('',#591,1.30015820542);
#142=CYLINDRICAL_SURFACE('',#594,1.30015820542);
#143=CYLINDRICAL_SURFACE('',#609,0.300158205423);
#144=CYLINDRICAL_SURFACE('',#612,0.300158205423);
#145=CYLINDRICAL_SURFACE('',#620,0.300158205423);
#146=CYLINDRICAL_SURFACE('',#624,0.300158205423);
#147=FACE_OUTER_BOUND('',#180,.T.);
#148=FACE_OUTER_BOUND('',#181,.T.);
#149=FACE_OUTER_BOUND('',#182,.T.);
#150=FACE_OUTER_BOUND('',#183,.T.);
#151=FACE_OUTER_BOUND('',#184,.T.);
#152=FACE_OUTER_BOUND('',#185,.T.);
#153=FACE_OUTER_BOUND('',#186,.T.);
#154=FACE_OUTER_BOUND('',#187,.T.);
#155=FACE_OUTER_BOUND('',#188,.T.);
#156=FACE_OUTER_BOUND('',#189,.T.);
#157=FACE_OUTER_BOUND('',#190,.T.);
#158=FACE_OUTER_BOUND('',#191,.T.);
#159=FACE_OUTER_BOUND('',#192,.T.);
#160=FACE_OUTER_BOUND('',#193,.T.);
#161=FACE_OUTER_BOUND('',#194,.T.);
#162=FACE_OUTER_BOUND('',#195,.T.);
#163=FACE_OUTER_BOUND('',#196,.T.);
#164=FACE_OUTER_BOUND('',#197,.T.);
#165=FACE_OUTER_BOUND('',#198,.T.);
#166=FACE_OUTER_BOUND('',#199,.T.);
#167=FACE_OUTER_BOUND('',#201,.T.);
#168=FACE_OUTER_BOUND('',#202,.T.);
#169=FACE_OUTER_BOUND('',#203,.T.);
#170=FACE_OUTER_BOUND('',#204,.T.);
#171=FACE_OUTER_BOUND('',#205,.T.);
#172=FACE_OUTER_BOUND('',#206,.T.);
#173=FACE_OUTER_BOUND('',#208,.T.);
#174=FACE_OUTER_BOUND('',#209,.T.);
#175=FACE_OUTER_BOUND('',#210,.T.);
#176=FACE_OUTER_BOUND('',#211,.T.);
#177=FACE_OUTER_BOUND('',#212,.T.);
#178=FACE_OUTER_BOUND('',#213,.T.);
#179=FACE_OUTER_BOUND('',#214,.T.);
#180=EDGE_LOOP('',(#356));
#181=EDGE_LOOP('',(#357,#358,#359,#360,#361));
#182=EDGE_LOOP('',(#362,#363,#364,#365));
#183=EDGE_LOOP('',(#366,#367,#368,#369));
#184=EDGE_LOOP('',(#370,#371,#372,#373));
#185=EDGE_LOOP('',(#374,#375,#376,#377));
#186=EDGE_LOOP('',(#378,#379,#380,#381));
#187=EDGE_LOOP('',(#382,#383,#384,#385));
#188=EDGE_LOOP('',(#386,#387,#388,#389));
#189=EDGE_LOOP('',(#390,#391,#392,#393));
#190=EDGE_LOOP('',(#394,#395,#396,#397));
#191=EDGE_LOOP('',(#398,#399,#400,#401));
#192=EDGE_LOOP('',(#402,#403,#404,#405));
#193=EDGE_LOOP('',(#406,#407,#408,#409));
#194=EDGE_LOOP('',(#410,#411,#412,#413));
#195=EDGE_LOOP('',(#414,#415,#416,#417));
#196=EDGE_LOOP('',(#418,#419,#420,#421));
#197=EDGE_LOOP('',(#422,#423,#424,#425));
#198=EDGE_LOOP('',(#426,#427,#428,#429,#430,#431,#432,#433));
#199=EDGE_LOOP('',(#434,#435,#436,#437,#438,#439,#440,#441));
#200=EDGE_LOOP('',(#442,#443,#444,#445,#446,#447,#448,#449));
#201=EDGE_LOOP('',(#450,#451,#452,#453,#454,#455));
#202=EDGE_LOOP('',(#456,#457,#458,#459,#460));
#203=EDGE_LOOP('',(#461,#462,#463,#464));
#204=EDGE_LOOP('',(#465,#466,#467,#468,#469));
#205=EDGE_LOOP('',(#470,#471,#472,#473,#474,#475));
#206=EDGE_LOOP('',(#476,#477,#478,#479));
#207=EDGE_LOOP('',(#480,#481));
#208=EDGE_LOOP('',(#482,#483,#484,#485,#486,#487));
#209=EDGE_LOOP('',(#488,#489,#490,#491));
#210=EDGE_LOOP('',(#492,#493,#494,#495));
#211=EDGE_LOOP('',(#496,#497,#498,#499,#500));
#212=EDGE_LOOP('',(#501,#502,#503,#504,#505,#506));
#213=EDGE_LOOP('',(#507,#508,#509,#510,#511));
#214=EDGE_LOOP('',(#512,#513,#514,#515));
#215=CIRCLE('',#582,2.8);
#216=CIRCLE('',#585,1.30015820542);
#217=CIRCLE('',#586,1.30015820542);
#218=CIRCLE('',#589,1.30015820542);
#219=CIRCLE('',#592,1.30015820542);
#220=CIRCLE('',#595,1.30015820542);
#221=CIRCLE('',#602,0.300158205423);
#222=CIRCLE('',#603,0.300158205423);
#223=CIRCLE('',#604,0.300158205423);
#224=CIRCLE('',#605,0.300158205423);
#225=VERTEX_POINT('',#765);
#226=VERTEX_POINT('',#768);
#227=VERTEX_POINT('',#769);
#228=VERTEX_POINT('',#820);
#229=VERTEX_POINT('',#821);
#230=VERTEX_POINT('',#823);
#231=VERTEX_POINT('',#825);
#232=VERTEX_POINT('',#829);
#233=VERTEX_POINT('',#831);
#234=VERTEX_POINT('',#835);
#235=VERTEX_POINT('',#837);
#236=VERTEX_POINT('',#850);
#237=VERTEX_POINT('',#852);
#238=VERTEX_POINT('',#856);
#239=VERTEX_POINT('',#858);
#240=VERTEX_POINT('',#871);
#241=VERTEX_POINT('',#873);
#242=VERTEX_POINT('',#877);
#243=VERTEX_POINT('',#879);
#244=VERTEX_POINT('',#930);
#245=VERTEX_POINT('',#932);
#246=VERTEX_POINT('',#947);
#247=VERTEX_POINT('',#991);
#248=VERTEX_POINT('',#1020);
#249=VERTEX_POINT('',#1064);
#250=VERTEX_POINT('',#1079);
#251=VERTEX_POINT('',#1123);
#252=VERTEX_POINT('',#1195);
#253=VERTEX_POINT('',#1196);
#254=VERTEX_POINT('',#1198);
#255=VERTEX_POINT('',#1200);
#256=VERTEX_POINT('',#1202);
#257=VERTEX_POINT('',#1204);
#258=VERTEX_POINT('',#1206);
#259=VERTEX_POINT('',#1208);
#260=VERTEX_POINT('',#1212);
#261=VERTEX_POINT('',#1213);
#262=VERTEX_POINT('',#1215);
#263=VERTEX_POINT('',#1222);
#264=VERTEX_POINT('',#1224);
#265=VERTEX_POINT('',#1226);
#266=VERTEX_POINT('',#1231);
#267=VERTEX_POINT('',#1237);
#268=VERTEX_POINT('',#1241);
#269=VERTEX_POINT('',#1248);
#270=VERTEX_POINT('',#1250);
#271=VERTEX_POINT('',#1297);
#272=VERTEX_POINT('',#1311);
#273=VERTEX_POINT('',#1313);
#274=VERTEX_POINT('',#1321);
#275=VERTEX_POINT('',#1325);
#276=EDGE_CURVE('',#225,#225,#215,.T.);
#277=EDGE_CURVE('',#226,#227,#121,.T.);
#278=EDGE_CURVE('',#227,#226,#122,.T.);
#279=EDGE_CURVE('',#227,#225,#31,.T.);
#280=EDGE_CURVE('',#228,#229,#216,.T.);
#281=EDGE_CURVE('',#230,#229,#32,.F.);
#282=EDGE_CURVE('',#231,#230,#217,.T.);
#283=EDGE_CURVE('',#231,#228,#33,.F.);
#284=EDGE_CURVE('',#232,#229,#34,.T.);
#285=EDGE_CURVE('',#233,#232,#35,.T.);
#286=EDGE_CURVE('',#233,#230,#36,.T.);
#287=EDGE_CURVE('',#232,#234,#218,.T.);
#288=EDGE_CURVE('',#235,#234,#37,.F.);
#289=EDGE_CURVE('',#233,#235,#123,.T.);
#290=EDGE_CURVE('',#236,#234,#38,.T.);
#291=EDGE_CURVE('',#237,#236,#39,.T.);
#292=EDGE_CURVE('',#237,#235,#40,.T.);
#293=EDGE_CURVE('',#236,#238,#219,.T.);
#294=EDGE_CURVE('',#239,#238,#41,.F.);
#295=EDGE_CURVE('',#237,#239,#124,.T.);
#296=EDGE_CURVE('',#240,#238,#42,.T.);
#297=EDGE_CURVE('',#241,#240,#43,.T.);
#298=EDGE_CURVE('',#241,#239,#44,.T.);
#299=EDGE_CURVE('',#240,#242,#220,.T.);
#300=EDGE_CURVE('',#243,#242,#45,.F.);
#301=EDGE_CURVE('',#241,#243,#125,.T.);
#302=EDGE_CURVE('',#228,#242,#46,.T.);
#303=EDGE_CURVE('',#231,#243,#47,.T.);
#304=EDGE_CURVE('',#244,#231,#48,.T.);
#305=EDGE_CURVE('',#245,#230,#49,.T.);
#306=EDGE_CURVE('',#245,#244,#126,.T.);
#307=EDGE_CURVE('',#246,#233,#50,.T.);
#308=EDGE_CURVE('',#246,#245,#127,.T.);
#309=EDGE_CURVE('',#247,#235,#51,.T.);
#310=EDGE_CURVE('',#246,#247,#128,.T.);
#311=EDGE_CURVE('',#248,#237,#52,.T.);
#312=EDGE_CURVE('',#247,#248,#129,.T.);
#313=EDGE_CURVE('',#249,#239,#53,.T.);
#314=EDGE_CURVE('',#249,#248,#130,.T.);
#315=EDGE_CURVE('',#250,#241,#54,.T.);
#316=EDGE_CURVE('',#250,#249,#131,.T.);
#317=EDGE_CURVE('',#251,#243,#55,.T.);
#318=EDGE_CURVE('',#250,#251,#132,.T.);
#319=EDGE_CURVE('',#251,#244,#133,.T.);
#320=EDGE_CURVE('',#252,#253,#221,.T.);
#321=EDGE_CURVE('',#254,#253,#56,.T.);
#322=EDGE_CURVE('',#254,#255,#222,.T.);
#323=EDGE_CURVE('',#255,#256,#57,.T.);
#324=EDGE_CURVE('',#256,#257,#223,.T.);
#325=EDGE_CURVE('',#257,#258,#58,.T.);
#326=EDGE_CURVE('',#258,#259,#224,.T.);
#327=EDGE_CURVE('',#259,#252,#59,.T.);
#328=EDGE_CURVE('',#260,#261,#60,.T.);
#329=EDGE_CURVE('',#260,#262,#134,.T.);
#330=EDGE_CURVE('',#262,#263,#61,.T.);
#331=EDGE_CURVE('',#263,#264,#15,.T.);
#332=EDGE_CURVE('',#264,#265,#62,.T.);
#333=EDGE_CURVE('',#265,#261,#16,.T.);
#334=EDGE_CURVE('',#265,#255,#63,.F.);
#335=EDGE_CURVE('',#266,#254,#64,.F.);
#336=EDGE_CURVE('',#261,#266,#17,.T.);
#337=EDGE_CURVE('',#264,#256,#65,.T.);
#338=EDGE_CURVE('',#267,#257,#66,.F.);
#339=EDGE_CURVE('',#267,#263,#18,.T.);
#340=EDGE_CURVE('',#262,#268,#135,.T.);
#341=EDGE_CURVE('',#268,#269,#67,.T.);
#342=EDGE_CURVE('',#269,#270,#19,.T.);
#343=EDGE_CURVE('',#270,#267,#68,.T.);
#344=EDGE_CURVE('',#271,#260,#136,.T.);
#345=EDGE_CURVE('',#268,#271,#137,.T.);
#346=EDGE_CURVE('',#266,#272,#69,.T.);
#347=EDGE_CURVE('',#272,#273,#20,.T.);
#348=EDGE_CURVE('',#271,#273,#70,.T.);
#349=EDGE_CURVE('',#272,#253,#71,.T.);
#350=EDGE_CURVE('',#270,#258,#72,.T.);
#351=EDGE_CURVE('',#274,#259,#73,.F.);
#352=EDGE_CURVE('',#274,#269,#21,.T.);
#353=EDGE_CURVE('',#273,#275,#22,.T.);
#354=EDGE_CURVE('',#275,#274,#74,.T.);
#355=EDGE_CURVE('',#275,#252,#75,.F.);
#356=ORIENTED_EDGE('',*,*,#276,.T.);
#357=ORIENTED_EDGE('',*,*,#277,.F.);
#358=ORIENTED_EDGE('',*,*,#278,.F.);
#359=ORIENTED_EDGE('',*,*,#279,.T.);
#360=ORIENTED_EDGE('',*,*,#276,.F.);
#361=ORIENTED_EDGE('',*,*,#279,.F.);
#362=ORIENTED_EDGE('',*,*,#280,.T.);
#363=ORIENTED_EDGE('',*,*,#281,.F.);
#364=ORIENTED_EDGE('',*,*,#282,.F.);
#365=ORIENTED_EDGE('',*,*,#283,.T.);
#366=ORIENTED_EDGE('',*,*,#284,.F.);
#367=ORIENTED_EDGE('',*,*,#285,.F.);
#368=ORIENTED_EDGE('',*,*,#286,.T.);
#369=ORIENTED_EDGE('',*,*,#281,.T.);
#370=ORIENTED_EDGE('',*,*,#287,.T.);
#371=ORIENTED_EDGE('',*,*,#288,.F.);
#372=ORIENTED_EDGE('',*,*,#289,.F.);
#373=ORIENTED_EDGE('',*,*,#285,.T.);
#374=ORIENTED_EDGE('',*,*,#290,.F.);
#375=ORIENTED_EDGE('',*,*,#291,.F.);
#376=ORIENTED_EDGE('',*,*,#292,.T.);
#377=ORIENTED_EDGE('',*,*,#288,.T.);
#378=ORIENTED_EDGE('',*,*,#293,.T.);
#379=ORIENTED_EDGE('',*,*,#294,.F.);
#380=ORIENTED_EDGE('',*,*,#295,.F.);
#381=ORIENTED_EDGE('',*,*,#291,.T.);
#382=ORIENTED_EDGE('',*,*,#296,.F.);
#383=ORIENTED_EDGE('',*,*,#297,.F.);
#384=ORIENTED_EDGE('',*,*,#298,.T.);
#385=ORIENTED_EDGE('',*,*,#294,.T.);
#386=ORIENTED_EDGE('',*,*,#299,.T.);
#387=ORIENTED_EDGE('',*,*,#300,.F.);
#388=ORIENTED_EDGE('',*,*,#301,.F.);
#389=ORIENTED_EDGE('',*,*,#297,.T.);
#390=ORIENTED_EDGE('',*,*,#302,.F.);
#391=ORIENTED_EDGE('',*,*,#283,.F.);
#392=ORIENTED_EDGE('',*,*,#303,.T.);
#393=ORIENTED_EDGE('',*,*,#300,.T.);
#394=ORIENTED_EDGE('',*,*,#304,.T.);
#395=ORIENTED_EDGE('',*,*,#282,.T.);
#396=ORIENTED_EDGE('',*,*,#305,.F.);
#397=ORIENTED_EDGE('',*,*,#306,.T.);
#398=ORIENTED_EDGE('',*,*,#305,.T.);
#399=ORIENTED_EDGE('',*,*,#286,.F.);
#400=ORIENTED_EDGE('',*,*,#307,.F.);
#401=ORIENTED_EDGE('',*,*,#308,.T.);
#402=ORIENTED_EDGE('',*,*,#307,.T.);
#403=ORIENTED_EDGE('',*,*,#289,.T.);
#404=ORIENTED_EDGE('',*,*,#309,.F.);
#405=ORIENTED_EDGE('',*,*,#310,.F.);
#406=ORIENTED_EDGE('',*,*,#309,.T.);
#407=ORIENTED_EDGE('',*,*,#292,.F.);
#408=ORIENTED_EDGE('',*,*,#311,.F.);
#409=ORIENTED_EDGE('',*,*,#312,.F.);
#410=ORIENTED_EDGE('',*,*,#311,.T.);
#411=ORIENTED_EDGE('',*,*,#295,.T.);
#412=ORIENTED_EDGE('',*,*,#313,.F.);
#413=ORIENTED_EDGE('',*,*,#314,.T.);
#414=ORIENTED_EDGE('',*,*,#313,.T.);
#415=ORIENTED_EDGE('',*,*,#298,.F.);
#416=ORIENTED_EDGE('',*,*,#315,.F.);
#417=ORIENTED_EDGE('',*,*,#316,.T.);
#418=ORIENTED_EDGE('',*,*,#315,.T.);
#419=ORIENTED_EDGE('',*,*,#301,.T.);
#420=ORIENTED_EDGE('',*,*,#317,.F.);
#421=ORIENTED_EDGE('',*,*,#318,.F.);
#422=ORIENTED_EDGE('',*,*,#317,.T.);
#423=ORIENTED_EDGE('',*,*,#303,.F.);
#424=ORIENTED_EDGE('',*,*,#304,.F.);
#425=ORIENTED_EDGE('',*,*,#319,.F.);
#426=ORIENTED_EDGE('',*,*,#308,.F.);
#427=ORIENTED_EDGE('',*,*,#310,.T.);
#428=ORIENTED_EDGE('',*,*,#312,.T.);
#429=ORIENTED_EDGE('',*,*,#314,.F.);
#430=ORIENTED_EDGE('',*,*,#316,.F.);
#431=ORIENTED_EDGE('',*,*,#318,.T.);
#432=ORIENTED_EDGE('',*,*,#319,.T.);
#433=ORIENTED_EDGE('',*,*,#306,.F.);
#434=ORIENTED_EDGE('',*,*,#302,.T.);
#435=ORIENTED_EDGE('',*,*,#299,.F.);
#436=ORIENTED_EDGE('',*,*,#296,.T.);
#437=ORIENTED_EDGE('',*,*,#293,.F.);
#438=ORIENTED_EDGE('',*,*,#290,.T.);
#439=ORIENTED_EDGE('',*,*,#287,.F.);
#440=ORIENTED_EDGE('',*,*,#284,.T.);
#441=ORIENTED_EDGE('',*,*,#280,.F.);
#442=ORIENTED_EDGE('',*,*,#320,.T.);
#443=ORIENTED_EDGE('',*,*,#321,.F.);
#444=ORIENTED_EDGE('',*,*,#322,.T.);
#445=ORIENTED_EDGE('',*,*,#323,.T.);
#446=ORIENTED_EDGE('',*,*,#324,.T.);
#447=ORIENTED_EDGE('',*,*,#325,.T.);
#448=ORIENTED_EDGE('',*,*,#326,.T.);
#449=ORIENTED_EDGE('',*,*,#327,.T.);
#450=ORIENTED_EDGE('',*,*,#328,.F.);
#451=ORIENTED_EDGE('',*,*,#329,.T.);
#452=ORIENTED_EDGE('',*,*,#330,.T.);
#453=ORIENTED_EDGE('',*,*,#331,.T.);
#454=ORIENTED_EDGE('',*,*,#332,.T.);
#455=ORIENTED_EDGE('',*,*,#333,.T.);
#456=ORIENTED_EDGE('',*,*,#334,.T.);
#457=ORIENTED_EDGE('',*,*,#322,.F.);
#458=ORIENTED_EDGE('',*,*,#335,.F.);
#459=ORIENTED_EDGE('',*,*,#336,.F.);
#460=ORIENTED_EDGE('',*,*,#333,.F.);
#461=ORIENTED_EDGE('',*,*,#337,.T.);
#462=ORIENTED_EDGE('',*,*,#323,.F.);
#463=ORIENTED_EDGE('',*,*,#334,.F.);
#464=ORIENTED_EDGE('',*,*,#332,.F.);
#465=ORIENTED_EDGE('',*,*,#338,.T.);
#466=ORIENTED_EDGE('',*,*,#324,.F.);
#467=ORIENTED_EDGE('',*,*,#337,.F.);
#468=ORIENTED_EDGE('',*,*,#331,.F.);
#469=ORIENTED_EDGE('',*,*,#339,.F.);
#470=ORIENTED_EDGE('',*,*,#330,.F.);
#471=ORIENTED_EDGE('',*,*,#340,.T.);
#472=ORIENTED_EDGE('',*,*,#341,.T.);
#473=ORIENTED_EDGE('',*,*,#342,.T.);
#474=ORIENTED_EDGE('',*,*,#343,.T.);
#475=ORIENTED_EDGE('',*,*,#339,.T.);
#476=ORIENTED_EDGE('',*,*,#340,.F.);
#477=ORIENTED_EDGE('',*,*,#329,.F.);
#478=ORIENTED_EDGE('',*,*,#344,.F.);
#479=ORIENTED_EDGE('',*,*,#345,.F.);
#480=ORIENTED_EDGE('',*,*,#277,.T.);
#481=ORIENTED_EDGE('',*,*,#278,.T.);
#482=ORIENTED_EDGE('',*,*,#336,.T.);
#483=ORIENTED_EDGE('',*,*,#346,.T.);
#484=ORIENTED_EDGE('',*,*,#347,.T.);
#485=ORIENTED_EDGE('',*,*,#348,.F.);
#486=ORIENTED_EDGE('',*,*,#344,.T.);
#487=ORIENTED_EDGE('',*,*,#328,.T.);
#488=ORIENTED_EDGE('',*,*,#349,.F.);
#489=ORIENTED_EDGE('',*,*,#346,.F.);
#490=ORIENTED_EDGE('',*,*,#335,.T.);
#491=ORIENTED_EDGE('',*,*,#321,.T.);
#492=ORIENTED_EDGE('',*,*,#350,.T.);
#493=ORIENTED_EDGE('',*,*,#325,.F.);
#494=ORIENTED_EDGE('',*,*,#338,.F.);
#495=ORIENTED_EDGE('',*,*,#343,.F.);
#496=ORIENTED_EDGE('',*,*,#351,.T.);
#497=ORIENTED_EDGE('',*,*,#326,.F.);
#498=ORIENTED_EDGE('',*,*,#350,.F.);
#499=ORIENTED_EDGE('',*,*,#342,.F.);
#500=ORIENTED_EDGE('',*,*,#352,.F.);
#501=ORIENTED_EDGE('',*,*,#341,.F.);
#502=ORIENTED_EDGE('',*,*,#345,.T.);
#503=ORIENTED_EDGE('',*,*,#348,.T.);
#504=ORIENTED_EDGE('',*,*,#353,.T.);
#505=ORIENTED_EDGE('',*,*,#354,.T.);
#506=ORIENTED_EDGE('',*,*,#352,.T.);
#507=ORIENTED_EDGE('',*,*,#349,.T.);
#508=ORIENTED_EDGE('',*,*,#320,.F.);
#509=ORIENTED_EDGE('',*,*,#355,.F.);
#510=ORIENTED_EDGE('',*,*,#353,.F.);
#511=ORIENTED_EDGE('',*,*,#347,.F.);
#512=ORIENTED_EDGE('',*,*,#355,.T.);
#513=ORIENTED_EDGE('',*,*,#327,.F.);
#514=ORIENTED_EDGE('',*,*,#351,.F.);
#515=ORIENTED_EDGE('',*,*,#354,.F.);
#516=PLANE('',#581);
#517=PLANE('',#587);
#518=PLANE('',#590);
#519=PLANE('',#593);
#520=PLANE('',#596);
#521=PLANE('',#597);
#522=PLANE('',#598);
#523=PLANE('',#599);
#524=PLANE('',#600);
#525=PLANE('',#601);
#526=PLANE('',#606);
#527=PLANE('',#611);
#528=PLANE('',#614);
#529=PLANE('',#616);
#530=PLANE('',#618);
#531=PLANE('',#619);
#532=PLANE('',#622);
#533=PLANE('',#625);
#534=ADVANCED_FACE('',(#147),#516,.F.);
#535=ADVANCED_FACE('',(#148),#138,.T.);
#536=ADVANCED_FACE('',(#149),#139,.T.);
#537=ADVANCED_FACE('',(#150),#517,.T.);
#538=ADVANCED_FACE('',(#151),#140,.T.);
#539=ADVANCED_FACE('',(#152),#518,.T.);
#540=ADVANCED_FACE('',(#153),#141,.T.);
#541=ADVANCED_FACE('',(#154),#519,.T.);
#542=ADVANCED_FACE('',(#155),#142,.T.);
#543=ADVANCED_FACE('',(#156),#520,.T.);
#544=ADVANCED_FACE('',(#157),#27,.T.);
#545=ADVANCED_FACE('',(#158),#521,.T.);
#546=ADVANCED_FACE('',(#159),#28,.T.);
#547=ADVANCED_FACE('',(#160),#522,.T.);
#548=ADVANCED_FACE('',(#161),#29,.T.);
#549=ADVANCED_FACE('',(#162),#523,.T.);
#550=ADVANCED_FACE('',(#163),#30,.T.);
#551=ADVANCED_FACE('',(#164),#524,.T.);
#552=ADVANCED_FACE('',(#165),#25,.T.);
#553=ADVANCED_FACE('',(#166,#23),#525,.F.);
#554=ADVANCED_FACE('',(#167),#526,.F.);
#555=ADVANCED_FACE('',(#168),#143,.F.);
#556=ADVANCED_FACE('',(#169),#527,.F.);
#557=ADVANCED_FACE('',(#170),#144,.F.);
#558=ADVANCED_FACE('',(#171),#528,.F.);
#559=ADVANCED_FACE('',(#172,#24),#26,.F.);
#560=ADVANCED_FACE('',(#173),#529,.F.);
#561=ADVANCED_FACE('',(#174),#530,.F.);
#562=ADVANCED_FACE('',(#175),#531,.F.);
#563=ADVANCED_FACE('',(#176),#145,.F.);
#564=ADVANCED_FACE('',(#177),#532,.F.);
#565=ADVANCED_FACE('',(#178),#146,.F.);
#566=ADVANCED_FACE('',(#179),#533,.F.);
#567=CLOSED_SHELL('',(#534,#535,#536,#537,#538,#539,#540,#541,#542,#543,
#544,#545,#546,#547,#548,#549,#550,#551,#552,#553,#554,#555,#556,#557,#558,
#559,#560,#561,#562,#563,#564,#565,#566));
#568=DERIVED_UNIT_ELEMENT(#570,1.);
#569=DERIVED_UNIT_ELEMENT(#1336,-3.);
#570=(
MASS_UNIT()
NAMED_UNIT(*)
SI_UNIT(.KILO.,.GRAM.)
);
#571=DERIVED_UNIT((#568,#569));
#572=MEASURE_REPRESENTATION_ITEM('density measure',
POSITIVE_RATIO_MEASURE(7850.),#571);
#573=PROPERTY_DEFINITION_REPRESENTATION(#578,#575);
#574=PROPERTY_DEFINITION_REPRESENTATION(#579,#576);
#575=REPRESENTATION('material name',(#577),#1333);
#576=REPRESENTATION('density',(#572),#1333);
#577=DESCRIPTIVE_REPRESENTATION_ITEM('\X2\92FC\X0\','\X2\92FC\X0\');
#578=PROPERTY_DEFINITION('material property','material name',#1343);
#579=PROPERTY_DEFINITION('material property','density of part',#1343);
#580=AXIS2_PLACEMENT_3D('',#763,#626,#627);
#581=AXIS2_PLACEMENT_3D('',#764,#628,#629);
#582=AXIS2_PLACEMENT_3D('',#766,#630,#631);
#583=AXIS2_PLACEMENT_3D('',#767,#632,#633);
#584=AXIS2_PLACEMENT_3D('',#819,#635,#636);
#585=AXIS2_PLACEMENT_3D('',#822,#637,#638);
#586=AXIS2_PLACEMENT_3D('',#826,#640,#641);
#587=AXIS2_PLACEMENT_3D('',#828,#643,#644);
#588=AXIS2_PLACEMENT_3D('',#834,#648,#649);
#589=AXIS2_PLACEMENT_3D('',#836,#650,#651);
#590=AXIS2_PLACEMENT_3D('',#849,#653,#654);
#591=AXIS2_PLACEMENT_3D('',#855,#658,#659);
#592=AXIS2_PLACEMENT_3D('',#857,#660,#661);
#593=AXIS2_PLACEMENT_3D('',#870,#663,#664);
#594=AXIS2_PLACEMENT_3D('',#876,#668,#669);
#595=AXIS2_PLACEMENT_3D('',#878,#670,#671);
#596=AXIS2_PLACEMENT_3D('',#891,#673,#674);
#597=AXIS2_PLACEMENT_3D('',#946,#679,#680);
#598=AXIS2_PLACEMENT_3D('',#1019,#683,#684);
#599=AXIS2_PLACEMENT_3D('',#1078,#687,#688);
#600=AXIS2_PLACEMENT_3D('',#1151,#691,#692);
#601=AXIS2_PLACEMENT_3D('',#1194,#693,#694);
#602=AXIS2_PLACEMENT_3D('',#1197,#695,#696);
#603=AXIS2_PLACEMENT_3D('',#1201,#698,#699);
#604=AXIS2_PLACEMENT_3D('',#1205,#701,#702);
#605=AXIS2_PLACEMENT_3D('',#1209,#704,#705);
#606=AXIS2_PLACEMENT_3D('',#1211,#707,#708);
#607=AXIS2_PLACEMENT_3D('',#1225,#711,#712);
#608=AXIS2_PLACEMENT_3D('',#1228,#714,#715);
#609=AXIS2_PLACEMENT_3D('',#1229,#716,#717);
#610=AXIS2_PLACEMENT_3D('',#1233,#720,#721);
#611=AXIS2_PLACEMENT_3D('',#1234,#722,#723);
#612=AXIS2_PLACEMENT_3D('',#1236,#725,#726);
#613=AXIS2_PLACEMENT_3D('',#1239,#728,#729);
#614=AXIS2_PLACEMENT_3D('',#1240,#730,#731);
#615=AXIS2_PLACEMENT_3D('',#1251,#733,#734);
#616=AXIS2_PLACEMENT_3D('',#1310,#736,#737);
#617=AXIS2_PLACEMENT_3D('',#1314,#739,#740);
#618=AXIS2_PLACEMENT_3D('',#1316,#742,#743);
#619=AXIS2_PLACEMENT_3D('',#1318,#745,#746);
#620=AXIS2_PLACEMENT_3D('',#1320,#748,#749);
#621=AXIS2_PLACEMENT_3D('',#1323,#751,#752);
#622=AXIS2_PLACEMENT_3D('',#1324,#753,#754);
#623=AXIS2_PLACEMENT_3D('',#1326,#755,#756);
#624=AXIS2_PLACEMENT_3D('',#1328,#758,#759);
#625=AXIS2_PLACEMENT_3D('',#1330,#761,#762);
#626=DIRECTION('axis',(0.,0.,1.));
#627=DIRECTION('refdir',(1.,0.,0.));
#628=DIRECTION('center_axis',(0.,0.,1.));
#629=DIRECTION('ref_axis',(1.,0.,0.));
#630=DIRECTION('center_axis',(0.,0.,-1.));
#631=DIRECTION('ref_axis',(1.,0.,0.));
#632=DIRECTION('center_axis',(0.,0.,1.));
#633=DIRECTION('ref_axis',(1.,0.,0.));
#634=DIRECTION('',(0.,0.,-1.));
#635=DIRECTION('center_axis',(0.,0.,1.));
#636=DIRECTION('ref_axis',(0.999999981064159,0.000194606478699031,0.));
#637=DIRECTION('center_axis',(0.,0.,1.));
#638=DIRECTION('ref_axis',(-1.,0.,0.));
#639=DIRECTION('',(0.,0.,1.));
#640=DIRECTION('center_axis',(0.,0.,1.));
#641=DIRECTION('ref_axis',(-1.,0.,0.));
#642=DIRECTION('',(0.,0.,1.));
#643=DIRECTION('center_axis',(0.,1.,0.));
#644=DIRECTION('ref_axis',(0.,0.,-1.));
#645=DIRECTION('',(1.,0.,0.));
#646=DIRECTION('',(0.,0.,-1.));
#647=DIRECTION('',(1.,0.,0.));
#648=DIRECTION('center_axis',(9.89752658963E-15,-9.89752658963E-15,1.));
#649=DIRECTION('ref_axis',(-0.000194606478719031,0.999999981064159,9.89945252500965E-15));
#650=DIRECTION('center_axis',(9.89752658963E-15,-9.89752658963E-15,1.));
#651=DIRECTION('ref_axis',(-1.,0.,9.89752658963E-15));
#652=DIRECTION('',(1.06581410364E-14,-1.06581410364E-14,1.));
#653=DIRECTION('center_axis',(-1.,-1.1933299305E-15,0.));
#654=DIRECTION('ref_axis',(0.,0.,-1.));
#655=DIRECTION('',(-1.13650469571E-15,1.,0.));
#656=DIRECTION('',(0.,0.,-1.));
#657=DIRECTION('',(-1.13650469571E-15,1.,0.));
#658=DIRECTION('center_axis',(0.,0.,1.));
#659=DIRECTION('ref_axis',(-0.999999981064159,-0.000194606478702031,0.));
#660=DIRECTION('center_axis',(0.,0.,1.));
#661=DIRECTION('ref_axis',(-1.,0.,0.));
#662=DIRECTION('',(0.,0.,1.));
#663=DIRECTION('center_axis',(0.,-1.,0.));
#664=DIRECTION('ref_axis',(0.,0.,-1.));
#665=DIRECTION('',(-1.,0.,0.));
#666=DIRECTION('',(0.,0.,-1.));
#667=DIRECTION('',(-1.,0.,0.));
#668=DIRECTION('center_axis',(-1.64958776494E-15,1.64958776494E-15,1.));
#669=DIRECTION('ref_axis',(0.000194606478706031,-0.999999981064159,1.64990875416992E-15));
#670=DIRECTION('center_axis',(-1.64958776494E-15,1.64958776494E-15,1.));
#671=DIRECTION('ref_axis',(-1.,0.,-1.64958776494E-15));
#672=DIRECTION('',(0.,1.7763568394E-15,1.));
#673=DIRECTION('center_axis',(1.,2.32983462621E-15,0.));
#674=DIRECTION('ref_axis',(0.,0.,-1.));
#675=DIRECTION('',(2.27300939143E-15,-1.,0.));
#676=DIRECTION('',(2.27300939143E-15,-1.,0.));
#677=DIRECTION('',(0.226747562084865,0.726799219908957,-0.648342839112381));
#678=DIRECTION('',(0.726799219910301,0.22674756207516,-0.648342839114268));
#679=DIRECTION('center_axis',(0.,0.943936607320459,0.330126765592161));
#680=DIRECTION('ref_axis',(0.726799219870852,0.2267475620967,-0.648342839150957));
#681=DIRECTION('',(-0.726799219909464,0.226747562083145,-0.648342839112414));
#682=DIRECTION('',(-0.226747562084882,0.726799219909104,-0.64834283911221));
#683=DIRECTION('center_axis',(-0.943936607320459,0.,0.330126765592161));
#684=DIRECTION('ref_axis',(-0.226747562082717,0.726799219910879,-0.648342839110977));
#685=DIRECTION('',(-0.226747562082998,-0.726799219908993,-0.648342839112994));
#686=DIRECTION('',(-0.726799219913464,-0.226747562082295,-0.648342839108227));
#687=DIRECTION('center_axis',(0.,-0.943936607320459,0.330126765592161));
#688=DIRECTION('ref_axis',(-0.726799219789857,-0.226747562124994,-0.648342839231859));
#689=DIRECTION('',(0.726799219909464,-0.226747562083145,-0.648342839112414));
#690=DIRECTION('',(0.226747562084882,-0.726799219909104,-0.64834283911221));
#691=DIRECTION('center_axis',(0.943936607320459,0.,0.330126765592161));
#692=DIRECTION('ref_axis',(0.226747562082717,-0.726799219910879,-0.648342839110977));
#693=DIRECTION('center_axis',(0.,0.,1.));
#694=DIRECTION('ref_axis',(1.,0.,0.));
#695=DIRECTION('center_axis',(0.,0.,1.));
#696=DIRECTION('ref_axis',(-1.,0.,0.));
#697=DIRECTION('',(0.,-1.,0.));
#698=DIRECTION('center_axis',(0.,0.,1.));
#699=DIRECTION('ref_axis',(-1.,0.,0.));
#700=DIRECTION('',(-1.,0.,0.));
#701=DIRECTION('center_axis',(0.,0.,1.));
#702=DIRECTION('ref_axis',(-1.,0.,0.));
#703=DIRECTION('',(0.,-1.,0.));
#704=DIRECTION('center_axis',(0.,0.,1.));
#705=DIRECTION('ref_axis',(-1.,0.,0.));
#706=DIRECTION('',(1.,0.,0.));
#707=DIRECTION('center_axis',(0.,0.943936607320459,0.330126765592161));
#708=DIRECTION('ref_axis',(0.726799219870852,0.2267475620967,-0.648342839150957));
#709=DIRECTION('',(0.313486006298664,0.313486006305286,-0.896355424876581));
#710=DIRECTION('',(-0.313486006298664,0.313486006305286,-0.896355424876581));
#711=DIRECTION('center_axis',(0.,-0.943936607320459,-0.330126765592161));
#712=DIRECTION('ref_axis',(1.0493574787758E-14,-0.330126765592161,0.943936607320459));
#713=DIRECTION('',(1.,0.,0.));
#714=DIRECTION('center_axis',(0.,-0.943936607320459,-0.330126765592161));
#715=DIRECTION('ref_axis',(0.,-0.330126765592161,0.943936607320459));
#716=DIRECTION('center_axis',(0.,0.,1.));
#717=DIRECTION('ref_axis',(0.707106635981911,0.707106926391155,0.));
#718=DIRECTION('',(0.,0.,1.));
#719=DIRECTION('',(0.,0.,1.));
#720=DIRECTION('center_axis',(-0.943936607320459,0.,-0.330126765592161));
#721=DIRECTION('ref_axis',(-0.330126765592161,0.,0.943936607320459));
#722=DIRECTION('center_axis',(0.,1.,0.));
#723=DIRECTION('ref_axis',(0.,0.,-1.));
#724=DIRECTION('',(0.,0.,-1.));
#725=DIRECTION('center_axis',(9.89752658963E-15,-9.89752658963E-15,1.));
#726=DIRECTION('ref_axis',(-0.707335084477636,0.706878404159453,1.3997215607199E-14));
#727=DIRECTION('',(1.06951805172E-14,-1.06951805172E-14,1.));
#728=DIRECTION('center_axis',(0.943936607320459,-2.77555756156135E-17,-0.330126765592161));
#729=DIRECTION('ref_axis',(0.330126765592161,-1.0493574787758E-14,0.943936607320459));
#730=DIRECTION('center_axis',(-0.943936607320459,2.77555756156135E-17,0.330126765592161));
#731=DIRECTION('ref_axis',(-0.226747562082717,0.726799219910879,-0.648342839110977));
#732=DIRECTION('',(-0.313486006298664,-0.313486006305286,-0.896355424876581));
#733=DIRECTION('center_axis',(0.943936607320459,-2.77555756156135E-17,-0.330126765592161));
#734=DIRECTION('ref_axis',(0.330126765592161,0.,0.943936607320459));
#735=DIRECTION('',(0.,1.,0.));
#736=DIRECTION('center_axis',(0.943936607320459,0.,0.330126765592161));
#737=DIRECTION('ref_axis',(0.226747562082717,-0.726799219910879,-0.648342839110977));
#738=DIRECTION('',(0.,-1.,0.));
#739=DIRECTION('center_axis',(-0.943936607320459,0.,-0.330126765592161));
#740=DIRECTION('ref_axis',(-0.330126765592161,1.75528887358866E-15,0.943936607320459));
#741=DIRECTION('',(0.313486006298664,-0.313486006305286,-0.896355424876581));
#742=DIRECTION('center_axis',(1.,2.32983462621E-15,0.));
#743=DIRECTION('ref_axis',(0.,0.,-1.));
#744=DIRECTION('',(0.,0.,-1.));
#745=DIRECTION('center_axis',(-1.,-1.1933299305E-15,0.));
#746=DIRECTION('ref_axis',(0.,0.,-1.));
#747=DIRECTION('',(0.,0.,-1.));
#748=DIRECTION('center_axis',(0.,0.,1.));
#749=DIRECTION('ref_axis',(-0.706922694272408,-0.707290820188301,0.));
#750=DIRECTION('',(0.,0.,1.));
#751=DIRECTION('center_axis',(0.,0.943936607320459,-0.330126765592161));
#752=DIRECTION('ref_axis',(0.,0.330126765592161,0.943936607320459));
#753=DIRECTION('center_axis',(0.,-0.943936607320459,0.330126765592161));
#754=DIRECTION('ref_axis',(-0.726799219789857,-0.226747562124994,-0.648342839231859));
#755=DIRECTION('center_axis',(0.,0.943936607320459,-0.330126765592161));
#756=DIRECTION('ref_axis',(-1.75528887358866E-15,0.330126765592161,0.943936607320459));
#757=DIRECTION('',(-1.,0.,0.));
#758=DIRECTION('center_axis',(-1.64958776494E-15,1.64958776494E-15,1.));
#759=DIRECTION('ref_axis',(0.706945932761099,-0.707267593031477,2.33286932916009E-15));
#760=DIRECTION('',(0.,2.13903610343E-15,1.));
#761=DIRECTION('center_axis',(0.,-1.,0.));
#762=DIRECTION('ref_axis',(0.,0.,-1.));
#763=CARTESIAN_POINT('',(0.,0.,0.));
#764=CARTESIAN_POINT('Origin',(0.,0.,-1.));
#765=CARTESIAN_POINT('',(-2.8,-3.42901103761259E-16,-1.));
#766=CARTESIAN_POINT('Origin',(0.,0.,-1.));
#767=CARTESIAN_POINT('Origin',(0.,0.,0.));
#768=CARTESIAN_POINT('',(-2.6050827542911,1.02642283845165,3.26320491853148));
#769=CARTESIAN_POINT('',(-2.8,-3.42901103761259E-16,3.26322410134351));
#770=CARTESIAN_POINT('Ctrl Pts',(-2.60508275429111,1.02642283845153,3.26320491853148));
#771=CARTESIAN_POINT('Ctrl Pts',(-2.73380942607493,0.699711837761775,3.26320837370231));
#772=CARTESIAN_POINT('Ctrl Pts',(-2.80000000001271,0.351505440253604,3.26321224154799));
#773=CARTESIAN_POINT('Ctrl Pts',(-2.79999999999998,-1.01373770489133E-10,
3.26321556573326));
#774=CARTESIAN_POINT('Ctrl Pts',(-2.8,-1.01402775065651E-10,3.26321556573327));
#775=CARTESIAN_POINT('Ctrl Pts',(-2.79999999999051,-0.262089943301665,3.26321804431661));
#776=CARTESIAN_POINT('Ctrl Pts',(-2.76320117587751,-0.522886603346946,3.26322018164222));
#777=CARTESIAN_POINT('Ctrl Pts',(-2.61505416753561,-1.03740046903893,3.26322320058952));
#778=CARTESIAN_POINT('Ctrl Pts',(-2.5013722575822,-1.28757324431116,3.26322400078024));
#779=CARTESIAN_POINT('Ctrl Pts',(-2.15208082029745,-1.82931041081085,3.2632238295403));
#780=CARTESIAN_POINT('Ctrl Pts',(-1.89084123907323,-2.09822492760129,3.26322209657665));
#781=CARTESIAN_POINT('Ctrl Pts',(-1.33708612373684,-2.47840031326139,3.26321691409052));
#782=CARTESIAN_POINT('Ctrl Pts',(-1.06363246530024,-2.60748027676362,3.26321391634146));
#783=CARTESIAN_POINT('Ctrl Pts',(-0.540224696605514,-2.75822577913793,3.26320827877223));
#784=CARTESIAN_POINT('Ctrl Pts',(-0.297688114649671,-2.79482270599342,3.26320570870167));
#785=CARTESIAN_POINT('Ctrl Pts',(0.187045900658507,-2.80408537037578,3.26320114595541));
#786=CARTESIAN_POINT('Ctrl Pts',(0.427179005089169,-2.77766071199047,3.26319916762168));
#787=CARTESIAN_POINT('Ctrl Pts',(0.940544449837459,-2.65295191145297,3.26319594575924));
#788=CARTESIAN_POINT('Ctrl Pts',(1.2079935438499,-2.54234720379457,3.26319494928487));
#789=CARTESIAN_POINT('Ctrl Pts',(1.47133841856611,-2.38234770818034,3.26319486050264));
#790=CARTESIAN_POINT('Ctrl Pts',(1.48868098992746,-2.37154933637285,3.2631948591336));
#791=CARTESIAN_POINT('Ctrl Pts',(1.8074831698494,-2.16817175318802,3.26319491742486));
#792=CARTESIAN_POINT('Ctrl Pts',(2.06941834101594,-1.91975828960356,3.26319640021822));
#793=CARTESIAN_POINT('Ctrl Pts',(2.49292434532613,-1.32757720597321,3.26320161210632));
#794=CARTESIAN_POINT('Ctrl Pts',(2.64646025814887,-0.986600796342408,3.26320535150117));
#795=CARTESIAN_POINT('Ctrl Pts',(2.81055885015658,-0.270769980037076,3.26321297664045));
#796=CARTESIAN_POINT('Ctrl Pts',(2.82191905562712,0.0965933531385213,3.26321674833527));
#797=CARTESIAN_POINT('Ctrl Pts',(2.70575701899369,0.800630559709607,3.26322212841974));
#798=CARTESIAN_POINT('Ctrl Pts',(2.58481086387452,1.13176107770538,3.26322374259334));
#799=CARTESIAN_POINT('Ctrl Pts',(2.21616023261582,1.7511461196532,3.2632241013435));
#800=CARTESIAN_POINT('Ctrl Pts',(1.96465898942572,2.02928410144709,3.26322264766004));
#801=CARTESIAN_POINT('Ctrl Pts',(1.41785163817459,2.43417827629625,3.26321775629416));
#802=CARTESIAN_POINT('Ctrl Pts',(1.14071188741147,2.57571418028462,3.26321475421566));
#803=CARTESIAN_POINT('Ctrl Pts',(0.610578864017043,2.7437620197822,3.2632090321281));
#804=CARTESIAN_POINT('Ctrl Pts',(0.366224135538545,2.78691880989497,3.26320641031807));
#805=CARTESIAN_POINT('Ctrl Pts',(-0.119307642820038,2.80764091093222,3.2632017421636));
#806=CARTESIAN_POINT('Ctrl Pts',(-0.35833364511022,2.7872349734412,3.26319970227379));
#807=CARTESIAN_POINT('Ctrl Pts',(-0.866241648467444,2.67739344314914,3.26319632050568));
#808=CARTESIAN_POINT('Ctrl Pts',(-1.13015211571319,2.57712367540443,3.26319518952979));
#809=CARTESIAN_POINT('Ctrl Pts',(-1.4508926331257,2.39636307188604,3.26319484017427));
#810=CARTESIAN_POINT('Ctrl Pts',(-1.52501383461859,2.34988897809693,3.2631948398429));
#811=CARTESIAN_POINT('Ctrl Pts',(-1.72930138143684,2.20805812269072,3.26319507395849));
#812=CARTESIAN_POINT('Ctrl Pts',(-1.85357221366262,2.1048216052111,3.26319550769834));
#813=CARTESIAN_POINT('Ctrl Pts',(-2.23118876756391,1.73160435363196,3.26319779195354));
#814=CARTESIAN_POINT('Ctrl Pts',(-2.4400662923877,1.42222833708101,3.26320075810748));
#815=CARTESIAN_POINT('Ctrl Pts',(-2.59043505138968,1.06303128300022,3.26320453194208));
#816=CARTESIAN_POINT('Ctrl Pts',(-2.59785740795967,1.0447609194225,3.26320472459492));
#817=CARTESIAN_POINT('Ctrl Pts',(-2.60508275429117,1.02642283845154,3.26320491853147));
#818=CARTESIAN_POINT('',(-2.8,-3.42901103761259E-16,0.));
#819=CARTESIAN_POINT('Origin',(12.4497469623,7.81474696233,0.5));
#820=CARTESIAN_POINT('',(13.7499051431064,7.81499999615257,0.));
#821=CARTESIAN_POINT('',(12.4499999960926,9.11490514313637,0.));
#822=CARTESIAN_POINT('Origin',(12.4497469623,7.81474696233,0.));
#823=CARTESIAN_POINT('',(12.4499999815,9.11490514313041,1.));
#824=CARTESIAN_POINT('',(12.4499999815,9.11490514313,0.5));
#825=CARTESIAN_POINT('',(13.7499051431004,7.81499998154,1.));
#826=CARTESIAN_POINT('Origin',(12.4497469623,7.81474696233,1.));
#827=CARTESIAN_POINT('',(13.7499051431,7.81499998154,0.5));
#828=CARTESIAN_POINT('Origin',(-8.881784197E-16,9.115,0.5));
#829=CARTESIAN_POINT('',(-12.4500000192281,9.11499999998419,0.));
#830=CARTESIAN_POINT('',(0.,9.115,0.));
#831=CARTESIAN_POINT('',(-12.4499902704392,9.11496815676823,1.00009102202217));
#832=CARTESIAN_POINT('',(-12.45,9.115,0.5));
#833=CARTESIAN_POINT('',(1.7763568394E-15,9.115,1.));
#834=CARTESIAN_POINT('Origin',(-12.4497469623,7.81474696233,0.5));
#835=CARTESIAN_POINT('',(-13.7499051431064,7.81499999615258,-6.66133814775094E-15));
#836=CARTESIAN_POINT('Origin',(-12.4497469623,7.81474696233,0.));
#837=CARTESIAN_POINT('',(-13.7498910857508,7.81499391658442,1.00009138500141));
#838=CARTESIAN_POINT('',(-13.7499051431,7.81499998154,0.5));
#839=CARTESIAN_POINT('Ctrl Pts',(-12.4499710185202,9.11490514844419,1.00027112764422));
#840=CARTESIAN_POINT('Ctrl Pts',(-12.6220504629638,9.11487549399883,1.00025218142301));
#841=CARTESIAN_POINT('Ctrl Pts',(-12.792428146358,9.08068336077152,1.00033458497461));
#842=CARTESIAN_POINT('Ctrl Pts',(-13.107413132369,8.94901020341434,1.00026032662862));
#843=CARTESIAN_POINT('Ctrl Pts',(-13.2493759491582,8.85381934281021,1.00019906057384));
#844=CARTESIAN_POINT('Ctrl Pts',(-13.488819342801,8.61437594916185,1.00019906057064));
#845=CARTESIAN_POINT('Ctrl Pts',(-13.5840102034031,8.47241313236749,1.00026032662249));
#846=CARTESIAN_POINT('Ctrl Pts',(-13.715683747786,8.15742722049714,1.00033458520772));
#847=CARTESIAN_POINT('Ctrl Pts',(-13.7498759131925,7.98704842695049,1.00025217790684));
#848=CARTESIAN_POINT('Ctrl Pts',(-13.7499051489557,7.81496785371926,1.00027112807843));
#849=CARTESIAN_POINT('Origin',(-13.75,-1.11022302463E-14,0.5));
#850=CARTESIAN_POINT('',(-13.7499999999842,-7.81500001922813,0.));
#851=CARTESIAN_POINT('',(-13.75,-2.04281036531E-14,0.));
#852=CARTESIAN_POINT('',(-13.7499681567581,-7.81499027043099,1.00009102205118));
#853=CARTESIAN_POINT('',(-13.75,-7.815,0.5));
#854=CARTESIAN_POINT('',(-13.75,-3.5527136788E-15,1.));
#855=CARTESIAN_POINT('Origin',(-12.4497469623,-7.81474696233,0.5));
#856=CARTESIAN_POINT('',(-12.4499999960926,-9.11490514313637,0.));
#857=CARTESIAN_POINT('Origin',(-12.4497469623,-7.81474696233,0.));
#858=CARTESIAN_POINT('',(-12.4499939165489,-9.11489108578422,1.00009138497213));
#859=CARTESIAN_POINT('',(-12.4499999815,-9.11490514313,0.5));
#860=CARTESIAN_POINT('Ctrl Pts',(-13.7499051484142,-7.81497101849578,1.00027112772994));
#861=CARTESIAN_POINT('Ctrl Pts',(-13.749875493976,-7.98705046295088,1.00025218146108));
#862=CARTESIAN_POINT('Ctrl Pts',(-13.7156833607513,-8.15742814635814,1.0003345849894));
#863=CARTESIAN_POINT('Ctrl Pts',(-13.5840102033929,-8.47241313238513,1.00026032662243));
#864=CARTESIAN_POINT('Ctrl Pts',(-13.4888193427886,-8.614375949178,1.00019906057059));
#865=CARTESIAN_POINT('Ctrl Pts',(-13.249375949142,-8.85381934282266,1.00019906057381));
#866=CARTESIAN_POINT('Ctrl Pts',(-13.1074131323514,-8.94901020342458,1.0002603266286));
#867=CARTESIAN_POINT('Ctrl Pts',(-12.7924272204837,-9.08068374781183,1.00033458519286));
#868=CARTESIAN_POINT('Ctrl Pts',(-12.6220484269349,-9.114875913221,1.0002521778687));
#869=CARTESIAN_POINT('Ctrl Pts',(-12.4499678537008,-9.11490514898574,1.0002711279927));
#870=CARTESIAN_POINT('Origin',(-1.7763568394E-15,-9.115,0.5));
#871=CARTESIAN_POINT('',(12.4500000192281,-9.11499999998419,0.));
#872=CARTESIAN_POINT('',(-8.881784197E-15,-9.115,0.));
#873=CARTESIAN_POINT('',(12.4499902704406,-9.11496815676825,1.00009102202209));
#874=CARTESIAN_POINT('',(12.45,-9.115,0.5));
#875=CARTESIAN_POINT('',(3.5527136788E-15,-9.115,1.));
#876=CARTESIAN_POINT('Origin',(12.4497469623,-7.81474696233,0.5));
#877=CARTESIAN_POINT('',(13.7499051431064,-7.81499999615258,-1.11022302462516E-15));
#878=CARTESIAN_POINT('Origin',(12.4497469623,-7.81474696233,0.));
#879=CARTESIAN_POINT('',(13.7498910857508,-7.81499391658443,1.00009138500141));
#880=CARTESIAN_POINT('',(13.7499051431,-7.81499998154,0.5));
#881=CARTESIAN_POINT('Ctrl Pts',(12.4499710185244,-9.1149051484442,1.00027112764421));
#882=CARTESIAN_POINT('Ctrl Pts',(12.6220504629665,-9.11487549399828,1.000252181423));
#883=CARTESIAN_POINT('Ctrl Pts',(12.7924281463593,-9.08068336077099,1.00033458497468));
#884=CARTESIAN_POINT('Ctrl Pts',(13.107413132369,-8.94901020341435,1.00026032662872));
#885=CARTESIAN_POINT('Ctrl Pts',(13.2493759491582,-8.85381934281021,1.00019906057391));
#886=CARTESIAN_POINT('Ctrl Pts',(13.488819342801,-8.61437594916185,1.00019906057068));
#887=CARTESIAN_POINT('Ctrl Pts',(13.5840102034031,-8.47241313236749,1.0002603266225));
#888=CARTESIAN_POINT('Ctrl Pts',(13.715683747786,-8.15742722049713,1.00033458520769));
#889=CARTESIAN_POINT('Ctrl Pts',(13.7498759131925,-7.98704842695049,1.00025217790684));
#890=CARTESIAN_POINT('Ctrl Pts',(13.7499051489557,-7.81496785371927,1.00027112807843));
#891=CARTESIAN_POINT('Origin',(13.75,4.4408920985E-16,0.5));
#892=CARTESIAN_POINT('',(13.75,2.6645352591E-15,0.));
#893=CARTESIAN_POINT('',(13.75,8.881784197E-16,1.));
#894=CARTESIAN_POINT('Ctrl Pts',(12.435,3.6,4.76));
#895=CARTESIAN_POINT('Ctrl Pts',(12.435,4.91946891451,4.76));
#896=CARTESIAN_POINT('Ctrl Pts',(11.918336983,6.24016890212,4.76));
#897=CARTESIAN_POINT('Ctrl Pts',(10.8751689021,7.28333698301,4.76));
#898=CARTESIAN_POINT('Ctrl Pts',(9.55446891451,7.8,4.76));
#899=CARTESIAN_POINT('Ctrl Pts',(8.235,7.8,4.76));
#900=CARTESIAN_POINT('Ctrl Pts',(12.6979999997,4.44300000004,4.007999999965));
#901=CARTESIAN_POINT('Ctrl Pts',(12.6979999997,5.58025654048,4.007999999965));
#902=CARTESIAN_POINT('Ctrl Pts',(12.2526856857,6.718574149,4.007999999965));
#903=CARTESIAN_POINT('Ctrl Pts',(11.3535741493,7.61768568522,4.007999999965));
#904=CARTESIAN_POINT('Ctrl Pts',(10.2152565406,8.06300000001,4.007999999965));
#905=CARTESIAN_POINT('Ctrl Pts',(9.07800000005,8.06300000031,4.007999999965));
#906=CARTESIAN_POINT('Ctrl Pts',(12.9609999994,5.28600000008,3.25599999993));
#907=CARTESIAN_POINT('Ctrl Pts',(12.9609999994,6.24104416646,3.25599999993));
#908=CARTESIAN_POINT('Ctrl Pts',(12.5870343883,7.19697939587,3.25599999993));
#909=CARTESIAN_POINT('Ctrl Pts',(11.8319793965,7.95203438744,3.25599999993));
#910=CARTESIAN_POINT('Ctrl Pts',(10.8760441667,8.32600000002,3.25599999993));
#911=CARTESIAN_POINT('Ctrl Pts',(9.92100000009,8.32600000061,3.25599999993));
#912=CARTESIAN_POINT('Ctrl Pts',(13.2240000005,6.12899999987,2.50399999997));
#913=CARTESIAN_POINT('Ctrl Pts',(13.2240000005,6.90183179326,2.50399999997));
#914=CARTESIAN_POINT('Ctrl Pts',(12.9213830894,7.67538464259,2.50399999997));
#915=CARTESIAN_POINT('Ctrl Pts',(12.3103846426,8.28638308823,2.50399999997));
#916=CARTESIAN_POINT('Ctrl Pts',(11.5368317927,8.58899999937,2.50399999997));
#917=CARTESIAN_POINT('Ctrl Pts',(10.7639999999,8.58899999997,2.50399999997));
#918=CARTESIAN_POINT('Ctrl Pts',(13.4870000003,6.97199999993,1.75199999998));
#919=CARTESIAN_POINT('Ctrl Pts',(13.4870000003,7.56261941912,1.75199999998));
#920=CARTESIAN_POINT('Ctrl Pts',(13.2557317921,8.15378988948,1.75199999998));
#921=CARTESIAN_POINT('Ctrl Pts',(12.7887898895,8.62073179148,1.75199999998));
#922=CARTESIAN_POINT('Ctrl Pts',(12.1976194188,8.85199999969,1.75199999998));
#923=CARTESIAN_POINT('Ctrl Pts',(11.6069999999,8.85199999999,1.75199999998));
#924=CARTESIAN_POINT('Ctrl Pts',(13.75,7.815,1.));
#925=CARTESIAN_POINT('Ctrl Pts',(13.75,8.22340704497,1.));
#926=CARTESIAN_POINT('Ctrl Pts',(13.5900804947,8.63219513637,1.));
#927=CARTESIAN_POINT('Ctrl Pts',(13.2671951364,8.95508049474,1.));
#928=CARTESIAN_POINT('Ctrl Pts',(12.858407045,9.115,1.));
#929=CARTESIAN_POINT('Ctrl Pts',(12.45,9.115,1.));
#930=CARTESIAN_POINT('',(12.4436230546044,3.62765030076081,4.73534396549388));
#931=CARTESIAN_POINT('',(12.4436891269,3.62785146002,4.7351550439693));
#932=CARTESIAN_POINT('',(8.38229747044647,7.8459510072276,4.62861156875876));
#933=CARTESIAN_POINT('',(8.38252236969,7.84602417944,4.628402346379));
#934=CARTESIAN_POINT('Ctrl Pts',(8.38229732301874,7.84595006333006,4.62861426768142));
#935=CARTESIAN_POINT('Ctrl Pts',(8.74222797027952,7.83982226399699,4.64613227425391));
#936=CARTESIAN_POINT('Ctrl Pts',(9.09929007869668,7.78163839473829,4.66224767417149));
#937=CARTESIAN_POINT('Ctrl Pts',(9.71897483798294,7.59168315000362,4.68818217706334));
#938=CARTESIAN_POINT('Ctrl Pts',(9.98441967634635,7.4775880728691,4.69854389643233));
#939=CARTESIAN_POINT('Ctrl Pts',(10.6732634801013,7.09273963875545,4.72349733499386));
#940=CARTESIAN_POINT('Ctrl Pts',(11.0645970443149,6.77066112729399,4.73542572029751));
#941=CARTESIAN_POINT('Ctrl Pts',(11.7092541695336,6.02241034938024,4.75054598839197));
#942=CARTESIAN_POINT('Ctrl Pts',(11.9641138120548,5.60243858523971,4.75393963441411));
#943=CARTESIAN_POINT('Ctrl Pts',(12.336067706776,4.66567177480141,4.75210671528742));
#944=CARTESIAN_POINT('Ctrl Pts',(12.4398110550312,4.148861998896,4.74623860616451));
#945=CARTESIAN_POINT('Ctrl Pts',(12.4436219992523,3.62765022998772,4.73534698303114));
#946=CARTESIAN_POINT('Origin',(-2.22044604925E-15,8.4575,2.88));
#947=CARTESIAN_POINT('',(-8.38252000128195,7.84602340877214,4.62840454982697));
#948=CARTESIAN_POINT('',(-10.4162611835,8.48051208927,2.81420117442));
#949=CARTESIAN_POINT('Ctrl Pts',(-8.38251999972802,7.84602339881881,4.62840457828218));
#950=CARTESIAN_POINT('Ctrl Pts',(-5.5908634576406,7.89353179823945,4.49256307119351));
#951=CARTESIAN_POINT('Ctrl Pts',(-2.79593019938671,7.91728501335801,4.42464513291016));
#952=CARTESIAN_POINT('Ctrl Pts',(2.79509618548973,7.91725876475714,4.42472018594384));
#953=CARTESIAN_POINT('Ctrl Pts',(5.59034333581635,7.89347410049982,4.49272804723992));
#954=CARTESIAN_POINT('Ctrl Pts',(8.38229732302093,7.84595006329801,4.62861426768005));
#955=CARTESIAN_POINT('Ctrl Pts',(-8.235,7.8,4.76));
#956=CARTESIAN_POINT('Ctrl Pts',(-9.55446891451,7.8,4.76));
#957=CARTESIAN_POINT('Ctrl Pts',(-10.8751689021,7.28333698301,4.76));
#958=CARTESIAN_POINT('Ctrl Pts',(-11.918336983,6.24016890212,4.76));
#959=CARTESIAN_POINT('Ctrl Pts',(-12.435,4.91946891451,4.76));
#960=CARTESIAN_POINT('Ctrl Pts',(-12.435,3.6,4.76));
#961=CARTESIAN_POINT('Ctrl Pts',(-9.07799999975,8.06300000001,4.007999999965));
#962=CARTESIAN_POINT('Ctrl Pts',(-10.2152565406,8.06300000001,4.007999999965));
#963=CARTESIAN_POINT('Ctrl Pts',(-11.3535741493,7.61768568522,4.007999999965));
#964=CARTESIAN_POINT('Ctrl Pts',(-12.2526856857,6.718574149,4.007999999965));
#965=CARTESIAN_POINT('Ctrl Pts',(-12.6979999997,5.58025654048,4.007999999965));
#966=CARTESIAN_POINT('Ctrl Pts',(-12.698,4.44300000004,4.007999999965));
#967=CARTESIAN_POINT('Ctrl Pts',(-9.92099999949,8.32600000002,3.25599999993));
#968=CARTESIAN_POINT('Ctrl Pts',(-10.8760441667,8.32600000002,3.25599999993));
#969=CARTESIAN_POINT('Ctrl Pts',(-11.8319793965,7.95203438744,3.25599999993));
#970=CARTESIAN_POINT('Ctrl Pts',(-12.5870343883,7.19697939587,3.25599999993));
#971=CARTESIAN_POINT('Ctrl Pts',(-12.9609999994,6.24104416646,3.25599999993));
#972=CARTESIAN_POINT('Ctrl Pts',(-12.961,5.28600000008,3.25599999993));
#973=CARTESIAN_POINT('Ctrl Pts',(-10.7639999999,8.58900000055,2.50399999997));
#974=CARTESIAN_POINT('Ctrl Pts',(-11.5368317927,8.58900000055,2.50399999997));
#975=CARTESIAN_POINT('Ctrl Pts',(-12.3103846426,8.2863830894,2.50399999997));
#976=CARTESIAN_POINT('Ctrl Pts',(-12.9213830894,7.67538464259,2.50399999997));
#977=CARTESIAN_POINT('Ctrl Pts',(-13.2240000005,6.90183179326,2.50399999997));
#978=CARTESIAN_POINT('Ctrl Pts',(-13.2240000005,6.12899999987,2.50399999997));
#979=CARTESIAN_POINT('Ctrl Pts',(-11.6069999999,8.85200000027,1.75199999998));
#980=CARTESIAN_POINT('Ctrl Pts',(-12.1976194188,8.85200000027,1.75199999998));
#981=CARTESIAN_POINT('Ctrl Pts',(-12.7887898895,8.62073179207,1.75199999998));
#982=CARTESIAN_POINT('Ctrl Pts',(-13.2557317921,8.15378988948,1.75199999998));
#983=CARTESIAN_POINT('Ctrl Pts',(-13.4870000003,7.56261941912,1.75199999998));
#984=CARTESIAN_POINT('Ctrl Pts',(-13.4870000003,6.97199999993,1.75199999998));
#985=CARTESIAN_POINT('Ctrl Pts',(-12.45,9.115,1.));
#986=CARTESIAN_POINT('Ctrl Pts',(-12.858407045,9.115,1.));
#987=CARTESIAN_POINT('Ctrl Pts',(-13.2671951364,8.95508049474,1.));
#988=CARTESIAN_POINT('Ctrl Pts',(-13.5900804947,8.63219513637,1.));
#989=CARTESIAN_POINT('Ctrl Pts',(-13.75,8.22340704497,1.));
#990=CARTESIAN_POINT('Ctrl Pts',(-13.75,7.815,1.));
#991=CARTESIAN_POINT('',(-12.443681141763,3.62782713644875,4.73517787601318));
#992=CARTESIAN_POINT('',(-12.443689127,3.62785146034,4.7351550436821));
#993=CARTESIAN_POINT('Ctrl Pts',(-8.38251999972796,7.84602339881869,4.62840457828216));
#994=CARTESIAN_POINT('Ctrl Pts',(-8.64673998332762,7.84152689542589,4.6412614749296));
#995=CARTESIAN_POINT('Ctrl Pts',(-8.90969159844476,7.80896413976785,4.65337617947656));
#996=CARTESIAN_POINT('Ctrl Pts',(-9.54386052387422,7.66399612133527,4.68105045102003));
#997=CARTESIAN_POINT('Ctrl Pts',(-9.90581548088337,7.52252045065282,4.69548321048131));
#998=CARTESIAN_POINT('Ctrl Pts',(-10.2772510451986,7.31408947710248,4.70891676203586));
#999=CARTESIAN_POINT('Ctrl Pts',(-10.311374029107,7.29429939261003,4.71013687461766));
#1000=CARTESIAN_POINT('Ctrl Pts',(-10.3600710640491,7.26513078403835,4.71185801794631));
#1001=CARTESIAN_POINT('Ctrl Pts',(-10.3748743586575,7.25613876920695,4.71237851074235));
#1002=CARTESIAN_POINT('Ctrl Pts',(-10.4004767027782,7.24036954368041,4.71327399856539));
#1003=CARTESIAN_POINT('Ctrl Pts',(-10.4113013079519,7.23363421830059,4.71365113425918));
#1004=CARTESIAN_POINT('Ctrl Pts',(-10.4320572302089,7.22058822563962,4.71437144970975));
#1005=CARTESIAN_POINT('Ctrl Pts',(-10.4419930448204,7.21428486876012,4.7147150045176));
#1006=CARTESIAN_POINT('Ctrl Pts',(-10.4653325868695,7.19934069517113,4.71551906243369));
#1007=CARTESIAN_POINT('Ctrl Pts',(-10.4787140407798,7.19066519395275,4.71597774255953));
#1008=CARTESIAN_POINT('Ctrl Pts',(-10.5247415416441,7.16045303047112,4.71754744504034));
#1009=CARTESIAN_POINT('Ctrl Pts',(-10.5571386515463,7.13853822689852,4.71863832168631));
#1010=CARTESIAN_POINT('Ctrl Pts',(-10.8862552579939,6.90921894054823,4.72957701409366));
#1011=CARTESIAN_POINT('Ctrl Pts',(-11.1562019593025,6.66471469244727,4.73734349617015));
#1012=CARTESIAN_POINT('Ctrl Pts',(-11.6526103762266,6.08833353432079,4.74898632405446));
#1013=CARTESIAN_POINT('Ctrl Pts',(-11.8708400733226,5.75149498092217,4.75236812319337));
#1014=CARTESIAN_POINT('Ctrl Pts',(-12.1825291641022,5.08620421546002,4.75335430823484));
#1015=CARTESIAN_POINT('Ctrl Pts',(-12.2895970272844,4.76594371621981,4.75177755639983));
#1016=CARTESIAN_POINT('Ctrl Pts',(-12.4125266426772,4.17059963767262,4.74515898835392));
#1017=CARTESIAN_POINT('Ctrl Pts',(-12.4416982562616,3.89957725273281,4.74084725514862));
#1018=CARTESIAN_POINT('Ctrl Pts',(-12.4436810154669,3.62782712799372,4.73517823714205));
#1019=CARTESIAN_POINT('Origin',(-13.0925,1.11022302463E-15,2.88));
#1020=CARTESIAN_POINT('',(-12.4436230559737,-3.62765032024302,4.73534396160474));
#1021=CARTESIAN_POINT('',(-13.0968445158,-5.72142557717,2.86757765832));
#1022=CARTESIAN_POINT('Ctrl Pts',(-12.4436810154675,3.62782712799374,4.73517823714209));
#1023=CARTESIAN_POINT('Ctrl Pts',(-12.452502314185,2.4187446431761,4.70995536020096));
#1024=CARTESIAN_POINT('Ctrl Pts',(-12.4569057924292,1.20937847249539,4.69736442621161));
#1025=CARTESIAN_POINT('Ctrl Pts',(-12.4568834264819,-1.20931861995373,4.69742837751351));
#1026=CARTESIAN_POINT('Ctrl Pts',(-12.4524580046406,-2.41862710877117,4.71008205517216));
#1027=CARTESIAN_POINT('Ctrl Pts',(-12.4436219991427,-3.62765024937205,4.73534698343992));
#1028=CARTESIAN_POINT('Ctrl Pts',(-12.435,-3.6,4.76));
#1029=CARTESIAN_POINT('Ctrl Pts',(-12.435,-4.91946891451,4.76));
#1030=CARTESIAN_POINT('Ctrl Pts',(-11.918336983,-6.24016890212,4.76));
#1031=CARTESIAN_POINT('Ctrl Pts',(-10.8751689021,-7.28333698301,4.76));
#1032=CARTESIAN_POINT('Ctrl Pts',(-9.55446891451,-7.8,4.76));
#1033=CARTESIAN_POINT('Ctrl Pts',(-8.235,-7.8,4.76));
#1034=CARTESIAN_POINT('Ctrl Pts',(-12.6979999994,-4.44300000004,4.007999999965));
#1035=CARTESIAN_POINT('Ctrl Pts',(-12.6979999997,-5.58025654048,4.007999999965));
#1036=CARTESIAN_POINT('Ctrl Pts',(-12.2526856857,-6.718574149,4.007999999965));
#1037=CARTESIAN_POINT('Ctrl Pts',(-11.3535741493,-7.61768568522,4.007999999965));
#1038=CARTESIAN_POINT('Ctrl Pts',(-10.2152565406,-8.06300000001,4.007999999965));
#1039=CARTESIAN_POINT('Ctrl Pts',(-9.07799999975,-8.06300000001,4.007999999965));
#1040=CARTESIAN_POINT('Ctrl Pts',(-12.9609999989,-5.28600000008,3.25599999993));
#1041=CARTESIAN_POINT('Ctrl Pts',(-12.9609999994,-6.24104416646,3.25599999993));
#1042=CARTESIAN_POINT('Ctrl Pts',(-12.5870343883,-7.19697939587,3.25599999993));
#1043=CARTESIAN_POINT('Ctrl Pts',(-11.8319793965,-7.95203438744,3.25599999993));
#1044=CARTESIAN_POINT('Ctrl Pts',(-10.8760441667,-8.32600000002,3.25599999993));
#1045=CARTESIAN_POINT('Ctrl Pts',(-9.92099999949,-8.32600000002,3.25599999993));
#1046=CARTESIAN_POINT('Ctrl Pts',(-13.2240000005,-6.12899999987,2.50399999997));
#1047=CARTESIAN_POINT('Ctrl Pts',(-13.2240000005,-6.90183179269,2.50399999997));
#1048=CARTESIAN_POINT('Ctrl Pts',(-12.9213830894,-7.67538464201,2.50399999997));
#1049=CARTESIAN_POINT('Ctrl Pts',(-12.3103846426,-8.2863830894,2.50399999997));
#1050=CARTESIAN_POINT('Ctrl Pts',(-11.5368317927,-8.58900000055,2.50399999997));
#1051=CARTESIAN_POINT('Ctrl Pts',(-10.7639999999,-8.58900000055,2.50399999997));
#1052=CARTESIAN_POINT('Ctrl Pts',(-13.4870000003,-6.97199999993,1.75199999998));
#1053=CARTESIAN_POINT('Ctrl Pts',(-13.4870000003,-7.56261941883,1.75199999998));
#1054=CARTESIAN_POINT('Ctrl Pts',(-13.2557317921,-8.15378988919,1.75199999998));
#1055=CARTESIAN_POINT('Ctrl Pts',(-12.7887898895,-8.62073179207,1.75199999998));
#1056=CARTESIAN_POINT('Ctrl Pts',(-12.1976194188,-8.85200000027,1.75199999998));
#1057=CARTESIAN_POINT('Ctrl Pts',(-11.6069999999,-8.85200000027,1.75199999998));
#1058=CARTESIAN_POINT('Ctrl Pts',(-13.75,-7.815,1.));
#1059=CARTESIAN_POINT('Ctrl Pts',(-13.75,-8.22340704497,1.));
#1060=CARTESIAN_POINT('Ctrl Pts',(-13.5900804947,-8.63219513637,1.));
#1061=CARTESIAN_POINT('Ctrl Pts',(-13.2671951364,-8.95508049474,1.));
#1062=CARTESIAN_POINT('Ctrl Pts',(-12.858407045,-9.115,1.));
#1063=CARTESIAN_POINT('Ctrl Pts',(-12.45,-9.115,1.));
#1064=CARTESIAN_POINT('',(-8.3822974704547,-7.84595100719859,4.62861156874314));
#1065=CARTESIAN_POINT('',(-8.38252236964,-7.84602417939,4.628402346374));
#1066=CARTESIAN_POINT('Ctrl Pts',(-8.38229732302596,-7.84595006327934,4.62861426767859));
#1067=CARTESIAN_POINT('Ctrl Pts',(-8.74222797031977,-7.83982226396234,4.64613227425355));
#1068=CARTESIAN_POINT('Ctrl Pts',(-9.09929007876964,-7.78163839470362,4.66224767417302));
#1069=CARTESIAN_POINT('Ctrl Pts',(-9.71897483810947,-7.59168314994676,4.68818217706747));
#1070=CARTESIAN_POINT('Ctrl Pts',(-9.98441967649403,-7.47758807279515,4.69854389643732));
#1071=CARTESIAN_POINT('Ctrl Pts',(-10.6732634802971,-7.09273963861887,4.7234973350002));
#1072=CARTESIAN_POINT('Ctrl Pts',(-11.0645970445281,-6.77066112710316,4.73542572030371));
#1073=CARTESIAN_POINT('Ctrl Pts',(-11.7092541696834,-6.02241034914964,4.75054598839469));
#1074=CARTESIAN_POINT('Ctrl Pts',(-11.9641138121518,-5.60243858504303,4.75393963441523));
#1075=CARTESIAN_POINT('Ctrl Pts',(-12.3360677044093,-4.66567178070419,4.75210671529881));
#1076=CARTESIAN_POINT('Ctrl Pts',(-12.4398110524554,-4.14886201165096,4.74623860630953));
#1077=CARTESIAN_POINT('Ctrl Pts',(-12.4436219991005,-3.62765024936908,4.73534698343676));
#1078=CARTESIAN_POINT('Origin',(3.99680288865E-15,-8.4575,2.88));
#1079=CARTESIAN_POINT('',(8.38252000129851,-7.84602340877248,4.6284045498241));
#1080=CARTESIAN_POINT('',(10.4162611832,-8.48051208917,2.8142011747));
#1081=CARTESIAN_POINT('Ctrl Pts',(8.38251999974455,-7.84602339881984,4.62840457827923));
#1082=CARTESIAN_POINT('Ctrl Pts',(5.59086345732691,-7.89353179824607,4.49256307117459));
#1083=CARTESIAN_POINT('Ctrl Pts',(2.79593019874214,-7.91728501336453,4.42464513289135));
#1084=CARTESIAN_POINT('Ctrl Pts',(-2.79509618614387,-7.91725876475222,4.42472018595772));
#1085=CARTESIAN_POINT('Ctrl Pts',(-5.59034333614629,-7.89347410049474,4.49272804725446));
#1086=CARTESIAN_POINT('Ctrl Pts',(-8.38229732302887,-7.84595006329818,4.62861426767961));
#1087=CARTESIAN_POINT('Ctrl Pts',(8.235,-7.8,4.76));
#1088=CARTESIAN_POINT('Ctrl Pts',(9.55446891451,-7.8,4.76));
#1089=CARTESIAN_POINT('Ctrl Pts',(10.8751689021,-7.28333698301,4.76));
#1090=CARTESIAN_POINT('Ctrl Pts',(11.918336983,-6.24016890212,4.76));
#1091=CARTESIAN_POINT('Ctrl Pts',(12.435,-4.91946891451,4.76));
#1092=CARTESIAN_POINT('Ctrl Pts',(12.435,-3.6,4.76));
#1093=CARTESIAN_POINT('Ctrl Pts',(9.07799999975,-8.06300000001,4.007999999965));
#1094=CARTESIAN_POINT('Ctrl Pts',(10.2152565406,-8.06300000001,4.007999999965));
#1095=CARTESIAN_POINT('Ctrl Pts',(11.3535741493,-7.61768568522,4.007999999965));
#1096=CARTESIAN_POINT('Ctrl Pts',(12.2526856857,-6.718574149,4.007999999965));
#1097=CARTESIAN_POINT('Ctrl Pts',(12.6979999997,-5.58025654048,4.007999999965));
#1098=CARTESIAN_POINT('Ctrl Pts',(12.698,-4.44300000004,4.007999999965));
#1099=CARTESIAN_POINT('Ctrl Pts',(9.92099999949,-8.32600000002,3.25599999993));
#1100=CARTESIAN_POINT('Ctrl Pts',(10.8760441667,-8.32600000002,3.25599999993));
#1101=CARTESIAN_POINT('Ctrl Pts',(11.8319793965,-7.95203438744,3.25599999993));
#1102=CARTESIAN_POINT('Ctrl Pts',(12.5870343883,-7.19697939587,3.25599999993));
#1103=CARTESIAN_POINT('Ctrl Pts',(12.9609999994,-6.24104416646,3.25599999993));
#1104=CARTESIAN_POINT('Ctrl Pts',(12.961,-5.28600000008,3.25599999993));
#1105=CARTESIAN_POINT('Ctrl Pts',(10.7639999999,-8.58900000055,2.50399999997));
#1106=CARTESIAN_POINT('Ctrl Pts',(11.5368317927,-8.58900000055,2.50399999997));
#1107=CARTESIAN_POINT('Ctrl Pts',(12.3103846426,-8.28638309058,2.50399999997));
#1108=CARTESIAN_POINT('Ctrl Pts',(12.9213830894,-7.67538464319,2.50399999997));
#1109=CARTESIAN_POINT('Ctrl Pts',(13.2240000005,-6.90183179269,2.50399999997));
#1110=CARTESIAN_POINT('Ctrl Pts',(13.2240000005,-6.12899999987,2.50399999997));
#1111=CARTESIAN_POINT('Ctrl Pts',(11.6069999999,-8.85200000027,1.75199999998));
#1112=CARTESIAN_POINT('Ctrl Pts',(12.1976194188,-8.85200000027,1.75199999998));
#1113=CARTESIAN_POINT('Ctrl Pts',(12.7887898895,-8.62073179266,1.75199999998));
#1114=CARTESIAN_POINT('Ctrl Pts',(13.2557317921,-8.15378988978,1.75199999998));
#1115=CARTESIAN_POINT('Ctrl Pts',(13.4870000003,-7.56261941883,1.75199999998));
#1116=CARTESIAN_POINT('Ctrl Pts',(13.4870000003,-6.97199999993,1.75199999998));
#1117=CARTESIAN_POINT('Ctrl Pts',(12.45,-9.115,1.));
#1118=CARTESIAN_POINT('Ctrl Pts',(12.858407045,-9.115,1.));
#1119=CARTESIAN_POINT('Ctrl Pts',(13.2671951364,-8.95508049474,1.));
#1120=CARTESIAN_POINT('Ctrl Pts',(13.5900804947,-8.63219513637,1.));
#1121=CARTESIAN_POINT('Ctrl Pts',(13.75,-8.22340704497,1.));
#1122=CARTESIAN_POINT('Ctrl Pts',(13.75,-7.815,1.));
#1123=CARTESIAN_POINT('',(12.4436811417641,-3.62782713645155,4.7351778760101));
#1124=CARTESIAN_POINT('',(12.443689127,-3.62785146034,4.7351550436821));
#1125=CARTESIAN_POINT('Ctrl Pts',(8.38251999974449,-7.84602339881973,4.62840457827922));
#1126=CARTESIAN_POINT('Ctrl Pts',(8.64673998334223,-7.84152689542608,4.64126147492652));
#1127=CARTESIAN_POINT('Ctrl Pts',(8.90969159844486,-7.80896413976961,4.65337617947278));
#1128=CARTESIAN_POINT('Ctrl Pts',(9.54386052387191,-7.66399612133857,4.68105045101613));
#1129=CARTESIAN_POINT('Ctrl Pts',(9.9058154808807,-7.52252045065676,4.69548321047743));
#1130=CARTESIAN_POINT('Ctrl Pts',(10.277251045193,-7.31408947710887,4.70891676203188));
#1131=CARTESIAN_POINT('Ctrl Pts',(10.3113740290993,-7.29429939261803,4.71013687461357));
#1132=CARTESIAN_POINT('Ctrl Pts',(10.36007106406,-7.26513078403525,4.71185801794288));
#1133=CARTESIAN_POINT('Ctrl Pts',(10.3748743586783,-7.25613876919745,4.71237851073928));
#1134=CARTESIAN_POINT('Ctrl Pts',(10.4004767027806,-7.24036954368229,4.71327399856169));
#1135=CARTESIAN_POINT('Ctrl Pts',(10.411301307955,-7.23363421830196,4.71365113425548));
#1136=CARTESIAN_POINT('Ctrl Pts',(10.4320572302023,-7.22058822564712,4.71437144970572));
#1137=CARTESIAN_POINT('Ctrl Pts',(10.4419930448057,-7.21428486877297,4.71471500451327));
#1138=CARTESIAN_POINT('Ctrl Pts',(10.4653325868722,-7.19934069517282,4.71551906242997));
#1139=CARTESIAN_POINT('Ctrl Pts',(10.4787140407853,-7.19066519395255,4.71597774255593));
#1140=CARTESIAN_POINT('Ctrl Pts',(10.5247415416486,-7.16045303047161,4.71754744503671));
#1141=CARTESIAN_POINT('Ctrl Pts',(10.5571386515551,-7.13853822689581,4.71863832168281));
#1142=CARTESIAN_POINT('Ctrl Pts',(10.8862552580287,-6.90921894052709,4.72957701409101));
#1143=CARTESIAN_POINT('Ctrl Pts',(11.1562019593616,-6.66471469239791,4.7373434961681));
#1144=CARTESIAN_POINT('Ctrl Pts',(11.652610376302,-6.08833353422191,4.7489863240522));
#1145=CARTESIAN_POINT('Ctrl Pts',(11.8708400733926,-5.75149498080942,4.75236812319055));
#1146=CARTESIAN_POINT('Ctrl Pts',(12.1825291641413,-5.08620421535646,4.75335430823084));
#1147=CARTESIAN_POINT('Ctrl Pts',(12.2895970273066,-4.76594371614251,4.75177755639564));
#1148=CARTESIAN_POINT('Ctrl Pts',(12.412526642682,-4.17059963764148,4.74515898834998));
#1149=CARTESIAN_POINT('Ctrl Pts',(12.4416982562629,-3.89957725271809,4.74084725514492));
#1150=CARTESIAN_POINT('Ctrl Pts',(12.443681015468,-3.62782712799647,4.73517823713877));
#1151=CARTESIAN_POINT('Origin',(13.0925,4.88498130835E-15,2.88));
#1152=CARTESIAN_POINT('Ctrl Pts',(12.4436810154687,-3.62782712799654,4.73517823713882));
#1153=CARTESIAN_POINT('Ctrl Pts',(12.452502314186,-2.41874464317826,4.70995536019795));
#1154=CARTESIAN_POINT('Ctrl Pts',(12.4569057924302,-1.20937847249692,4.69736442620889));
#1155=CARTESIAN_POINT('Ctrl Pts',(12.4568834264827,1.20931861349537,4.69742837751129));
#1156=CARTESIAN_POINT('Ctrl Pts',(12.4524580046884,2.41862709585453,4.7100820550354));
#1157=CARTESIAN_POINT('Ctrl Pts',(12.4436219992847,3.62765022999067,4.73534698303359));
#1158=CARTESIAN_POINT('Ctrl Pts',(-0.0126750991966995,-13.8122750195,4.80238236034581));
#1159=CARTESIAN_POINT('Ctrl Pts',(-143.463056521149,-103.79321390906,12.1526320648309));
#1160=CARTESIAN_POINT('Ctrl Pts',(-137.236395002632,-99.8874672388182,181.488337967485));
#1161=CARTESIAN_POINT('Ctrl Pts',(-131.009733484115,-95.9817205685767,350.824043870139));
#1162=CARTESIAN_POINT('Ctrl Pts',(12.4406479378373,-6.00078167901718,343.473794165654));
#1163=CARTESIAN_POINT('Ctrl Pts',(155.891029359789,83.9801572105424,336.123544461169));
#1164=CARTESIAN_POINT('Ctrl Pts',(149.664367841272,80.074410540301,166.787838558515));
#1165=CARTESIAN_POINT('Ctrl Pts',(143.437706322755,76.1686638700596,-2.54786734413918));
#1166=CARTESIAN_POINT('Ctrl Pts',(-0.0126750991966995,-13.8122750195,4.80238236034581));
#1167=CARTESIAN_POINT('Ctrl Pts',(-7.36776891996,-9.24093372707,4.43006043179001));
#1168=CARTESIAN_POINT('Ctrl Pts',(-151.133557670676,-99.4197155731522,15.5819739913592));
#1169=CARTESIAN_POINT('Ctrl Pts',(-141.686369641564,-93.4938557720179,185.290001822569));
#1170=CARTESIAN_POINT('Ctrl Pts',(-132.239181612451,-87.5679959708835,354.998029653779));
#1171=CARTESIAN_POINT('Ctrl Pts',(11.5266071382646,2.61078587519864,343.84611609421));
#1172=CARTESIAN_POINT('Ctrl Pts',(155.29239588898,92.7895677212808,332.694202534641));
#1173=CARTESIAN_POINT('Ctrl Pts',(145.845207859868,86.8637079201465,162.986174703431));
#1174=CARTESIAN_POINT('Ctrl Pts',(136.398019830756,80.9378481190122,-6.7218531277791));
#1175=CARTESIAN_POINT('Ctrl Pts',(-7.36776891996,-9.24093372707,4.43006043179001));
#1176=CARTESIAN_POINT('Ctrl Pts',(-14.72274596,-4.61560154139,4.72017138532029));
#1177=CARTESIAN_POINT('Ctrl Pts',(-158.242771262796,-94.6402253743015,19.6449604031058));
#1178=CARTESIAN_POINT('Ctrl Pts',(-145.599444411965,-86.7095499069495,189.062877280785));
#1179=CARTESIAN_POINT('Ctrl Pts',(-132.956117561133,-78.7788744395974,358.480794158465));
#1180=CARTESIAN_POINT('Ctrl Pts',(10.5639077416624,11.2457493933141,343.55600514068));
#1181=CARTESIAN_POINT('Ctrl Pts',(154.083933044458,101.270373226226,328.631216122894));
#1182=CARTESIAN_POINT('Ctrl Pts',(141.440606193627,93.3396977588736,159.213299245215));
#1183=CARTESIAN_POINT('Ctrl Pts',(128.797279342796,85.4090222915215,-10.2046176324651));
#1184=CARTESIAN_POINT('Ctrl Pts',(-14.72274596,-4.61560154139,4.72017138532029));
#1185=CARTESIAN_POINT('Ctrl Pts',(-21.9917591809,0.00973481970401036,5.66932905588801));
#1186=CARTESIAN_POINT('Ctrl Pts',(-164.707718801584,-89.5105293573591,24.2941682627827));
#1187=CARTESIAN_POINT('Ctrl Pts',(-148.929946040017,-79.6137358277838,192.762927469895));
#1188=CARTESIAN_POINT('Ctrl Pts',(-133.152173278451,-69.7169422982084,361.231686677007));
#1189=CARTESIAN_POINT('Ctrl Pts',(9.56378634223336,19.8033218788547,342.606847470112));
#1190=CARTESIAN_POINT('Ctrl Pts',(152.279745962917,109.323586055918,323.982008263217));
#1191=CARTESIAN_POINT('Ctrl Pts',(136.501973201351,99.4267925263425,155.513249056105));
#1192=CARTESIAN_POINT('Ctrl Pts',(120.724200439784,89.5299989967671,-12.9555101510066));
#1193=CARTESIAN_POINT('Ctrl Pts',(-21.9917591809,0.00973481970401036,5.66932905588801));
#1194=CARTESIAN_POINT('Origin',(1.487698853E-15,-9.32587340685E-16,0.));
#1195=CARTESIAN_POINT('',(12.4498000062704,-8.11490646854051,0.));
#1196=CARTESIAN_POINT('',(12.7499936550156,-7.81499633462895,0.));
#1197=CARTESIAN_POINT('Origin',(12.4497469623,-7.81474696233,0.));
#1198=CARTESIAN_POINT('',(12.7499051621121,7.81480539427655,0.));
#1199=CARTESIAN_POINT('',(12.75,-4.86562346111E-5,0.));
#1200=CARTESIAN_POINT('',(12.4498006770364,8.11490614495002,0.));
#1201=CARTESIAN_POINT('Origin',(12.4497469623,7.81474696233,0.));
#1202=CARTESIAN_POINT('',(-12.4500000833276,8.11499999970325,0.));
#1203=CARTESIAN_POINT('',(4.86562346236E-5,8.115,0.));
#1204=CARTESIAN_POINT('',(-12.7499061449873,7.81480067697751,0.));
#1205=CARTESIAN_POINT('Origin',(-12.4497469623,7.81474696233,0.));
#1206=CARTESIAN_POINT('',(-12.7499965300553,-7.81499859161647,0.));
#1207=CARTESIAN_POINT('',(-12.75,4.86562346032E-5,0.));
#1208=CARTESIAN_POINT('',(-12.4498000062704,-8.11490646854051,0.));
#1209=CARTESIAN_POINT('Origin',(-12.4497469623,-7.81474696233,0.));
#1210=CARTESIAN_POINT('',(-4.86562345969E-5,-8.115,0.));
#1211=CARTESIAN_POINT('Origin',(-2.22044604925E-15,7.51356339268,2.54987323441));
#1212=CARTESIAN_POINT('',(11.7150724281455,7.08007242816453,3.78936070790968));
#1213=CARTESIAN_POINT('',(12.6619908648,8.02699086481,1.08182205933));
#1214=CARTESIAN_POINT('',(11.715168543,7.08016854299,3.789085884469));
#1215=CARTESIAN_POINT('',(-11.715168543,7.08016854299,3.789085884469));
#1216=CARTESIAN_POINT('Ctrl Pts',(11.7150724281122,7.08007242775714,3.78936070825773));
#1217=CARTESIAN_POINT('Ctrl Pts',(7.81603991987638,7.17250551483739,3.52506534139712));
#1218=CARTESIAN_POINT('Ctrl Pts',(3.9080790317021,7.21878428969035,3.39273971900851));
#1219=CARTESIAN_POINT('Ctrl Pts',(-3.90945577680224,7.21881851883701,3.39264184707585));
#1220=CARTESIAN_POINT('Ctrl Pts',(-7.81674669386332,7.17258903318581,3.52482653608151));
#1221=CARTESIAN_POINT('Ctrl Pts',(-11.7151685430002,7.08016854299242,3.78908588446714));
#1222=CARTESIAN_POINT('',(-12.6619908648,8.02699086481,1.08182205933));
#1223=CARTESIAN_POINT('',(-11.715168543,7.08016854299,3.789085884469));
#1224=CARTESIAN_POINT('',(-12.4499995562287,8.11496835395372,0.830266653124183));
#1225=CARTESIAN_POINT('Origin',(-12.4497469623,7.81474696232999,1.6886943584527));
#1226=CARTESIAN_POINT('',(12.4498052540074,8.11495258105034,0.830311752833068));
#1227=CARTESIAN_POINT('',(-12.45,8.115,0.83017616709));
#1228=CARTESIAN_POINT('Origin',(12.4497469623,7.81474696233,1.68869435845267));
#1229=CARTESIAN_POINT('Origin',(12.4497469623,7.81474696233,0.5));
#1230=CARTESIAN_POINT('',(12.4498053751,8.11490516207,0.415223669329999));
#1231=CARTESIAN_POINT('',(12.7498895165443,7.81480617133344,0.830267019248369));
#1232=CARTESIAN_POINT('',(12.7499051621,7.81480537506,0.415223669329999));
#1233=CARTESIAN_POINT('Origin',(12.4497469623,7.81474696233,1.68869435859563));
#1234=CARTESIAN_POINT('Origin',(-8.881784197E-16,8.115,0.5));
#1235=CARTESIAN_POINT('',(-12.45,8.115,0.415223669329999));
#1236=CARTESIAN_POINT('Origin',(-12.4497469623,7.81474696233,0.5));
#1237=CARTESIAN_POINT('',(-12.7499525810353,7.81480525396751,0.830311752904535));
#1238=CARTESIAN_POINT('',(-12.7499051621,7.81480537506,0.415223669329999));
#1239=CARTESIAN_POINT('Origin',(-12.4497469623,7.81474696232999,1.68869435859566));
#1240=CARTESIAN_POINT('Origin',(-12.1485633927,1.11022302463E-15,2.54987323441));
#1241=CARTESIAN_POINT('',(-11.7150724281455,-7.0800724281645,3.78936070790977));
#1242=CARTESIAN_POINT('Ctrl Pts',(-11.7151685430122,7.08016854299024,3.78908588446787));
#1243=CARTESIAN_POINT('Ctrl Pts',(-11.7486408599783,4.72204923611341,3.69337796675496));
#1244=CARTESIAN_POINT('Ctrl Pts',(-11.765358670561,2.36184206794245,3.64557647033911));
#1245=CARTESIAN_POINT('Ctrl Pts',(-11.7653251289021,-2.35974576774601,3.64567237652728));
#1246=CARTESIAN_POINT('Ctrl Pts',(-11.7485596062131,-4.72096249319638,3.69361029691223));
#1247=CARTESIAN_POINT('Ctrl Pts',(-11.7150724277795,-7.08007242814542,3.78936070825108));
#1248=CARTESIAN_POINT('',(-12.6619908648,-8.02699086481,1.08182205933));
#1249=CARTESIAN_POINT('',(-11.715168543,-7.08016854299,3.789085884469));
#1250=CARTESIAN_POINT('',(-12.7499683539437,-7.81499955622853,0.83026665317181));
#1251=CARTESIAN_POINT('Origin',(-12.4497469623,-7.81474696233,1.68869435859563));
#1252=CARTESIAN_POINT('',(-12.75,-7.815,0.83017616709));
#1253=CARTESIAN_POINT('Ctrl Pts',(22.9506187441264,-0.0326002633041229,
4.78808203792069));
#1254=CARTESIAN_POINT('Ctrl Pts',(11.7182233847194,-7.07825235847175,3.26720383363368));
#1255=CARTESIAN_POINT('Ctrl Pts',(0.4221806482,-14.1638280195,3.82847517177098));
#1256=CARTESIAN_POINT('Ctrl Pts',(-143.853232664846,-104.662277866079,10.9971497403198));
#1257=CARTESIAN_POINT('Ctrl Pts',(-137.780389990193,-100.853015874739,181.306762831549));
#1258=CARTESIAN_POINT('Ctrl Pts',(-131.70754731554,-97.0437538833989,351.616375922778));
#1259=CARTESIAN_POINT('Ctrl Pts',(12.5678659975064,-6.54530403681984,344.447701354229));
#1260=CARTESIAN_POINT('Ctrl Pts',(156.843279310553,83.9531458097592,337.27902678568));
#1261=CARTESIAN_POINT('Ctrl Pts',(150.7704366359,80.1438838184191,166.969413694451));
#1262=CARTESIAN_POINT('Ctrl Pts',(145.579492120806,76.8878028198065,21.3921611116392));
#1263=CARTESIAN_POINT('Ctrl Pts',(22.9506187441264,-0.0326002633041229,
4.78808203792069));
#1264=CARTESIAN_POINT('Ctrl Pts',(15.3582297091673,4.80379429144303,3.7582167446043));
#1265=CARTESIAN_POINT('Ctrl Pts',(4.05752697617757,-2.28470440717822,2.53970145766682));
#1266=CARTESIAN_POINT('Ctrl Pts',(-7.2661257942,-9.38759878667,3.41220070349));
#1267=CARTESIAN_POINT('Ctrl Pts',(-151.894180217004,-100.107246916813,14.555943007111));
#1268=CARTESIAN_POINT('Ctrl Pts',(-142.453914353399,-94.185729125405,185.281830566621));
#1269=CARTESIAN_POINT('Ctrl Pts',(-133.013648489793,-88.2642113339975,356.007718126131));
#1270=CARTESIAN_POINT('Ctrl Pts',(11.6144059330111,2.45543679614507,344.86397582251));
#1271=CARTESIAN_POINT('Ctrl Pts',(156.242460355815,93.1750849262876,333.720233518889));
#1272=CARTESIAN_POINT('Ctrl Pts',(146.80219449221,87.2535671348801,162.994345959379));
#1273=CARTESIAN_POINT('Ctrl Pts',(138.732843953912,82.1919721048239,17.0612702828919));
#1274=CARTESIAN_POINT('Ctrl Pts',(15.3582297091673,4.80379429144303,3.7582167446043));
#1275=CARTESIAN_POINT('Ctrl Pts',(7.66895008973336,9.64027506375686,3.44390388862556));
#1276=CARTESIAN_POINT('Ctrl Pts',(-3.65259991892879,2.53869966628199,2.53417434662817));
#1277=CARTESIAN_POINT('Ctrl Pts',(-14.9561341345,-4.55157511309,3.71552668808001));
#1278=CARTESIAN_POINT('Ctrl Pts',(-159.32723018014,-95.1100430790284,18.8040051319759));
#1279=CARTESIAN_POINT('Ctrl Pts',(-146.545236115061,-87.0923869706521,189.226566706896));
#1280=CARTESIAN_POINT('Ctrl Pts',(-133.763242049981,-79.0747308622757,359.649128281816));
#1281=CARTESIAN_POINT('Ctrl Pts',(10.607853995659,11.4837371036627,344.56064983792));
#1282=CARTESIAN_POINT('Ctrl Pts',(154.978950041299,102.042205069601,329.472171394024));
#1283=CARTESIAN_POINT('Ctrl Pts',(142.19695597622,94.0245489612248,159.049609819104));
#1284=CARTESIAN_POINT('Ctrl Pts',(131.271162976342,87.1712168020706,13.3758111304048));
#1285=CARTESIAN_POINT('Ctrl Pts',(7.66895008973336,9.64027506375686,3.44390388862556));
#1286=CARTESIAN_POINT('Ctrl Pts',(-0.0203255692673743,14.4158963440312,
3.84910420525522));
#1287=CARTESIAN_POINT('Ctrl Pts',(-11.3150000539328,7.33117893507051,3.25069214901097));
#1288=CARTESIAN_POINT('Ctrl Pts',(-22.550940645,0.283303051648001,4.73463083855401));
#1289=CARTESIAN_POINT('Ctrl Pts',(-166.058716823664,-89.733637374088,23.6878052164168));
#1290=CARTESIAN_POINT('Ctrl Pts',(-150.002799501513,-79.6623743975837,193.091262640863));
#1291=CARTESIAN_POINT('Ctrl Pts',(-133.946882179361,-69.5911114210793,362.494720065309));
#1292=CARTESIAN_POINT('Ctrl Pts',(9.56089399930304,20.4258290046568,343.541545687446));
#1293=CARTESIAN_POINT('Ctrl Pts',(153.068670177967,110.442769430393,324.588371309583));
#1294=CARTESIAN_POINT('Ctrl Pts',(137.012752855816,100.371506453888,155.184913885137));
#1295=CARTESIAN_POINT('Ctrl Pts',(123.288475705332,91.7627921978521,10.3822250511839));
#1296=CARTESIAN_POINT('Ctrl Pts',(-0.0203255692673743,14.4158963440312,
3.84910420525522));
#1297=CARTESIAN_POINT('',(11.715168543,-7.08016854299,3.789085884469));
#1298=CARTESIAN_POINT('Ctrl Pts',(11.7151685430125,-7.08016854299026,3.78908588446692));
#1299=CARTESIAN_POINT('Ctrl Pts',(11.7486408599789,-4.72204923611643,3.69337796675297));
#1300=CARTESIAN_POINT('Ctrl Pts',(11.7653586705618,-2.36184206795887,3.64557647033696));
#1301=CARTESIAN_POINT('Ctrl Pts',(11.7653251289029,2.3597457677371,3.64567237652529));
#1302=CARTESIAN_POINT('Ctrl Pts',(11.7485596062135,4.72096249319476,3.69361029691126));
#1303=CARTESIAN_POINT('Ctrl Pts',(11.7150724277795,7.08007242814547,3.789360708251));
#1304=CARTESIAN_POINT('Ctrl Pts',(-11.7150724281122,-7.08007242775712,3.78936070825783));
#1305=CARTESIAN_POINT('Ctrl Pts',(-7.81603991987342,-7.17250551483775,3.52506534139612));
#1306=CARTESIAN_POINT('Ctrl Pts',(-3.90807903169557,-7.21878428969097,3.39273971900655));
#1307=CARTESIAN_POINT('Ctrl Pts',(3.9094557768147,-7.21881851883771,3.39264184707368));
#1308=CARTESIAN_POINT('Ctrl Pts',(7.81674669386116,-7.17258903318662,3.52482653607921));
#1309=CARTESIAN_POINT('Ctrl Pts',(11.7151685430003,-7.08016854299277,3.78908588446617));
#1310=CARTESIAN_POINT('Origin',(12.1485633927,4.88498130835E-15,2.54987323441));
#1311=CARTESIAN_POINT('',(12.7499668964884,-7.81496128648526,0.830316872361266));
#1312=CARTESIAN_POINT('',(12.75,7.815,0.83017616709));
#1313=CARTESIAN_POINT('',(12.6619908648,-8.02699086481,1.08182205933));
#1314=CARTESIAN_POINT('Origin',(12.4497469623,-7.81474696233,1.68869435859564));
#1315=CARTESIAN_POINT('',(11.715168543,-7.08016854299,3.789085884469));
#1316=CARTESIAN_POINT('Origin',(12.75,-1.88574541636E-15,0.5));
#1317=CARTESIAN_POINT('',(12.75,-7.815,0.415223669329999));
#1318=CARTESIAN_POINT('Origin',(-12.75,-9.90890031575E-15,0.5));
#1319=CARTESIAN_POINT('',(-12.75,-7.815,0.415223669329999));
#1320=CARTESIAN_POINT('Origin',(-12.4497469623,-7.81474696233,0.5));
#1321=CARTESIAN_POINT('',(-12.4498052540074,-8.11495258105034,0.830311752833068));
#1322=CARTESIAN_POINT('',(-12.4498053751,-8.11490516207,0.415223669329999));
#1323=CARTESIAN_POINT('Origin',(-12.4497469623,-7.81474696233,1.68869435845267));
#1324=CARTESIAN_POINT('Origin',(3.99680288865E-15,-7.51356339268,2.54987323441));
#1325=CARTESIAN_POINT('',(12.4498061713721,-8.11488951651874,0.830267019169952));
#1326=CARTESIAN_POINT('Origin',(12.4497469623,-7.81474696233,1.68869435845267));
#1327=CARTESIAN_POINT('',(12.45,-8.115,0.83017616709));
#1328=CARTESIAN_POINT('Origin',(12.4497469623,-7.81474696233,0.5));
#1329=CARTESIAN_POINT('',(12.4498053751,-8.11490516207,0.415223669329999));
#1330=CARTESIAN_POINT('Origin',(-1.7763568394E-15,-8.115,0.5));
#1331=UNCERTAINTY_MEASURE_WITH_UNIT(LENGTH_MEASURE(0.01),#1335,
'DISTANCE_ACCURACY_VALUE',
'Maximum model space distance between geometric entities at asserted c
onnectivities');
#1332=UNCERTAINTY_MEASURE_WITH_UNIT(LENGTH_MEASURE(0.01),#1335,
'DISTANCE_ACCURACY_VALUE',
'Maximum model space distance between geometric entities at asserted c
onnectivities');
#1333=(
GEOMETRIC_REPRESENTATION_CONTEXT(3)
GLOBAL_UNCERTAINTY_ASSIGNED_CONTEXT((#1331))
GLOBAL_UNIT_ASSIGNED_CONTEXT((#1335,#1337,#1338))
REPRESENTATION_CONTEXT('','3D')
);
#1334=(
GEOMETRIC_REPRESENTATION_CONTEXT(3)
GLOBAL_UNCERTAINTY_ASSIGNED_CONTEXT((#1332))
GLOBAL_UNIT_ASSIGNED_CONTEXT((#1335,#1337,#1338))
REPRESENTATION_CONTEXT('','3D')
);
#1335=(
LENGTH_UNIT()
NAMED_UNIT(*)
SI_UNIT(.MILLI.,.METRE.)
);
#1336=(
LENGTH_UNIT()
NAMED_UNIT(*)
SI_UNIT($,.METRE.)
);
#1337=(
NAMED_UNIT(*)
PLANE_ANGLE_UNIT()
SI_UNIT($,.RADIAN.)
);
#1338=(
NAMED_UNIT(*)
SI_UNIT($,.STERADIAN.)
SOLID_ANGLE_UNIT()
);
#1339=SHAPE_DEFINITION_REPRESENTATION(#1340,#1341);
#1340=PRODUCT_DEFINITION_SHAPE('',$,#1343);
#1341=SHAPE_REPRESENTATION('',(#580),#1333);
#1342=PRODUCT_DEFINITION_CONTEXT('part definition',#1347,'design');
#1343=PRODUCT_DEFINITION('Low Profile Keycap 1.5U',
'Low Profile Keycap 1.5U v2',#1344,#1342);
#1344=PRODUCT_DEFINITION_FORMATION('',$,#1349);
#1345=PRODUCT_RELATED_PRODUCT_CATEGORY('Low Profile Keycap 1.5U v2',
'Low Profile Keycap 1.5U v2',(#1349));
#1346=APPLICATION_PROTOCOL_DEFINITION('international standard',
'automotive_design',2009,#1347);
#1347=APPLICATION_CONTEXT(
'Core Data for Automotive Mechanical Design Process');
#1348=PRODUCT_CONTEXT('part definition',#1347,'mechanical');
#1349=PRODUCT('Low Profile Keycap 1.5U','Low Profile Keycap 1.5U v2',$,
(#1348));
#1350=PRESENTATION_STYLE_ASSIGNMENT((#1352));
#1351=PRESENTATION_STYLE_ASSIGNMENT((#1353));
#1352=SURFACE_STYLE_USAGE(.BOTH.,#1354);
#1353=SURFACE_STYLE_USAGE(.BOTH.,#1355);
#1354=SURFACE_SIDE_STYLE('',(#1356));
#1355=SURFACE_SIDE_STYLE('',(#1357));
#1356=SURFACE_STYLE_FILL_AREA(#1358);
#1357=SURFACE_STYLE_FILL_AREA(#1359);
#1358=FILL_AREA_STYLE('\X2\92FC\X0\ - \X2\30B530C630F3\X0\',(#1360));
#1359=FILL_AREA_STYLE('\X2\30D730E930B930C130C330AF\X0\ - \X2\30DE30C330C8\X0\(
\X2\9ED2\X0\)',(#1361));
#1360=FILL_AREA_STYLE_COLOUR('\X2\92FC\X0\ - \X2\30B530C630F3\X0\',#1362);
#1361=FILL_AREA_STYLE_COLOUR('\X2\30D730E930B930C130C330AF\X0\ - \X2\30DE30C330C8\X0\(
\X2\9ED2\X0\)',#1363);
#1362=COLOUR_RGB('\X2\92FC\X0\ - \X2\30B530C630F3\X0\',0.627450980392157,
0.627450980392157,0.627450980392157);
#1363=COLOUR_RGB('\X2\30D730E930B930C130C330AF\X0\ - \X2\30DE30C330C8\X0\(
\X2\9ED2\X0\)',0.0980392156862745,0.0980392156862745,0.0980392156862745);
ENDSEC;
END-ISO-10303-21;
