ISO-10303-21;
HEADER;
/* Generated by software containing ST-Developer
 * from STEP Tools, Inc. (www.steptools.com) 
 */

FILE_DESCRIPTION(
/* description */ (''),
/* implementation_level */ '2;1');

FILE_NAME(
/* name */ 'bifrost_right_thumb_plate.step',
/* time_stamp */ '2026-08-15T20:48:37+09:00',
/* author */ (''),
/* organization */ (''),
/* preprocessor_version */ 'ST-DEVELOPER v20.1',
/* originating_system */ 'Autodesk Translation Framework v15.8.0.0',
/* authorisation */ '');

FILE_SCHEMA (('AUTOMOTIVE_DESIGN { 1 0 10303 214 3 1 1 }'));
ENDSEC;

DATA;
#10=MECHANICAL_DESIGN_GEOMETRIC_PRESENTATION_REPRESENTATION('',(#14,#15),
#948);
#11=SHAPE_REPRESENTATION_RELATIONSHIP('SRR','None',#955,#12);
#12=ADVANCED_BREP_SHAPE_REPRESENTATION('',(#13),#947);
#13=MANIFOLD_SOLID_BREP('\X2\30DC30C730A3\X0\1',#548);
#14=STYLED_ITEM('',(#966),#547);
#15=STYLED_ITEM('',(#965),#13);
#16=FACE_BOUND('',#88,.T.);
#17=FACE_BOUND('',#89,.T.);
#18=FACE_BOUND('',#91,.T.);
#19=FACE_BOUND('',#92,.T.);
#20=PLANE('',#574);
#21=PLANE('',#578);
#22=PLANE('',#582);
#23=PLANE('',#589);
#24=PLANE('',#593);
#25=PLANE('',#597);
#26=PLANE('',#601);
#27=PLANE('',#605);
#28=PLANE('',#609);
#29=PLANE('',#613);
#30=PLANE('',#617);
#31=PLANE('',#618);
#32=PLANE('',#619);
#33=FACE_OUTER_BOUND('',#61,.T.);
#34=FACE_OUTER_BOUND('',#62,.T.);
#35=FACE_OUTER_BOUND('',#63,.T.);
#36=FACE_OUTER_BOUND('',#64,.T.);
#37=FACE_OUTER_BOUND('',#65,.T.);
#38=FACE_OUTER_BOUND('',#66,.T.);
#39=FACE_OUTER_BOUND('',#67,.T.);
#40=FACE_OUTER_BOUND('',#68,.T.);
#41=FACE_OUTER_BOUND('',#69,.T.);
#42=FACE_OUTER_BOUND('',#70,.T.);
#43=FACE_OUTER_BOUND('',#71,.T.);
#44=FACE_OUTER_BOUND('',#72,.T.);
#45=FACE_OUTER_BOUND('',#73,.T.);
#46=FACE_OUTER_BOUND('',#74,.T.);
#47=FACE_OUTER_BOUND('',#75,.T.);
#48=FACE_OUTER_BOUND('',#76,.T.);
#49=FACE_OUTER_BOUND('',#77,.T.);
#50=FACE_OUTER_BOUND('',#78,.T.);
#51=FACE_OUTER_BOUND('',#79,.T.);
#52=FACE_OUTER_BOUND('',#80,.T.);
#53=FACE_OUTER_BOUND('',#81,.T.);
#54=FACE_OUTER_BOUND('',#82,.T.);
#55=FACE_OUTER_BOUND('',#83,.T.);
#56=FACE_OUTER_BOUND('',#84,.T.);
#57=FACE_OUTER_BOUND('',#85,.T.);
#58=FACE_OUTER_BOUND('',#86,.T.);
#59=FACE_OUTER_BOUND('',#87,.T.);
#60=FACE_OUTER_BOUND('',#90,.T.);
#61=EDGE_LOOP('',(#349,#350,#351,#352));
#62=EDGE_LOOP('',(#353,#354,#355,#356));
#63=EDGE_LOOP('',(#357,#358,#359,#360));
#64=EDGE_LOOP('',(#361,#362,#363,#364));
#65=EDGE_LOOP('',(#365,#366,#367,#368));
#66=EDGE_LOOP('',(#369,#370,#371,#372));
#67=EDGE_LOOP('',(#373,#374,#375,#376));
#68=EDGE_LOOP('',(#377,#378,#379,#380));
#69=EDGE_LOOP('',(#381,#382,#383,#384));
#70=EDGE_LOOP('',(#385,#386,#387,#388));
#71=EDGE_LOOP('',(#389,#390,#391,#392));
#72=EDGE_LOOP('',(#393,#394,#395,#396));
#73=EDGE_LOOP('',(#397,#398,#399,#400));
#74=EDGE_LOOP('',(#401,#402,#403,#404));
#75=EDGE_LOOP('',(#405,#406,#407,#408));
#76=EDGE_LOOP('',(#409,#410,#411,#412));
#77=EDGE_LOOP('',(#413,#414,#415,#416));
#78=EDGE_LOOP('',(#417,#418,#419,#420));
#79=EDGE_LOOP('',(#421,#422,#423,#424));
#80=EDGE_LOOP('',(#425,#426,#427,#428));
#81=EDGE_LOOP('',(#429,#430,#431,#432));
#82=EDGE_LOOP('',(#433,#434,#435,#436));
#83=EDGE_LOOP('',(#437,#438,#439,#440));
#84=EDGE_LOOP('',(#441,#442,#443,#444));
#85=EDGE_LOOP('',(#445,#446,#447,#448));
#86=EDGE_LOOP('',(#449,#450,#451,#452));
#87=EDGE_LOOP('',(#453,#454,#455,#456,#457,#458,#459,#460,#461,#462));
#88=EDGE_LOOP('',(#463,#464,#465,#466,#467,#468,#469,#470));
#89=EDGE_LOOP('',(#471,#472,#473,#474,#475,#476,#477,#478));
#90=EDGE_LOOP('',(#479,#480,#481,#482,#483,#484,#485,#486,#487,#488));
#91=EDGE_LOOP('',(#489,#490,#491,#492,#493,#494,#495,#496));
#92=EDGE_LOOP('',(#497,#498,#499,#500,#501,#502,#503,#504));
#93=CIRCLE('',#563,1.389062359273);
#94=CIRCLE('',#564,1.389062359273);
#95=CIRCLE('',#566,13.890620209938);
#96=CIRCLE('',#567,13.890620209938);
#97=CIRCLE('',#569,1.389061427111);
#98=CIRCLE('',#570,1.389061427111);
#99=CIRCLE('',#572,170.50828924404);
#100=CIRCLE('',#573,170.50828924404);
#101=CIRCLE('',#576,3.770306242157);
#102=CIRCLE('',#577,3.770306242157);
#103=CIRCLE('',#580,1.389066454036);
#104=CIRCLE('',#581,1.389066454036);
#105=CIRCLE('',#584,190.74900503394);
#106=CIRCLE('',#585,190.74900503394);
#107=CIRCLE('',#587,0.500001243041);
#108=CIRCLE('',#588,0.500001243041);
#109=CIRCLE('',#591,0.500002740729);
#110=CIRCLE('',#592,0.500002740729);
#111=CIRCLE('',#595,0.500001243041);
#112=CIRCLE('',#596,0.500001243041);
#113=CIRCLE('',#599,0.500001243041);
#114=CIRCLE('',#600,0.500001243041);
#115=CIRCLE('',#603,0.500000977877);
#116=CIRCLE('',#604,0.500000977877);
#117=CIRCLE('',#607,0.499999671282);
#118=CIRCLE('',#608,0.499999671282);
#119=CIRCLE('',#611,0.500000977877);
#120=CIRCLE('',#612,0.500000977877);
#121=CIRCLE('',#615,0.500000977877);
#122=CIRCLE('',#616,0.500000977877);
#123=LINE('',#790,#171);
#124=LINE('',#794,#172);
#125=LINE('',#800,#173);
#126=LINE('',#806,#174);
#127=LINE('',#812,#175);
#128=LINE('',#816,#176);
#129=LINE('',#818,#177);
#130=LINE('',#819,#178);
#131=LINE('',#824,#179);
#132=LINE('',#828,#180);
#133=LINE('',#830,#181);
#134=LINE('',#831,#182);
#135=LINE('',#836,#183);
#136=LINE('',#840,#184);
#137=LINE('',#842,#185);
#138=LINE('',#843,#186);
#139=LINE('',#850,#187);
#140=LINE('',#854,#188);
#141=LINE('',#858,#189);
#142=LINE('',#860,#190);
#143=LINE('',#861,#191);
#144=LINE('',#866,#192);
#145=LINE('',#870,#193);
#146=LINE('',#872,#194);
#147=LINE('',#873,#195);
#148=LINE('',#878,#196);
#149=LINE('',#882,#197);
#150=LINE('',#884,#198);
#151=LINE('',#885,#199);
#152=LINE('',#890,#200);
#153=LINE('',#893,#201);
#154=LINE('',#894,#202);
#155=LINE('',#898,#203);
#156=LINE('',#902,#204);
#157=LINE('',#906,#205);
#158=LINE('',#908,#206);
#159=LINE('',#909,#207);
#160=LINE('',#914,#208);
#161=LINE('',#918,#209);
#162=LINE('',#920,#210);
#163=LINE('',#921,#211);
#164=LINE('',#926,#212);
#165=LINE('',#930,#213);
#166=LINE('',#932,#214);
#167=LINE('',#933,#215);
#168=LINE('',#938,#216);
#169=LINE('',#941,#217);
#170=LINE('',#942,#218);
#171=VECTOR('',#624,1.);
#172=VECTOR('',#627,1.);
#173=VECTOR('',#634,1.);
#174=VECTOR('',#641,1.);
#175=VECTOR('',#648,1.);
#176=VECTOR('',#653,10.);
#177=VECTOR('',#654,1.);
#178=VECTOR('',#655,1.0000000000002);
#179=VECTOR('',#660,1.);
#180=VECTOR('',#665,10.);
#181=VECTOR('',#666,1.);
#182=VECTOR('',#667,0.99999999999972);
#183=VECTOR('',#672,1.);
#184=VECTOR('',#677,10.);
#185=VECTOR('',#678,1.);
#186=VECTOR('',#679,1.00000000000004);
#187=VECTOR('',#688,1.);
#188=VECTOR('',#691,1.);
#189=VECTOR('',#696,10.);
#190=VECTOR('',#697,1.);
#191=VECTOR('',#698,1.00000000000009);
#192=VECTOR('',#703,1.);
#193=VECTOR('',#708,10.);
#194=VECTOR('',#709,1.);
#195=VECTOR('',#710,1.00000000000038);
#196=VECTOR('',#715,1.);
#197=VECTOR('',#720,10.);
#198=VECTOR('',#721,1.);
#199=VECTOR('',#722,1.00000000000038);
#200=VECTOR('',#727,1.);
#201=VECTOR('',#732,10.);
#202=VECTOR('',#733,1.00000000000038);
#203=VECTOR('',#736,1.);
#204=VECTOR('',#739,1.);
#205=VECTOR('',#744,10.);
#206=VECTOR('',#745,1.);
#207=VECTOR('',#746,1.0000000000002);
#208=VECTOR('',#751,1.);
#209=VECTOR('',#756,10.);
#210=VECTOR('',#757,1.);
#211=VECTOR('',#758,0.999999999999924);
#212=VECTOR('',#763,1.);
#213=VECTOR('',#768,10.);
#214=VECTOR('',#769,1.);
#215=VECTOR('',#770,0.999999999999924);
#216=VECTOR('',#775,1.);
#217=VECTOR('',#780,10.);
#218=VECTOR('',#781,0.999999999999924);
#219=VERTEX_POINT('',#788);
#220=VERTEX_POINT('',#789);
#221=VERTEX_POINT('',#791);
#222=VERTEX_POINT('',#793);
#223=VERTEX_POINT('',#797);
#224=VERTEX_POINT('',#799);
#225=VERTEX_POINT('',#803);
#226=VERTEX_POINT('',#805);
#227=VERTEX_POINT('',#809);
#228=VERTEX_POINT('',#811);
#229=VERTEX_POINT('',#815);
#230=VERTEX_POINT('',#817);
#231=VERTEX_POINT('',#821);
#232=VERTEX_POINT('',#823);
#233=VERTEX_POINT('',#827);
#234=VERTEX_POINT('',#829);
#235=VERTEX_POINT('',#833);
#236=VERTEX_POINT('',#835);
#237=VERTEX_POINT('',#839);
#238=VERTEX_POINT('',#841);
#239=VERTEX_POINT('',#848);
#240=VERTEX_POINT('',#849);
#241=VERTEX_POINT('',#851);
#242=VERTEX_POINT('',#853);
#243=VERTEX_POINT('',#857);
#244=VERTEX_POINT('',#859);
#245=VERTEX_POINT('',#863);
#246=VERTEX_POINT('',#865);
#247=VERTEX_POINT('',#869);
#248=VERTEX_POINT('',#871);
#249=VERTEX_POINT('',#875);
#250=VERTEX_POINT('',#877);
#251=VERTEX_POINT('',#881);
#252=VERTEX_POINT('',#883);
#253=VERTEX_POINT('',#887);
#254=VERTEX_POINT('',#889);
#255=VERTEX_POINT('',#896);
#256=VERTEX_POINT('',#897);
#257=VERTEX_POINT('',#899);
#258=VERTEX_POINT('',#901);
#259=VERTEX_POINT('',#905);
#260=VERTEX_POINT('',#907);
#261=VERTEX_POINT('',#911);
#262=VERTEX_POINT('',#913);
#263=VERTEX_POINT('',#917);
#264=VERTEX_POINT('',#919);
#265=VERTEX_POINT('',#923);
#266=VERTEX_POINT('',#925);
#267=VERTEX_POINT('',#929);
#268=VERTEX_POINT('',#931);
#269=VERTEX_POINT('',#935);
#270=VERTEX_POINT('',#937);
#271=EDGE_CURVE('',#219,#220,#123,.T.);
#272=EDGE_CURVE('',#220,#221,#93,.F.);
#273=EDGE_CURVE('',#222,#221,#124,.T.);
#274=EDGE_CURVE('',#219,#222,#94,.T.);
#275=EDGE_CURVE('',#221,#223,#95,.T.);
#276=EDGE_CURVE('',#224,#223,#125,.T.);
#277=EDGE_CURVE('',#222,#224,#96,.T.);
#278=EDGE_CURVE('',#223,#225,#97,.F.);
#279=EDGE_CURVE('',#226,#225,#126,.T.);
#280=EDGE_CURVE('',#224,#226,#98,.T.);
#281=EDGE_CURVE('',#225,#227,#99,.T.);
#282=EDGE_CURVE('',#228,#227,#127,.T.);
#283=EDGE_CURVE('',#226,#228,#100,.T.);
#284=EDGE_CURVE('',#227,#229,#128,.F.);
#285=EDGE_CURVE('',#230,#229,#129,.T.);
#286=EDGE_CURVE('',#228,#230,#130,.T.);
#287=EDGE_CURVE('',#229,#231,#101,.F.);
#288=EDGE_CURVE('',#232,#231,#131,.T.);
#289=EDGE_CURVE('',#230,#232,#102,.T.);
#290=EDGE_CURVE('',#231,#233,#132,.F.);
#291=EDGE_CURVE('',#234,#233,#133,.T.);
#292=EDGE_CURVE('',#232,#234,#134,.T.);
#293=EDGE_CURVE('',#233,#235,#103,.F.);
#294=EDGE_CURVE('',#236,#235,#135,.T.);
#295=EDGE_CURVE('',#234,#236,#104,.T.);
#296=EDGE_CURVE('',#235,#237,#136,.F.);
#297=EDGE_CURVE('',#238,#237,#137,.T.);
#298=EDGE_CURVE('',#236,#238,#138,.T.);
#299=EDGE_CURVE('',#237,#220,#105,.F.);
#300=EDGE_CURVE('',#238,#219,#106,.T.);
#301=EDGE_CURVE('',#239,#240,#139,.T.);
#302=EDGE_CURVE('',#240,#241,#107,.T.);
#303=EDGE_CURVE('',#242,#241,#140,.T.);
#304=EDGE_CURVE('',#239,#242,#108,.T.);
#305=EDGE_CURVE('',#241,#243,#141,.F.);
#306=EDGE_CURVE('',#244,#243,#142,.T.);
#307=EDGE_CURVE('',#242,#244,#143,.T.);
#308=EDGE_CURVE('',#243,#245,#109,.T.);
#309=EDGE_CURVE('',#246,#245,#144,.T.);
#310=EDGE_CURVE('',#244,#246,#110,.T.);
#311=EDGE_CURVE('',#245,#247,#145,.F.);
#312=EDGE_CURVE('',#248,#247,#146,.T.);
#313=EDGE_CURVE('',#246,#248,#147,.T.);
#314=EDGE_CURVE('',#247,#249,#111,.T.);
#315=EDGE_CURVE('',#250,#249,#148,.T.);
#316=EDGE_CURVE('',#248,#250,#112,.T.);
#317=EDGE_CURVE('',#249,#251,#149,.F.);
#318=EDGE_CURVE('',#252,#251,#150,.T.);
#319=EDGE_CURVE('',#250,#252,#151,.T.);
#320=EDGE_CURVE('',#251,#253,#113,.T.);
#321=EDGE_CURVE('',#254,#253,#152,.T.);
#322=EDGE_CURVE('',#252,#254,#114,.T.);
#323=EDGE_CURVE('',#253,#240,#153,.F.);
#324=EDGE_CURVE('',#254,#239,#154,.T.);
#325=EDGE_CURVE('',#255,#256,#155,.T.);
#326=EDGE_CURVE('',#256,#257,#115,.T.);
#327=EDGE_CURVE('',#258,#257,#156,.T.);
#328=EDGE_CURVE('',#255,#258,#116,.T.);
#329=EDGE_CURVE('',#257,#259,#157,.F.);
#330=EDGE_CURVE('',#260,#259,#158,.T.);
#331=EDGE_CURVE('',#258,#260,#159,.T.);
#332=EDGE_CURVE('',#259,#261,#117,.T.);
#333=EDGE_CURVE('',#262,#261,#160,.T.);
#334=EDGE_CURVE('',#260,#262,#118,.T.);
#335=EDGE_CURVE('',#261,#263,#161,.F.);
#336=EDGE_CURVE('',#264,#263,#162,.T.);
#337=EDGE_CURVE('',#262,#264,#163,.T.);
#338=EDGE_CURVE('',#263,#265,#119,.T.);
#339=EDGE_CURVE('',#266,#265,#164,.T.);
#340=EDGE_CURVE('',#264,#266,#120,.T.);
#341=EDGE_CURVE('',#265,#267,#165,.F.);
#342=EDGE_CURVE('',#268,#267,#166,.T.);
#343=EDGE_CURVE('',#266,#268,#167,.T.);
#344=EDGE_CURVE('',#267,#269,#121,.T.);
#345=EDGE_CURVE('',#270,#269,#168,.T.);
#346=EDGE_CURVE('',#268,#270,#122,.T.);
#347=EDGE_CURVE('',#269,#256,#169,.F.);
#348=EDGE_CURVE('',#270,#255,#170,.T.);
#349=ORIENTED_EDGE('',*,*,#271,.T.);
#350=ORIENTED_EDGE('',*,*,#272,.T.);
#351=ORIENTED_EDGE('',*,*,#273,.F.);
#352=ORIENTED_EDGE('',*,*,#274,.F.);
#353=ORIENTED_EDGE('',*,*,#273,.T.);
#354=ORIENTED_EDGE('',*,*,#275,.T.);
#355=ORIENTED_EDGE('',*,*,#276,.F.);
#356=ORIENTED_EDGE('',*,*,#277,.F.);
#357=ORIENTED_EDGE('',*,*,#276,.T.);
#358=ORIENTED_EDGE('',*,*,#278,.T.);
#359=ORIENTED_EDGE('',*,*,#279,.F.);
#360=ORIENTED_EDGE('',*,*,#280,.F.);
#361=ORIENTED_EDGE('',*,*,#279,.T.);
#362=ORIENTED_EDGE('',*,*,#281,.T.);
#363=ORIENTED_EDGE('',*,*,#282,.F.);
#364=ORIENTED_EDGE('',*,*,#283,.F.);
#365=ORIENTED_EDGE('',*,*,#282,.T.);
#366=ORIENTED_EDGE('',*,*,#284,.T.);
#367=ORIENTED_EDGE('',*,*,#285,.F.);
#368=ORIENTED_EDGE('',*,*,#286,.F.);
#369=ORIENTED_EDGE('',*,*,#285,.T.);
#370=ORIENTED_EDGE('',*,*,#287,.T.);
#371=ORIENTED_EDGE('',*,*,#288,.F.);
#372=ORIENTED_EDGE('',*,*,#289,.F.);
#373=ORIENTED_EDGE('',*,*,#288,.T.);
#374=ORIENTED_EDGE('',*,*,#290,.T.);
#375=ORIENTED_EDGE('',*,*,#291,.F.);
#376=ORIENTED_EDGE('',*,*,#292,.F.);
#377=ORIENTED_EDGE('',*,*,#291,.T.);
#378=ORIENTED_EDGE('',*,*,#293,.T.);
#379=ORIENTED_EDGE('',*,*,#294,.F.);
#380=ORIENTED_EDGE('',*,*,#295,.F.);
#381=ORIENTED_EDGE('',*,*,#294,.T.);
#382=ORIENTED_EDGE('',*,*,#296,.T.);
#383=ORIENTED_EDGE('',*,*,#297,.F.);
#384=ORIENTED_EDGE('',*,*,#298,.F.);
#385=ORIENTED_EDGE('',*,*,#297,.T.);
#386=ORIENTED_EDGE('',*,*,#299,.T.);
#387=ORIENTED_EDGE('',*,*,#271,.F.);
#388=ORIENTED_EDGE('',*,*,#300,.F.);
#389=ORIENTED_EDGE('',*,*,#301,.T.);
#390=ORIENTED_EDGE('',*,*,#302,.T.);
#391=ORIENTED_EDGE('',*,*,#303,.F.);
#392=ORIENTED_EDGE('',*,*,#304,.F.);
#393=ORIENTED_EDGE('',*,*,#303,.T.);
#394=ORIENTED_EDGE('',*,*,#305,.T.);
#395=ORIENTED_EDGE('',*,*,#306,.F.);
#396=ORIENTED_EDGE('',*,*,#307,.F.);
#397=ORIENTED_EDGE('',*,*,#306,.T.);
#398=ORIENTED_EDGE('',*,*,#308,.T.);
#399=ORIENTED_EDGE('',*,*,#309,.F.);
#400=ORIENTED_EDGE('',*,*,#310,.F.);
#401=ORIENTED_EDGE('',*,*,#309,.T.);
#402=ORIENTED_EDGE('',*,*,#311,.T.);
#403=ORIENTED_EDGE('',*,*,#312,.F.);
#404=ORIENTED_EDGE('',*,*,#313,.F.);
#405=ORIENTED_EDGE('',*,*,#312,.T.);
#406=ORIENTED_EDGE('',*,*,#314,.T.);
#407=ORIENTED_EDGE('',*,*,#315,.F.);
#408=ORIENTED_EDGE('',*,*,#316,.F.);
#409=ORIENTED_EDGE('',*,*,#315,.T.);
#410=ORIENTED_EDGE('',*,*,#317,.T.);
#411=ORIENTED_EDGE('',*,*,#318,.F.);
#412=ORIENTED_EDGE('',*,*,#319,.F.);
#413=ORIENTED_EDGE('',*,*,#318,.T.);
#414=ORIENTED_EDGE('',*,*,#320,.T.);
#415=ORIENTED_EDGE('',*,*,#321,.F.);
#416=ORIENTED_EDGE('',*,*,#322,.F.);
#417=ORIENTED_EDGE('',*,*,#321,.T.);
#418=ORIENTED_EDGE('',*,*,#323,.T.);
#419=ORIENTED_EDGE('',*,*,#301,.F.);
#420=ORIENTED_EDGE('',*,*,#324,.F.);
#421=ORIENTED_EDGE('',*,*,#325,.T.);
#422=ORIENTED_EDGE('',*,*,#326,.T.);
#423=ORIENTED_EDGE('',*,*,#327,.F.);
#424=ORIENTED_EDGE('',*,*,#328,.F.);
#425=ORIENTED_EDGE('',*,*,#327,.T.);
#426=ORIENTED_EDGE('',*,*,#329,.T.);
#427=ORIENTED_EDGE('',*,*,#330,.F.);
#428=ORIENTED_EDGE('',*,*,#331,.F.);
#429=ORIENTED_EDGE('',*,*,#330,.T.);
#430=ORIENTED_EDGE('',*,*,#332,.T.);
#431=ORIENTED_EDGE('',*,*,#333,.F.);
#432=ORIENTED_EDGE('',*,*,#334,.F.);
#433=ORIENTED_EDGE('',*,*,#333,.T.);
#434=ORIENTED_EDGE('',*,*,#335,.T.);
#435=ORIENTED_EDGE('',*,*,#336,.F.);
#436=ORIENTED_EDGE('',*,*,#337,.F.);
#437=ORIENTED_EDGE('',*,*,#336,.T.);
#438=ORIENTED_EDGE('',*,*,#338,.T.);
#439=ORIENTED_EDGE('',*,*,#339,.F.);
#440=ORIENTED_EDGE('',*,*,#340,.F.);
#441=ORIENTED_EDGE('',*,*,#339,.T.);
#442=ORIENTED_EDGE('',*,*,#341,.T.);
#443=ORIENTED_EDGE('',*,*,#342,.F.);
#444=ORIENTED_EDGE('',*,*,#343,.F.);
#445=ORIENTED_EDGE('',*,*,#342,.T.);
#446=ORIENTED_EDGE('',*,*,#344,.T.);
#447=ORIENTED_EDGE('',*,*,#345,.F.);
#448=ORIENTED_EDGE('',*,*,#346,.F.);
#449=ORIENTED_EDGE('',*,*,#345,.T.);
#450=ORIENTED_EDGE('',*,*,#347,.T.);
#451=ORIENTED_EDGE('',*,*,#325,.F.);
#452=ORIENTED_EDGE('',*,*,#348,.F.);
#453=ORIENTED_EDGE('',*,*,#274,.T.);
#454=ORIENTED_EDGE('',*,*,#277,.T.);
#455=ORIENTED_EDGE('',*,*,#280,.T.);
#456=ORIENTED_EDGE('',*,*,#283,.T.);
#457=ORIENTED_EDGE('',*,*,#286,.T.);
#458=ORIENTED_EDGE('',*,*,#289,.T.);
#459=ORIENTED_EDGE('',*,*,#292,.T.);
#460=ORIENTED_EDGE('',*,*,#295,.T.);
#461=ORIENTED_EDGE('',*,*,#298,.T.);
#462=ORIENTED_EDGE('',*,*,#300,.T.);
#463=ORIENTED_EDGE('',*,*,#304,.T.);
#464=ORIENTED_EDGE('',*,*,#307,.T.);
#465=ORIENTED_EDGE('',*,*,#310,.T.);
#466=ORIENTED_EDGE('',*,*,#313,.T.);
#467=ORIENTED_EDGE('',*,*,#316,.T.);
#468=ORIENTED_EDGE('',*,*,#319,.T.);
#469=ORIENTED_EDGE('',*,*,#322,.T.);
#470=ORIENTED_EDGE('',*,*,#324,.T.);
#471=ORIENTED_EDGE('',*,*,#328,.T.);
#472=ORIENTED_EDGE('',*,*,#331,.T.);
#473=ORIENTED_EDGE('',*,*,#334,.T.);
#474=ORIENTED_EDGE('',*,*,#337,.T.);
#475=ORIENTED_EDGE('',*,*,#340,.T.);
#476=ORIENTED_EDGE('',*,*,#343,.T.);
#477=ORIENTED_EDGE('',*,*,#346,.T.);
#478=ORIENTED_EDGE('',*,*,#348,.T.);
#479=ORIENTED_EDGE('',*,*,#272,.F.);
#480=ORIENTED_EDGE('',*,*,#299,.F.);
#481=ORIENTED_EDGE('',*,*,#296,.F.);
#482=ORIENTED_EDGE('',*,*,#293,.F.);
#483=ORIENTED_EDGE('',*,*,#290,.F.);
#484=ORIENTED_EDGE('',*,*,#287,.F.);
#485=ORIENTED_EDGE('',*,*,#284,.F.);
#486=ORIENTED_EDGE('',*,*,#281,.F.);
#487=ORIENTED_EDGE('',*,*,#278,.F.);
#488=ORIENTED_EDGE('',*,*,#275,.F.);
#489=ORIENTED_EDGE('',*,*,#302,.F.);
#490=ORIENTED_EDGE('',*,*,#323,.F.);
#491=ORIENTED_EDGE('',*,*,#320,.F.);
#492=ORIENTED_EDGE('',*,*,#317,.F.);
#493=ORIENTED_EDGE('',*,*,#314,.F.);
#494=ORIENTED_EDGE('',*,*,#311,.F.);
#495=ORIENTED_EDGE('',*,*,#308,.F.);
#496=ORIENTED_EDGE('',*,*,#305,.F.);
#497=ORIENTED_EDGE('',*,*,#326,.F.);
#498=ORIENTED_EDGE('',*,*,#347,.F.);
#499=ORIENTED_EDGE('',*,*,#344,.F.);
#500=ORIENTED_EDGE('',*,*,#341,.F.);
#501=ORIENTED_EDGE('',*,*,#338,.F.);
#502=ORIENTED_EDGE('',*,*,#335,.F.);
#503=ORIENTED_EDGE('',*,*,#332,.F.);
#504=ORIENTED_EDGE('',*,*,#329,.F.);
#505=CYLINDRICAL_SURFACE('',#562,1.389062359273);
#506=CYLINDRICAL_SURFACE('',#565,13.890620209938);
#507=CYLINDRICAL_SURFACE('',#568,1.389061427111);
#508=CYLINDRICAL_SURFACE('',#571,170.50828924404);
#509=CYLINDRICAL_SURFACE('',#575,3.770306242157);
#510=CYLINDRICAL_SURFACE('',#579,1.389066454036);
#511=CYLINDRICAL_SURFACE('',#583,190.74900503394);
#512=CYLINDRICAL_SURFACE('',#586,0.500001243041);
#513=CYLINDRICAL_SURFACE('',#590,0.500002740729);
#514=CYLINDRICAL_SURFACE('',#594,0.500001243041);
#515=CYLINDRICAL_SURFACE('',#598,0.500001243041);
#516=CYLINDRICAL_SURFACE('',#602,0.500000977877);
#517=CYLINDRICAL_SURFACE('',#606,0.499999671282);
#518=CYLINDRICAL_SURFACE('',#610,0.500000977877);
#519=CYLINDRICAL_SURFACE('',#614,0.500000977877);
#520=ADVANCED_FACE('',(#33),#505,.T.);
#521=ADVANCED_FACE('',(#34),#506,.F.);
#522=ADVANCED_FACE('',(#35),#507,.T.);
#523=ADVANCED_FACE('',(#36),#508,.F.);
#524=ADVANCED_FACE('',(#37),#20,.T.);
#525=ADVANCED_FACE('',(#38),#509,.T.);
#526=ADVANCED_FACE('',(#39),#21,.T.);
#527=ADVANCED_FACE('',(#40),#510,.T.);
#528=ADVANCED_FACE('',(#41),#22,.T.);
#529=ADVANCED_FACE('',(#42),#511,.T.);
#530=ADVANCED_FACE('',(#43),#512,.F.);
#531=ADVANCED_FACE('',(#44),#23,.T.);
#532=ADVANCED_FACE('',(#45),#513,.F.);
#533=ADVANCED_FACE('',(#46),#24,.T.);
#534=ADVANCED_FACE('',(#47),#514,.F.);
#535=ADVANCED_FACE('',(#48),#25,.T.);
#536=ADVANCED_FACE('',(#49),#515,.F.);
#537=ADVANCED_FACE('',(#50),#26,.T.);
#538=ADVANCED_FACE('',(#51),#516,.F.);
#539=ADVANCED_FACE('',(#52),#27,.T.);
#540=ADVANCED_FACE('',(#53),#517,.F.);
#541=ADVANCED_FACE('',(#54),#28,.T.);
#542=ADVANCED_FACE('',(#55),#518,.F.);
#543=ADVANCED_FACE('',(#56),#29,.T.);
#544=ADVANCED_FACE('',(#57),#519,.F.);
#545=ADVANCED_FACE('',(#58),#30,.T.);
#546=ADVANCED_FACE('',(#59,#16,#17),#31,.F.);
#547=ADVANCED_FACE('',(#60,#18,#19),#32,.T.);
#548=CLOSED_SHELL('',(#520,#521,#522,#523,#524,#525,#526,#527,#528,#529,
#530,#531,#532,#533,#534,#535,#536,#537,#538,#539,#540,#541,#542,#543,#544,
#545,#546,#547));
#549=DERIVED_UNIT_ELEMENT(#551,1.);
#550=DERIVED_UNIT_ELEMENT(#950,-3.);
#551=(
MASS_UNIT()
NAMED_UNIT(*)
SI_UNIT(.KILO.,.GRAM.)
);
#552=DERIVED_UNIT((#549,#550));
#553=MEASURE_REPRESENTATION_ITEM('density measure',
POSITIVE_RATIO_MEASURE(7850.),#552);
#554=PROPERTY_DEFINITION_REPRESENTATION(#559,#556);
#555=PROPERTY_DEFINITION_REPRESENTATION(#560,#557);
#556=REPRESENTATION('material name',(#558),#947);
#557=REPRESENTATION('density',(#553),#947);
#558=DESCRIPTIVE_REPRESENTATION_ITEM('\X2\92FC\X0\','\X2\92FC\X0\');
#559=PROPERTY_DEFINITION('material property','material name',#957);
#560=PROPERTY_DEFINITION('material property','density of part',#957);
#561=AXIS2_PLACEMENT_3D('',#786,#620,#621);
#562=AXIS2_PLACEMENT_3D('',#787,#622,#623);
#563=AXIS2_PLACEMENT_3D('',#792,#625,#626);
#564=AXIS2_PLACEMENT_3D('',#795,#628,#629);
#565=AXIS2_PLACEMENT_3D('',#796,#630,#631);
#566=AXIS2_PLACEMENT_3D('',#798,#632,#633);
#567=AXIS2_PLACEMENT_3D('',#801,#635,#636);
#568=AXIS2_PLACEMENT_3D('',#802,#637,#638);
#569=AXIS2_PLACEMENT_3D('',#804,#639,#640);
#570=AXIS2_PLACEMENT_3D('',#807,#642,#643);
#571=AXIS2_PLACEMENT_3D('',#808,#644,#645);
#572=AXIS2_PLACEMENT_3D('',#810,#646,#647);
#573=AXIS2_PLACEMENT_3D('',#813,#649,#650);
#574=AXIS2_PLACEMENT_3D('',#814,#651,#652);
#575=AXIS2_PLACEMENT_3D('',#820,#656,#657);
#576=AXIS2_PLACEMENT_3D('',#822,#658,#659);
#577=AXIS2_PLACEMENT_3D('',#825,#661,#662);
#578=AXIS2_PLACEMENT_3D('',#826,#663,#664);
#579=AXIS2_PLACEMENT_3D('',#832,#668,#669);
#580=AXIS2_PLACEMENT_3D('',#834,#670,#671);
#581=AXIS2_PLACEMENT_3D('',#837,#673,#674);
#582=AXIS2_PLACEMENT_3D('',#838,#675,#676);
#583=AXIS2_PLACEMENT_3D('',#844,#680,#681);
#584=AXIS2_PLACEMENT_3D('',#845,#682,#683);
#585=AXIS2_PLACEMENT_3D('',#846,#684,#685);
#586=AXIS2_PLACEMENT_3D('',#847,#686,#687);
#587=AXIS2_PLACEMENT_3D('',#852,#689,#690);
#588=AXIS2_PLACEMENT_3D('',#855,#692,#693);
#589=AXIS2_PLACEMENT_3D('',#856,#694,#695);
#590=AXIS2_PLACEMENT_3D('',#862,#699,#700);
#591=AXIS2_PLACEMENT_3D('',#864,#701,#702);
#592=AXIS2_PLACEMENT_3D('',#867,#704,#705);
#593=AXIS2_PLACEMENT_3D('',#868,#706,#707);
#594=AXIS2_PLACEMENT_3D('',#874,#711,#712);
#595=AXIS2_PLACEMENT_3D('',#876,#713,#714);
#596=AXIS2_PLACEMENT_3D('',#879,#716,#717);
#597=AXIS2_PLACEMENT_3D('',#880,#718,#719);
#598=AXIS2_PLACEMENT_3D('',#886,#723,#724);
#599=AXIS2_PLACEMENT_3D('',#888,#725,#726);
#600=AXIS2_PLACEMENT_3D('',#891,#728,#729);
#601=AXIS2_PLACEMENT_3D('',#892,#730,#731);
#602=AXIS2_PLACEMENT_3D('',#895,#734,#735);
#603=AXIS2_PLACEMENT_3D('',#900,#737,#738);
#604=AXIS2_PLACEMENT_3D('',#903,#740,#741);
#605=AXIS2_PLACEMENT_3D('',#904,#742,#743);
#606=AXIS2_PLACEMENT_3D('',#910,#747,#748);
#607=AXIS2_PLACEMENT_3D('',#912,#749,#750);
#608=AXIS2_PLACEMENT_3D('',#915,#752,#753);
#609=AXIS2_PLACEMENT_3D('',#916,#754,#755);
#610=AXIS2_PLACEMENT_3D('',#922,#759,#760);
#611=AXIS2_PLACEMENT_3D('',#924,#761,#762);
#612=AXIS2_PLACEMENT_3D('',#927,#764,#765);
#613=AXIS2_PLACEMENT_3D('',#928,#766,#767);
#614=AXIS2_PLACEMENT_3D('',#934,#771,#772);
#615=AXIS2_PLACEMENT_3D('',#936,#773,#774);
#616=AXIS2_PLACEMENT_3D('',#939,#776,#777);
#617=AXIS2_PLACEMENT_3D('',#940,#778,#779);
#618=AXIS2_PLACEMENT_3D('',#943,#782,#783);
#619=AXIS2_PLACEMENT_3D('',#944,#784,#785);
#620=DIRECTION('axis',(0.,0.,1.));
#621=DIRECTION('refdir',(1.,0.,0.));
#622=DIRECTION('center_axis',(0.,0.,-1.));
#623=DIRECTION('ref_axis',(-0.292723952161017,0.956196992168055,0.));
#624=DIRECTION('',(0.,0.,1.));
#625=DIRECTION('center_axis',(0.,0.,1.));
#626=DIRECTION('ref_axis',(-0.292723952161017,0.956196992168055,0.));
#627=DIRECTION('',(0.,0.,1.));
#628=DIRECTION('center_axis',(0.,0.,-1.));
#629=DIRECTION('ref_axis',(-0.292723952161017,0.956196992168055,0.));
#630=DIRECTION('center_axis',(0.,0.,-1.));
#631=DIRECTION('ref_axis',(-0.854929886953878,0.518743567085926,0.));
#632=DIRECTION('center_axis',(0.,0.,1.));
#633=DIRECTION('ref_axis',(-0.854929886953878,0.518743567085926,0.));
#634=DIRECTION('',(0.,0.,1.));
#635=DIRECTION('center_axis',(0.,0.,1.));
#636=DIRECTION('ref_axis',(-0.854929886953878,0.518743567085926,0.));
#637=DIRECTION('center_axis',(0.,0.,-1.));
#638=DIRECTION('ref_axis',(0.75971857287305,0.650252020398043,0.));
#639=DIRECTION('center_axis',(0.,0.,1.));
#640=DIRECTION('ref_axis',(0.75971857287305,0.650252020398043,0.));
#641=DIRECTION('',(0.,0.,1.));
#642=DIRECTION('center_axis',(0.,0.,-1.));
#643=DIRECTION('ref_axis',(0.75971857287305,0.650252020398043,0.));
#644=DIRECTION('center_axis',(0.,0.,-1.));
#645=DIRECTION('ref_axis',(-0.313996387432982,0.949424177424947,0.));
#646=DIRECTION('center_axis',(0.,0.,1.));
#647=DIRECTION('ref_axis',(-0.313996387432982,0.949424177424947,0.));
#648=DIRECTION('',(0.,0.,1.));
#649=DIRECTION('center_axis',(0.,0.,1.));
#650=DIRECTION('ref_axis',(-0.313996387432982,0.949424177424947,0.));
#651=DIRECTION('center_axis',(0.479901750626905,-0.877322238259827,0.));
#652=DIRECTION('ref_axis',(-0.877322238259826,-0.479901750626905,0.));
#653=DIRECTION('',(0.877322238259826,0.479901750626905,0.));
#654=DIRECTION('',(0.,0.,1.));
#655=DIRECTION('',(-0.877322238259826,-0.479901750626905,0.));
#656=DIRECTION('center_axis',(0.,0.,-1.));
#657=DIRECTION('ref_axis',(0.479902915228944,-0.877321601212897,0.));
#658=DIRECTION('center_axis',(0.,0.,1.));
#659=DIRECTION('ref_axis',(0.479902915228944,-0.877321601212897,0.));
#660=DIRECTION('',(0.,0.,1.));
#661=DIRECTION('center_axis',(0.,0.,-1.));
#662=DIRECTION('ref_axis',(0.479902915228944,-0.877321601212897,0.));
#663=DIRECTION('center_axis',(-0.877322289083246,-0.479901657715134,0.));
#664=DIRECTION('ref_axis',(-0.479901657715134,0.877322289083246,0.));
#665=DIRECTION('',(0.479901657715134,-0.877322289083246,0.));
#666=DIRECTION('',(0.,0.,1.));
#667=DIRECTION('',(-0.479901657715134,0.877322289083246,0.));
#668=DIRECTION('center_axis',(0.,0.,-1.));
#669=DIRECTION('ref_axis',(-0.877323439696752,-0.479899554238864,0.));
#670=DIRECTION('center_axis',(0.,0.,1.));
#671=DIRECTION('ref_axis',(-0.877323439696752,-0.479899554238864,0.));
#672=DIRECTION('',(0.,0.,1.));
#673=DIRECTION('center_axis',(0.,0.,-1.));
#674=DIRECTION('ref_axis',(-0.877323439696752,-0.479899554238864,0.));
#675=DIRECTION('center_axis',(-0.47990141383398,0.877322422487963,0.));
#676=DIRECTION('ref_axis',(0.877322422487963,0.47990141383398,0.));
#677=DIRECTION('',(-0.877322422487963,-0.47990141383398,0.));
#678=DIRECTION('',(0.,0.,1.));
#679=DIRECTION('',(0.877322422487963,0.47990141383398,0.));
#680=DIRECTION('center_axis',(0.,0.,-1.));
#681=DIRECTION('ref_axis',(-0.479901581643106,0.877322330695193,0.));
#682=DIRECTION('center_axis',(0.,0.,1.));
#683=DIRECTION('ref_axis',(-0.479901581643106,0.877322330695193,0.));
#684=DIRECTION('center_axis',(0.,0.,-1.));
#685=DIRECTION('ref_axis',(-0.479901581643106,0.877322330695193,0.));
#686=DIRECTION('center_axis',(0.,0.,-1.));
#687=DIRECTION('ref_axis',(0.877318697697763,0.47990822317387,0.));
#688=DIRECTION('',(0.,0.,1.));
#689=DIRECTION('center_axis',(0.,0.,1.));
#690=DIRECTION('ref_axis',(0.877318697697763,0.47990822317387,0.));
#691=DIRECTION('',(0.,0.,1.));
#692=DIRECTION('center_axis',(0.,0.,1.));
#693=DIRECTION('ref_axis',(0.877318697697763,0.47990822317387,0.));
#694=DIRECTION('center_axis',(0.479901973279958,-0.877322116466924,0.));
#695=DIRECTION('ref_axis',(-0.877322116466924,-0.479901973279958,0.));
#696=DIRECTION('',(0.877322116466924,0.479901973279958,0.));
#697=DIRECTION('',(0.,0.,1.));
#698=DIRECTION('',(-0.877322116466924,-0.479901973279958,0.));
#699=DIRECTION('center_axis',(0.,0.,-1.));
#700=DIRECTION('ref_axis',(-0.479906930233056,0.877319404957103,0.));
#701=DIRECTION('center_axis',(0.,0.,1.));
#702=DIRECTION('ref_axis',(-0.479906930233056,0.877319404957103,0.));
#703=DIRECTION('',(0.,0.,1.));
#704=DIRECTION('center_axis',(0.,0.,1.));
#705=DIRECTION('ref_axis',(-0.479906930233056,0.877319404957103,0.));
#706=DIRECTION('center_axis',(0.87732211948867,0.47990196775582,0.));
#707=DIRECTION('ref_axis',(0.47990196775582,-0.87732211948867,0.));
#708=DIRECTION('',(-0.47990196775582,0.87732211948867,0.));
#709=DIRECTION('',(0.,0.,1.));
#710=DIRECTION('',(0.47990196775582,-0.87732211948867,0.));
#711=DIRECTION('center_axis',(0.,0.,-1.));
#712=DIRECTION('ref_axis',(-0.877318697697763,-0.47990822317387,0.));
#713=DIRECTION('center_axis',(0.,0.,1.));
#714=DIRECTION('ref_axis',(-0.877318697697763,-0.47990822317387,0.));
#715=DIRECTION('',(0.,0.,1.));
#716=DIRECTION('center_axis',(0.,0.,1.));
#717=DIRECTION('ref_axis',(-0.877318697697763,-0.47990822317387,0.));
#718=DIRECTION('center_axis',(-0.47990196775582,0.87732211948867,0.));
#719=DIRECTION('ref_axis',(0.87732211948867,0.47990196775582,0.));
#720=DIRECTION('',(-0.87732211948867,-0.47990196775582,0.));
#721=DIRECTION('',(0.,0.,1.));
#722=DIRECTION('',(0.87732211948867,0.47990196775582,0.));
#723=DIRECTION('center_axis',(0.,0.,-1.));
#724=DIRECTION('ref_axis',(0.47990822317387,-0.877318697697763,0.));
#725=DIRECTION('center_axis',(0.,0.,1.));
#726=DIRECTION('ref_axis',(0.47990822317387,-0.877318697697763,0.));
#727=DIRECTION('',(0.,0.,1.));
#728=DIRECTION('center_axis',(0.,0.,1.));
#729=DIRECTION('ref_axis',(0.47990822317387,-0.877318697697763,0.));
#730=DIRECTION('center_axis',(-0.87732211948867,-0.47990196775582,0.));
#731=DIRECTION('ref_axis',(-0.47990196775582,0.87732211948867,0.));
#732=DIRECTION('',(0.47990196775582,-0.87732211948867,0.));
#733=DIRECTION('',(-0.47990196775582,0.87732211948867,0.));
#734=DIRECTION('center_axis',(0.,0.,-1.));
#735=DIRECTION('ref_axis',(0.923876193125593,0.382691494255832,0.));
#736=DIRECTION('',(0.,0.,1.));
#737=DIRECTION('center_axis',(0.,0.,1.));
#738=DIRECTION('ref_axis',(0.923876193125593,0.382691494255832,0.));
#739=DIRECTION('',(0.,0.,1.));
#740=DIRECTION('center_axis',(0.,0.,1.));
#741=DIRECTION('ref_axis',(0.923876193125593,0.382691494255832,0.));
#742=DIRECTION('center_axis',(0.382683431361922,-0.923879532926812,0.));
#743=DIRECTION('ref_axis',(-0.923879532926812,-0.382683431361922,0.));
#744=DIRECTION('',(0.923879532926812,0.382683431361922,0.));
#745=DIRECTION('',(0.,0.,1.));
#746=DIRECTION('',(-0.923879532926812,-0.382683431361922,0.));
#747=DIRECTION('center_axis',(0.,0.,-1.));
#748=DIRECTION('ref_axis',(-0.382683251589062,0.923879607391149,0.));
#749=DIRECTION('center_axis',(0.,0.,1.));
#750=DIRECTION('ref_axis',(-0.382683251589062,0.923879607391149,0.));
#751=DIRECTION('',(0.,0.,1.));
#752=DIRECTION('center_axis',(0.,0.,1.));
#753=DIRECTION('ref_axis',(-0.382683251589062,0.923879607391149,0.));
#754=DIRECTION('center_axis',(0.92387953947507,0.382683415553029,0.));
#755=DIRECTION('ref_axis',(0.382683415553029,-0.92387953947507,0.));
#756=DIRECTION('',(-0.382683415553029,0.92387953947507,0.));
#757=DIRECTION('',(0.,0.,1.));
#758=DIRECTION('',(0.382683415553029,-0.92387953947507,0.));
#759=DIRECTION('center_axis',(0.,0.,-1.));
#760=DIRECTION('ref_axis',(-0.923876193125593,-0.382691494255832,0.));
#761=DIRECTION('center_axis',(0.,0.,1.));
#762=DIRECTION('ref_axis',(-0.923876193125593,-0.382691494255832,0.));
#763=DIRECTION('',(0.,0.,1.));
#764=DIRECTION('center_axis',(0.,0.,1.));
#765=DIRECTION('ref_axis',(-0.923876193125593,-0.382691494255832,0.));
#766=DIRECTION('center_axis',(-0.382683415553029,0.92387953947507,0.));
#767=DIRECTION('ref_axis',(0.92387953947507,0.382683415553029,0.));
#768=DIRECTION('',(-0.92387953947507,-0.382683415553029,0.));
#769=DIRECTION('',(0.,0.,1.));
#770=DIRECTION('',(0.92387953947507,0.382683415553029,0.));
#771=DIRECTION('center_axis',(0.,0.,-1.));
#772=DIRECTION('ref_axis',(0.382691494255832,-0.923876193125593,0.));
#773=DIRECTION('center_axis',(0.,0.,1.));
#774=DIRECTION('ref_axis',(0.382691494255832,-0.923876193125593,0.));
#775=DIRECTION('',(0.,0.,1.));
#776=DIRECTION('center_axis',(0.,0.,1.));
#777=DIRECTION('ref_axis',(0.382691494255832,-0.923876193125593,0.));
#778=DIRECTION('center_axis',(-0.92387953947507,-0.382683415553029,0.));
#779=DIRECTION('ref_axis',(-0.382683415553029,0.92387953947507,0.));
#780=DIRECTION('',(0.382683415553029,-0.92387953947507,0.));
#781=DIRECTION('',(-0.382683415553029,0.92387953947507,0.));
#782=DIRECTION('center_axis',(0.,0.,1.));
#783=DIRECTION('ref_axis',(1.,0.,0.));
#784=DIRECTION('center_axis',(0.,0.,1.));
#785=DIRECTION('ref_axis',(1.,0.,0.));
#786=CARTESIAN_POINT('',(0.,0.,0.));
#787=CARTESIAN_POINT('Origin',(-88.76687417639,-59.09468224987,0.));
#788=CARTESIAN_POINT('',(-89.173486,-57.766465,0.));
#789=CARTESIAN_POINT('',(-89.173486,-57.766465,1.2));
#790=CARTESIAN_POINT('',(-89.173486,-57.766465,0.));
#791=CARTESIAN_POINT('',(-87.579323,-59.815249,1.2));
#792=CARTESIAN_POINT('Origin',(-88.76687417639,-59.09468224987,1.2));
#793=CARTESIAN_POINT('',(-87.579323,-59.815249,0.));
#794=CARTESIAN_POINT('',(-87.579323,-59.815249,0.));
#795=CARTESIAN_POINT('Origin',(-88.76687417639,-59.09468224987,0.));
#796=CARTESIAN_POINT('Origin',(-75.70381663419,-67.02091887673,0.));
#797=CARTESIAN_POINT('',(-86.256776,-76.053326,1.2));
#798=CARTESIAN_POINT('Origin',(-75.70381663419,-67.02091887673,1.2));
#799=CARTESIAN_POINT('',(-86.256776,-76.053326,0.));
#800=CARTESIAN_POINT('',(-86.256776,-76.053326,0.));
#801=CARTESIAN_POINT('Origin',(-75.70381663419,-67.02091887673,0.));
#802=CARTESIAN_POINT('Origin',(-87.31207176503,-76.95656599943,0.));
#803=CARTESIAN_POINT('',(-86.875913,-78.275375,1.2));
#804=CARTESIAN_POINT('Origin',(-87.31207176503,-76.95656599943,1.2));
#805=CARTESIAN_POINT('',(-86.875913,-78.275375,0.));
#806=CARTESIAN_POINT('',(-86.875913,-78.275375,0.));
#807=CARTESIAN_POINT('Origin',(-87.31207176503,-76.95656599943,0.));
#808=CARTESIAN_POINT('Origin',(-33.33692615,-240.1600672596,0.));
#809=CARTESIAN_POINT('',(-115.164132,-90.569342,1.2));
#810=CARTESIAN_POINT('Origin',(-33.33692615,-240.1600672596,1.2));
#811=CARTESIAN_POINT('',(-115.164132,-90.569342,0.));
#812=CARTESIAN_POINT('',(-115.164132,-90.569342,0.));
#813=CARTESIAN_POINT('Origin',(-33.33692615,-240.1600672596,0.));
#814=CARTESIAN_POINT('Origin',(-115.164132,-90.569342,0.));
#815=CARTESIAN_POINT('',(-120.735128,-93.616718,1.2));
#816=CARTESIAN_POINT('',(-51.7774073483473,-55.8963349790327,1.2));
#817=CARTESIAN_POINT('',(-120.735128,-93.616718,0.));
#818=CARTESIAN_POINT('',(-120.735128,-93.616718,0.));
#819=CARTESIAN_POINT('',(-115.164132,-90.569342,0.));
#820=CARTESIAN_POINT('Origin',(-122.5445089569,-90.30894689056,0.));
#821=CARTESIAN_POINT('',(-125.852286,-92.118317,1.2));
#822=CARTESIAN_POINT('Origin',(-122.5445089569,-90.30894689056,1.2));
#823=CARTESIAN_POINT('',(-125.852286,-92.118317,0.));
#824=CARTESIAN_POINT('',(-125.852286,-92.118317,0.));
#825=CARTESIAN_POINT('Origin',(-122.5445089569,-90.30894689056,0.));
#826=CARTESIAN_POINT('Origin',(-125.852286,-92.118317,0.));
#827=CARTESIAN_POINT('',(-133.089803,-78.8872,1.2));
#828=CARTESIAN_POINT('',(-130.752257583267,-83.1605353029297,1.2));
#829=CARTESIAN_POINT('',(-133.089803,-78.8872,0.));
#830=CARTESIAN_POINT('',(-133.089803,-78.8872,0.));
#831=CARTESIAN_POINT('',(-125.852286,-92.118317,0.));
#832=CARTESIAN_POINT('Origin',(-131.8711424405,-78.2205876279,0.));
#833=CARTESIAN_POINT('',(-132.537762,-77.001931,1.2));
#834=CARTESIAN_POINT('Origin',(-131.8711424405,-78.2205876279,1.2));
#835=CARTESIAN_POINT('',(-132.537762,-77.001931,0.));
#836=CARTESIAN_POINT('',(-132.537762,-77.001931,0.));
#837=CARTESIAN_POINT('Origin',(-131.8711424405,-78.2205876279,0.));
#838=CARTESIAN_POINT('Origin',(-132.537762,-77.001931,0.));
#839=CARTESIAN_POINT('',(-124.877641,-72.811792,1.2));
#840=CARTESIAN_POINT('',(-65.3209650253803,-40.2338796261003,1.2));
#841=CARTESIAN_POINT('',(-124.877641,-72.811792,0.));
#842=CARTESIAN_POINT('',(-124.877641,-72.811792,0.));
#843=CARTESIAN_POINT('',(-132.537762,-77.001931,0.));
#844=CARTESIAN_POINT('Origin',(-33.33689178739,-240.1601536741,0.));
#845=CARTESIAN_POINT('Origin',(-33.33689178739,-240.1601536741,1.2));
#846=CARTESIAN_POINT('Origin',(-33.33689178739,-240.1601536741,0.));
#847=CARTESIAN_POINT('Origin',(-117.4173984393,-72.80018370813,0.));
#848=CARTESIAN_POINT('',(-116.978738,-72.560229,0.));
#849=CARTESIAN_POINT('',(-116.978738,-72.560229,1.2));
#850=CARTESIAN_POINT('',(-116.978738,-72.560229,0.));
#851=CARTESIAN_POINT('',(-117.657349,-72.361521,1.2));
#852=CARTESIAN_POINT('Origin',(-117.4173984393,-72.80018370813,1.2));
#853=CARTESIAN_POINT('',(-117.657349,-72.361521,0.));
#854=CARTESIAN_POINT('',(-117.657349,-72.361521,0.));
#855=CARTESIAN_POINT('Origin',(-117.4173984393,-72.80018370813,0.));
#856=CARTESIAN_POINT('Origin',(-117.657349,-72.361521,0.));
#857=CARTESIAN_POINT('',(-129.150269,-78.648237,1.2));
#858=CARTESIAN_POINT('',(-57.1441300802241,-39.2603229063379,1.2));
#859=CARTESIAN_POINT('',(-129.150269,-78.648237,0.));
#860=CARTESIAN_POINT('',(-129.150269,-78.648237,0.));
#861=CARTESIAN_POINT('',(-117.657349,-72.361521,0.));
#862=CARTESIAN_POINT('Origin',(-128.9103142195,-79.08689910697,0.));
#863=CARTESIAN_POINT('',(-129.348979,-79.326849,1.2));
#864=CARTESIAN_POINT('Origin',(-128.9103142195,-79.08689910697,1.2));
#865=CARTESIAN_POINT('',(-129.348979,-79.326849,0.));
#866=CARTESIAN_POINT('',(-129.348979,-79.326849,0.));
#867=CARTESIAN_POINT('Origin',(-128.9103142195,-79.08689910697,0.));
#868=CARTESIAN_POINT('Origin',(-129.348979,-79.326849,0.));
#869=CARTESIAN_POINT('',(-123.062262,-90.819771,1.2));
#870=CARTESIAN_POINT('',(-131.153499120094,-76.0279556367909,1.2));
#871=CARTESIAN_POINT('',(-123.062262,-90.819771,0.));
#872=CARTESIAN_POINT('',(-123.062262,-90.819771,0.));
#873=CARTESIAN_POINT('',(-129.348979,-79.326849,0.));
#874=CARTESIAN_POINT('Origin',(-122.6236015606,-90.57981629186,0.));
#875=CARTESIAN_POINT('',(-122.383651,-91.018479,1.2));
#876=CARTESIAN_POINT('Origin',(-122.6236015606,-90.57981629186,1.2));
#877=CARTESIAN_POINT('',(-122.383651,-91.018479,0.));
#878=CARTESIAN_POINT('',(-122.383651,-91.018479,0.));
#879=CARTESIAN_POINT('Origin',(-122.6236015606,-90.57981629186,0.));
#880=CARTESIAN_POINT('Origin',(-122.383651,-91.018479,0.));
#881=CARTESIAN_POINT('',(-110.890729,-84.731762,1.2));
#882=CARTESIAN_POINT('',(-56.1239719451435,-54.7739233744931,1.2));
#883=CARTESIAN_POINT('',(-110.890729,-84.731762,0.));
#884=CARTESIAN_POINT('',(-110.890729,-84.731762,0.));
#885=CARTESIAN_POINT('',(-122.383651,-91.018479,0.));
#886=CARTESIAN_POINT('Origin',(-111.1306837081,-84.2931015606,0.));
#887=CARTESIAN_POINT('',(-110.692021,-84.053151,1.2));
#888=CARTESIAN_POINT('Origin',(-111.1306837081,-84.2931015606,1.2));
#889=CARTESIAN_POINT('',(-110.692021,-84.053151,0.));
#890=CARTESIAN_POINT('',(-110.692021,-84.053151,0.));
#891=CARTESIAN_POINT('Origin',(-111.1306837081,-84.2931015606,0.));
#892=CARTESIAN_POINT('Origin',(-110.692021,-84.053151,0.));
#893=CARTESIAN_POINT('',(-115.639899043572,-75.0077976907443,1.2));
#894=CARTESIAN_POINT('',(-110.692021,-84.053151,0.));
#895=CARTESIAN_POINT('Origin',(-98.915666,-64.72301412135,0.));
#896=CARTESIAN_POINT('',(-98.453727,-64.531668,0.));
#897=CARTESIAN_POINT('',(-98.453727,-64.531668,1.2));
#898=CARTESIAN_POINT('',(-98.453727,-64.531668,0.));
#899=CARTESIAN_POINT('',(-99.107007,-64.261073,1.2));
#900=CARTESIAN_POINT('Origin',(-98.915666,-64.72301412135,1.2));
#901=CARTESIAN_POINT('',(-99.107007,-64.261073,0.));
#902=CARTESIAN_POINT('',(-99.107007,-64.261073,0.));
#903=CARTESIAN_POINT('Origin',(-98.915666,-64.72301412135,0.));
#904=CARTESIAN_POINT('Origin',(-99.107007,-64.261073,0.));
#905=CARTESIAN_POINT('',(-111.209829,-69.274226,1.2));
#906=CARTESIAN_POINT('',(-45.4505859372662,-42.0358557556716,1.2));
#907=CARTESIAN_POINT('',(-111.209829,-69.274226,0.));
#908=CARTESIAN_POINT('',(-111.209829,-69.274226,0.));
#909=CARTESIAN_POINT('',(-99.107007,-64.261073,0.));
#910=CARTESIAN_POINT('Origin',(-111.0184875,-69.7361655,0.));
#911=CARTESIAN_POINT('',(-111.480427,-69.927507,1.2));
#912=CARTESIAN_POINT('Origin',(-111.0184875,-69.7361655,1.2));
#913=CARTESIAN_POINT('',(-111.480427,-69.927507,0.));
#914=CARTESIAN_POINT('',(-111.480427,-69.927507,0.));
#915=CARTESIAN_POINT('Origin',(-111.0184875,-69.7361655,0.));
#916=CARTESIAN_POINT('Origin',(-111.480427,-69.927507,0.));
#917=CARTESIAN_POINT('',(-106.467273,-82.030332,1.2));
#918=CARTESIAN_POINT('',(-115.679015590449,-59.7912169604018,1.2));
#919=CARTESIAN_POINT('',(-106.467273,-82.030332,0.));
#920=CARTESIAN_POINT('',(-106.467273,-82.030332,0.));
#921=CARTESIAN_POINT('',(-111.480427,-69.927507,0.));
#922=CARTESIAN_POINT('Origin',(-106.005334,-81.83898587864,0.));
#923=CARTESIAN_POINT('',(-105.813993,-82.300927,1.2));
#924=CARTESIAN_POINT('Origin',(-106.005334,-81.83898587864,1.2));
#925=CARTESIAN_POINT('',(-105.813993,-82.300927,0.));
#926=CARTESIAN_POINT('',(-105.813993,-82.300927,0.));
#927=CARTESIAN_POINT('Origin',(-106.005334,-81.83898587864,0.));
#928=CARTESIAN_POINT('Origin',(-105.813993,-82.300927,0.));
#929=CARTESIAN_POINT('',(-93.711168,-77.287773,1.2));
#930=CARTESIAN_POINT('',(-46.1061607051329,-57.5691343565027,1.2));
#931=CARTESIAN_POINT('',(-93.711168,-77.287773,0.));
#932=CARTESIAN_POINT('',(-93.711168,-77.287773,0.));
#933=CARTESIAN_POINT('',(-105.813993,-82.300927,0.));
#934=CARTESIAN_POINT('Origin',(-93.90251412135,-76.825834,0.));
#935=CARTESIAN_POINT('',(-93.440573,-76.634493,1.2));
#936=CARTESIAN_POINT('Origin',(-93.90251412135,-76.825834,1.2));
#937=CARTESIAN_POINT('',(-93.440573,-76.634493,0.));
#938=CARTESIAN_POINT('',(-93.440573,-76.634493,0.));
#939=CARTESIAN_POINT('Origin',(-93.90251412135,-76.825834,0.));
#940=CARTESIAN_POINT('Origin',(-93.440573,-76.634493,0.));
#941=CARTESIAN_POINT('',(-100.145737977963,-60.4467919390795,1.2));
#942=CARTESIAN_POINT('',(-93.440573,-76.634493,0.));
#943=CARTESIAN_POINT('Origin',(0.,0.,0.));
#944=CARTESIAN_POINT('Origin',(0.,0.,1.2));
#945=UNCERTAINTY_MEASURE_WITH_UNIT(LENGTH_MEASURE(0.01),#949,
'DISTANCE_ACCURACY_VALUE',
'Maximum model space distance between geometric entities at asserted c
onnectivities');
#946=UNCERTAINTY_MEASURE_WITH_UNIT(LENGTH_MEASURE(0.01),#949,
'DISTANCE_ACCURACY_VALUE',
'Maximum model space distance between geometric entities at asserted c
onnectivities');
#947=(
GEOMETRIC_REPRESENTATION_CONTEXT(3)
GLOBAL_UNCERTAINTY_ASSIGNED_CONTEXT((#945))
GLOBAL_UNIT_ASSIGNED_CONTEXT((#949,#951,#952))
REPRESENTATION_CONTEXT('','3D')
);
#948=(
GEOMETRIC_REPRESENTATION_CONTEXT(3)
GLOBAL_UNCERTAINTY_ASSIGNED_CONTEXT((#946))
GLOBAL_UNIT_ASSIGNED_CONTEXT((#949,#951,#952))
REPRESENTATION_CONTEXT('','3D')
);
#949=(
LENGTH_UNIT()
NAMED_UNIT(*)
SI_UNIT(.MILLI.,.METRE.)
);
#950=(
LENGTH_UNIT()
NAMED_UNIT(*)
SI_UNIT($,.METRE.)
);
#951=(
NAMED_UNIT(*)
PLANE_ANGLE_UNIT()
SI_UNIT($,.RADIAN.)
);
#952=(
NAMED_UNIT(*)
SI_UNIT($,.STERADIAN.)
SOLID_ANGLE_UNIT()
);
#953=SHAPE_DEFINITION_REPRESENTATION(#954,#955);
#954=PRODUCT_DEFINITION_SHAPE('',$,#957);
#955=SHAPE_REPRESENTATION('',(#561),#947);
#956=PRODUCT_DEFINITION_CONTEXT('part definition',#961,'design');
#957=PRODUCT_DEFINITION('bif7BD0_PCB','bif7BD0_PCB',#958,#956);
#958=PRODUCT_DEFINITION_FORMATION('',$,#963);
#959=PRODUCT_RELATED_PRODUCT_CATEGORY('bif7BD0_PCB','bif7BD0_PCB',(#963));
#960=APPLICATION_PROTOCOL_DEFINITION('international standard',
'automotive_design',2009,#961);
#961=APPLICATION_CONTEXT(
'Core Data for Automotive Mechanical Design Process');
#962=PRODUCT_CONTEXT('part definition',#961,'mechanical');
#963=PRODUCT('bif7BD0_PCB','bif7BD0_PCB',$,(#962));
#964=PRESENTATION_STYLE_ASSIGNMENT((#967));
#965=PRESENTATION_STYLE_ASSIGNMENT((#968));
#966=PRESENTATION_STYLE_ASSIGNMENT((#969));
#967=SURFACE_STYLE_USAGE(.BOTH.,#970);
#968=SURFACE_STYLE_USAGE(.BOTH.,#971);
#969=SURFACE_STYLE_USAGE(.BOTH.,#972);
#970=SURFACE_SIDE_STYLE('',(#973));
#971=SURFACE_SIDE_STYLE('',(#974));
#972=SURFACE_SIDE_STYLE('',(#975));
#973=SURFACE_STYLE_FILL_AREA(#976);
#974=SURFACE_STYLE_FILL_AREA(#977);
#975=SURFACE_STYLE_FILL_AREA(#978);
#976=FILL_AREA_STYLE('\X2\92FC\X0\ - \X2\30B530C630F3\X0\',(#979));
#977=FILL_AREA_STYLE('\X2\30A230EB30DF30CB30A630E0\X0\ - \X2\92F39020\X0\',
(#980));
#978=FILL_AREA_STYLE('\X2\30B330FC30C630A330F330B0\X0\ - \X2\9ED267D33081\X0\',
(#981));
#979=FILL_AREA_STYLE_COLOUR('\X2\92FC\X0\ - \X2\30B530C630F3\X0\',#982);
#980=FILL_AREA_STYLE_COLOUR('\X2\30A230EB30DF30CB30A630E0\X0\ - \X2\92F39020\X0\',
#983);
#981=FILL_AREA_STYLE_COLOUR('\X2\30B330FC30C630A330F330B0\X0\ - \X2\9ED267D33081\X0\',
#984);
#982=COLOUR_RGB('\X2\92FC\X0\ - \X2\30B530C630F3\X0\',0.627450980392157,
0.627450980392157,0.627450980392157);
#983=COLOUR_RGB('\X2\30A230EB30DF30CB30A630E0\X0\ - \X2\92F39020\X0\',0.96078431372549,
0.96078431372549,0.964705882352941);
#984=COLOUR_RGB('\X2\30B330FC30C630A330F330B0\X0\ - \X2\9ED267D33081\X0\',
0.250980392156863,0.250980392156863,0.250980392156863);
ENDSEC;
END-ISO-10303-21;
