ISO-10303-21;
HEADER;
FILE_DESCRIPTION(('KiCad electronic assembly'),'2;1');
FILE_NAME('bifrost_left_thumb_plate.step','2026-08-03T10:20:42',(
    'Pcbnew'),('Kicad'),'Open CASCADE STEP processor 7.9',
  'KiCad to STEP converter','Unknown');
FILE_SCHEMA(('AUTOMOTIVE_DESIGN { 1 0 10303 214 1 1 1 1 }'));
ENDSEC;
DATA;
#1 = APPLICATION_PROTOCOL_DEFINITION('international standard',
  'automotive_design',2000,#2);
#2 = APPLICATION_CONTEXT(
  'core data for automotive mechanical design processes');
#3 = SHAPE_DEFINITION_REPRESENTATION(#4,#10);
#4 = PRODUCT_DEFINITION_SHAPE('','',#5);
#5 = PRODUCT_DEFINITION('design','',#6,#9);
#6 = PRODUCT_DEFINITION_FORMATION('','',#7);
#7 = PRODUCT('bifrost_left_thumb_plate 1','bifrost_left_thumb_plate 1',
  '',(#8));
#8 = PRODUCT_CONTEXT('',#2,'mechanical');
#9 = PRODUCT_DEFINITION_CONTEXT('part definition',#2,'design');
#10 = SHAPE_REPRESENTATION('',(#11,#15),#19);
#11 = AXIS2_PLACEMENT_3D('',#12,#13,#14);
#12 = CARTESIAN_POINT('',(0.,0.,0.));
#13 = DIRECTION('',(0.,0.,1.));
#14 = DIRECTION('',(1.,0.,-0.));
#15 = AXIS2_PLACEMENT_3D('',#16,#17,#18);
#16 = CARTESIAN_POINT('',(0.,0.,0.));
#17 = DIRECTION('',(0.,0.,1.));
#18 = DIRECTION('',(1.,0.,-0.));
#19 = ( GEOMETRIC_REPRESENTATION_CONTEXT(3) 
GLOBAL_UNCERTAINTY_ASSIGNED_CONTEXT((#23)) GLOBAL_UNIT_ASSIGNED_CONTEXT(
(#20,#21,#22)) REPRESENTATION_CONTEXT('Context #1',
  '3D Context with UNIT and UNCERTAINTY') );
#20 = ( LENGTH_UNIT() NAMED_UNIT(*) SI_UNIT(.MILLI.,.METRE.) );
#21 = ( NAMED_UNIT(*) PLANE_ANGLE_UNIT() SI_UNIT($,.RADIAN.) );
#22 = ( NAMED_UNIT(*) SI_UNIT($,.STERADIAN.) SOLID_ANGLE_UNIT() );
#23 = UNCERTAINTY_MEASURE_WITH_UNIT(LENGTH_MEASURE(1.E-07),#20,
  'distance_accuracy_value','confusion accuracy');
#24 = PRODUCT_RELATED_PRODUCT_CATEGORY('part',$,(#7));
#25 = SHAPE_DEFINITION_REPRESENTATION(#26,#32);
#26 = PRODUCT_DEFINITION_SHAPE('','',#27);
#27 = PRODUCT_DEFINITION('design','',#28,#31);
#28 = PRODUCT_DEFINITION_FORMATION('','',#29);
#29 = PRODUCT('bifrost_left_thumb_plate_PCB',
  'bifrost_left_thumb_plate_PCB','',(#30));
#30 = PRODUCT_CONTEXT('',#2,'mechanical');
#31 = PRODUCT_DEFINITION_CONTEXT('part definition',#2,'design');
#32 = ADVANCED_BREP_SHAPE_REPRESENTATION('',(#11,#33),#1221);
#33 = MANIFOLD_SOLID_BREP('',#34);
#34 = CLOSED_SHELL('',(#35,#77,#110,#141,#174,#205,#238,#269,#302,#335,
    #357,#399,#430,#463,#494,#527,#558,#591,#613,#655,#686,#719,#750,
    #783,#814,#847,#869,#911,#942,#975,#1006,#1039,#1070,#1103,#1125,
    #1173));
#35 = ADVANCED_FACE('',(#36),#72,.T.);
#36 = FACE_BOUND('',#37,.T.);
#37 = EDGE_LOOP('',(#38,#48,#57,#65));
#38 = ORIENTED_EDGE('',*,*,#39,.T.);
#39 = EDGE_CURVE('',#40,#42,#44,.T.);
#40 = VERTEX_POINT('',#41);
#41 = CARTESIAN_POINT('',(66.573985,-55.692499,0.));
#42 = VERTEX_POINT('',#43);
#43 = CARTESIAN_POINT('',(66.573985,-55.692499,1.51));
#44 = LINE('',#45,#46);
#45 = CARTESIAN_POINT('',(66.573985,-55.692499,0.));
#46 = VECTOR('',#47,1.);
#47 = DIRECTION('',(0.,0.,1.));
#48 = ORIENTED_EDGE('',*,*,#49,.T.);
#49 = EDGE_CURVE('',#42,#50,#52,.T.);
#50 = VERTEX_POINT('',#51);
#51 = CARTESIAN_POINT('',(68.249774,-54.659595,1.51));
#52 = CIRCLE('',#53,1.38907319292);
#53 = AXIS2_PLACEMENT_3D('',#54,#55,#56);
#54 = CARTESIAN_POINT('',(67.926179895567,-56.0104507254,1.51));
#55 = DIRECTION('',(0.,0.,-1.));
#56 = DIRECTION('',(-0.97345114891,0.228894868195,0.));
#57 = ORIENTED_EDGE('',*,*,#58,.F.);
#58 = EDGE_CURVE('',#59,#50,#61,.T.);
#59 = VERTEX_POINT('',#60);
#60 = CARTESIAN_POINT('',(68.249774,-54.659595,0.));
#61 = LINE('',#62,#63);
#62 = CARTESIAN_POINT('',(68.249774,-54.659595,0.));
#63 = VECTOR('',#64,1.);
#64 = DIRECTION('',(0.,0.,1.));
#65 = ORIENTED_EDGE('',*,*,#66,.F.);
#66 = EDGE_CURVE('',#40,#59,#67,.T.);
#67 = CIRCLE('',#68,1.38907319292);
#68 = AXIS2_PLACEMENT_3D('',#69,#70,#71);
#69 = CARTESIAN_POINT('',(67.926179895567,-56.0104507254,0.));
#70 = DIRECTION('',(0.,0.,-1.));
#71 = DIRECTION('',(-0.97345114891,0.228894868195,0.));
#72 = CYLINDRICAL_SURFACE('',#73,1.38907319292);
#73 = AXIS2_PLACEMENT_3D('',#74,#75,#76);
#74 = CARTESIAN_POINT('',(67.926179895567,-56.0104507254,0.));
#75 = DIRECTION('',(0.,0.,-1.));
#76 = DIRECTION('',(-0.97345114891,0.228894868195,0.));
#77 = ADVANCED_FACE('',(#78),#105,.T.);
#78 = FACE_BOUND('',#79,.T.);
#79 = EDGE_LOOP('',(#80,#81,#90,#98));
#80 = ORIENTED_EDGE('',*,*,#58,.T.);
#81 = ORIENTED_EDGE('',*,*,#82,.T.);
#82 = EDGE_CURVE('',#50,#83,#85,.T.);
#83 = VERTEX_POINT('',#84);
#84 = CARTESIAN_POINT('',(115.352476,-72.811701,1.51));
#85 = CIRCLE('',#86,190.74902918424);
#86 = AXIS2_PLACEMENT_3D('',#87,#88,#89);
#87 = CARTESIAN_POINT('',(23.811887878228,-240.1601783191,1.51));
#88 = DIRECTION('',(0.,0.,-1.));
#89 = DIRECTION('',(0.232965202034,0.97248507168,0.));
#90 = ORIENTED_EDGE('',*,*,#91,.F.);
#91 = EDGE_CURVE('',#92,#83,#94,.T.);
#92 = VERTEX_POINT('',#93);
#93 = CARTESIAN_POINT('',(115.352476,-72.811701,0.));
#94 = LINE('',#95,#96);
#95 = CARTESIAN_POINT('',(115.352476,-72.811701,0.));
#96 = VECTOR('',#97,1.);
#97 = DIRECTION('',(0.,0.,1.));
#98 = ORIENTED_EDGE('',*,*,#99,.F.);
#99 = EDGE_CURVE('',#59,#92,#100,.T.);
#100 = CIRCLE('',#101,190.74902918424);
#101 = AXIS2_PLACEMENT_3D('',#102,#103,#104);
#102 = CARTESIAN_POINT('',(23.811887878228,-240.1601783191,0.));
#103 = DIRECTION('',(0.,0.,-1.));
#104 = DIRECTION('',(0.232965202034,0.97248507168,0.));
#105 = CYLINDRICAL_SURFACE('',#106,190.74902918424);
#106 = AXIS2_PLACEMENT_3D('',#107,#108,#109);
#107 = CARTESIAN_POINT('',(23.811887878228,-240.1601783191,0.));
#108 = DIRECTION('',(0.,0.,-1.));
#109 = DIRECTION('',(0.232965202034,0.97248507168,0.));
#110 = ADVANCED_FACE('',(#111),#136,.T.);
#111 = FACE_BOUND('',#112,.T.);
#112 = EDGE_LOOP('',(#113,#114,#122,#130));
#113 = ORIENTED_EDGE('',*,*,#91,.T.);
#114 = ORIENTED_EDGE('',*,*,#115,.T.);
#115 = EDGE_CURVE('',#83,#116,#118,.T.);
#116 = VERTEX_POINT('',#117);
#117 = CARTESIAN_POINT('',(123.01276,-77.001932,1.51));
#118 = LINE('',#119,#120);
#119 = CARTESIAN_POINT('',(115.352476,-72.811701,1.51));
#120 = VECTOR('',#121,1.);
#121 = DIRECTION('',(0.877322285646,-0.479901663999,0.));
#122 = ORIENTED_EDGE('',*,*,#123,.F.);
#123 = EDGE_CURVE('',#124,#116,#126,.T.);
#124 = VERTEX_POINT('',#125);
#125 = CARTESIAN_POINT('',(123.01276,-77.001932,0.));
#126 = LINE('',#127,#128);
#127 = CARTESIAN_POINT('',(123.01276,-77.001932,0.));
#128 = VECTOR('',#129,1.);
#129 = DIRECTION('',(0.,0.,1.));
#130 = ORIENTED_EDGE('',*,*,#131,.F.);
#131 = EDGE_CURVE('',#92,#124,#132,.T.);
#132 = LINE('',#133,#134);
#133 = CARTESIAN_POINT('',(115.352476,-72.811701,0.));
#134 = VECTOR('',#135,1.);
#135 = DIRECTION('',(0.877322285646,-0.479901663999,0.));
#136 = PLANE('',#137);
#137 = AXIS2_PLACEMENT_3D('',#138,#139,#140);
#138 = CARTESIAN_POINT('',(115.352476,-72.811701,0.));
#139 = DIRECTION('',(0.479901663999,0.877322285646,-0.));
#140 = DIRECTION('',(0.877322285646,-0.479901663999,0.));
#141 = ADVANCED_FACE('',(#142),#169,.T.);
#142 = FACE_BOUND('',#143,.T.);
#143 = EDGE_LOOP('',(#144,#145,#154,#162));
#144 = ORIENTED_EDGE('',*,*,#123,.T.);
#145 = ORIENTED_EDGE('',*,*,#146,.T.);
#146 = EDGE_CURVE('',#116,#147,#149,.T.);
#147 = VERTEX_POINT('',#148);
#148 = CARTESIAN_POINT('',(123.564802,-78.887201,1.51));
#149 = CIRCLE('',#150,1.389062639407);
#150 = AXIS2_PLACEMENT_3D('',#151,#152,#153);
#151 = CARTESIAN_POINT('',(122.34614638757,-78.22058753292,1.51));
#152 = DIRECTION('',(0.,0.,-1.));
#153 = DIRECTION('',(0.479901765059,0.877322230365,0.));
#154 = ORIENTED_EDGE('',*,*,#155,.F.);
#155 = EDGE_CURVE('',#156,#147,#158,.T.);
#156 = VERTEX_POINT('',#157);
#157 = CARTESIAN_POINT('',(123.564802,-78.887201,0.));
#158 = LINE('',#159,#160);
#159 = CARTESIAN_POINT('',(123.564802,-78.887201,0.));
#160 = VECTOR('',#161,1.);
#161 = DIRECTION('',(0.,0.,1.));
#162 = ORIENTED_EDGE('',*,*,#163,.F.);
#163 = EDGE_CURVE('',#124,#156,#164,.T.);
#164 = CIRCLE('',#165,1.389062639407);
#165 = AXIS2_PLACEMENT_3D('',#166,#167,#168);
#166 = CARTESIAN_POINT('',(122.34614638757,-78.22058753292,0.));
#167 = DIRECTION('',(0.,0.,-1.));
#168 = DIRECTION('',(0.479901765059,0.877322230365,0.));
#169 = CYLINDRICAL_SURFACE('',#170,1.389062639407);
#170 = AXIS2_PLACEMENT_3D('',#171,#172,#173);
#171 = CARTESIAN_POINT('',(122.34614638757,-78.22058753292,0.));
#172 = DIRECTION('',(0.,0.,-1.));
#173 = DIRECTION('',(0.479901765059,0.877322230365,0.));
#174 = ADVANCED_FACE('',(#175),#200,.T.);
#175 = FACE_BOUND('',#176,.T.);
#176 = EDGE_LOOP('',(#177,#178,#186,#194));
#177 = ORIENTED_EDGE('',*,*,#155,.T.);
#178 = ORIENTED_EDGE('',*,*,#179,.T.);
#179 = EDGE_CURVE('',#147,#180,#182,.T.);
#180 = VERTEX_POINT('',#181);
#181 = CARTESIAN_POINT('',(116.327285,-92.118318,1.51));
#182 = LINE('',#183,#184);
#183 = CARTESIAN_POINT('',(123.564802,-78.887201,1.51));
#184 = VECTOR('',#185,1.);
#185 = DIRECTION('',(-0.479901657715,-0.877322289083,0.));
#186 = ORIENTED_EDGE('',*,*,#187,.F.);
#187 = EDGE_CURVE('',#188,#180,#190,.T.);
#188 = VERTEX_POINT('',#189);
#189 = CARTESIAN_POINT('',(116.327285,-92.118318,0.));
#190 = LINE('',#191,#192);
#191 = CARTESIAN_POINT('',(116.327285,-92.118318,0.));
#192 = VECTOR('',#193,1.);
#193 = DIRECTION('',(0.,0.,1.));
#194 = ORIENTED_EDGE('',*,*,#195,.F.);
#195 = EDGE_CURVE('',#156,#188,#196,.T.);
#196 = LINE('',#197,#198);
#197 = CARTESIAN_POINT('',(123.564802,-78.887201,0.));
#198 = VECTOR('',#199,1.);
#199 = DIRECTION('',(-0.479901657715,-0.877322289083,0.));
#200 = PLANE('',#201);
#201 = AXIS2_PLACEMENT_3D('',#202,#203,#204);
#202 = CARTESIAN_POINT('',(123.564802,-78.887201,0.));
#203 = DIRECTION('',(0.877322289083,-0.479901657715,0.));
#204 = DIRECTION('',(-0.479901657715,-0.877322289083,0.));
#205 = ADVANCED_FACE('',(#206),#233,.T.);
#206 = FACE_BOUND('',#207,.T.);
#207 = EDGE_LOOP('',(#208,#209,#218,#226));
#208 = ORIENTED_EDGE('',*,*,#187,.T.);
#209 = ORIENTED_EDGE('',*,*,#210,.T.);
#210 = EDGE_CURVE('',#180,#211,#213,.T.);
#211 = VERTEX_POINT('',#212);
#212 = CARTESIAN_POINT('',(111.210128,-93.616717,1.51));
#213 = CIRCLE('',#214,3.770307739828);
#214 = AXIS2_PLACEMENT_3D('',#215,#216,#217);
#215 = CARTESIAN_POINT('',(113.01950843407,-90.30894389747,1.51));
#216 = DIRECTION('',(-0.,0.,-1.));
#217 = DIRECTION('',(0.877322699945,-0.479900906606,-0.));
#218 = ORIENTED_EDGE('',*,*,#219,.F.);
#219 = EDGE_CURVE('',#220,#211,#222,.T.);
#220 = VERTEX_POINT('',#221);
#221 = CARTESIAN_POINT('',(111.210128,-93.616717,0.));
#222 = LINE('',#223,#224);
#223 = CARTESIAN_POINT('',(111.210128,-93.616717,0.));
#224 = VECTOR('',#225,1.);
#225 = DIRECTION('',(0.,0.,1.));
#226 = ORIENTED_EDGE('',*,*,#227,.F.);
#227 = EDGE_CURVE('',#188,#220,#228,.T.);
#228 = CIRCLE('',#229,3.770307739828);
#229 = AXIS2_PLACEMENT_3D('',#230,#231,#232);
#230 = CARTESIAN_POINT('',(113.01950843407,-90.30894389747,0.));
#231 = DIRECTION('',(-0.,0.,-1.));
#232 = DIRECTION('',(0.877322699945,-0.479900906606,-0.));
#233 = CYLINDRICAL_SURFACE('',#234,3.770307739828);
#234 = AXIS2_PLACEMENT_3D('',#235,#236,#237);
#235 = CARTESIAN_POINT('',(113.01950843407,-90.30894389747,0.));
#236 = DIRECTION('',(-0.,0.,-1.));
#237 = DIRECTION('',(0.877322699945,-0.479900906606,-0.));
#238 = ADVANCED_FACE('',(#239),#264,.T.);
#239 = FACE_BOUND('',#240,.T.);
#240 = EDGE_LOOP('',(#241,#242,#250,#258));
#241 = ORIENTED_EDGE('',*,*,#219,.T.);
#242 = ORIENTED_EDGE('',*,*,#243,.T.);
#243 = EDGE_CURVE('',#211,#244,#246,.T.);
#244 = VERTEX_POINT('',#245);
#245 = CARTESIAN_POINT('',(105.63913,-90.569343,1.51));
#246 = LINE('',#247,#248);
#247 = CARTESIAN_POINT('',(111.210128,-93.616717,1.51));
#248 = VECTOR('',#249,1.);
#249 = DIRECTION('',(-0.877322443404,0.479901375597,0.));
#250 = ORIENTED_EDGE('',*,*,#251,.F.);
#251 = EDGE_CURVE('',#252,#244,#254,.T.);
#252 = VERTEX_POINT('',#253);
#253 = CARTESIAN_POINT('',(105.63913,-90.569343,0.));
#254 = LINE('',#255,#256);
#255 = CARTESIAN_POINT('',(105.63913,-90.569343,0.));
#256 = VECTOR('',#257,1.);
#257 = DIRECTION('',(0.,0.,1.));
#258 = ORIENTED_EDGE('',*,*,#259,.F.);
#259 = EDGE_CURVE('',#220,#252,#260,.T.);
#260 = LINE('',#261,#262);
#261 = CARTESIAN_POINT('',(111.210128,-93.616717,0.));
#262 = VECTOR('',#263,1.);
#263 = DIRECTION('',(-0.877322443404,0.479901375597,0.));
#264 = PLANE('',#265);
#265 = AXIS2_PLACEMENT_3D('',#266,#267,#268);
#266 = CARTESIAN_POINT('',(111.210128,-93.616717,0.));
#267 = DIRECTION('',(-0.479901375597,-0.877322443404,0.));
#268 = DIRECTION('',(-0.877322443404,0.479901375597,0.));
#269 = ADVANCED_FACE('',(#270),#297,.F.);
#270 = FACE_BOUND('',#271,.T.);
#271 = EDGE_LOOP('',(#272,#273,#282,#290));
#272 = ORIENTED_EDGE('',*,*,#251,.T.);
#273 = ORIENTED_EDGE('',*,*,#274,.T.);
#274 = EDGE_CURVE('',#244,#275,#277,.T.);
#275 = VERTEX_POINT('',#276);
#276 = CARTESIAN_POINT('',(63.605021,-74.360231,1.51));
#277 = CIRCLE('',#278,170.50836900846);
#278 = AXIS2_PLACEMENT_3D('',#279,#280,#281);
#279 = CARTESIAN_POINT('',(23.811896265116,-240.1601439244,1.51));
#280 = DIRECTION('',(0.,0.,1.));
#281 = DIRECTION('',(0.479901568531,0.877322337867,-0.));
#282 = ORIENTED_EDGE('',*,*,#283,.F.);
#283 = EDGE_CURVE('',#284,#275,#286,.T.);
#284 = VERTEX_POINT('',#285);
#285 = CARTESIAN_POINT('',(63.605021,-74.360231,0.));
#286 = LINE('',#287,#288);
#287 = CARTESIAN_POINT('',(63.605021,-74.360231,0.));
#288 = VECTOR('',#289,1.);
#289 = DIRECTION('',(0.,0.,1.));
#290 = ORIENTED_EDGE('',*,*,#291,.F.);
#291 = EDGE_CURVE('',#252,#284,#292,.T.);
#292 = CIRCLE('',#293,170.50836900846);
#293 = AXIS2_PLACEMENT_3D('',#294,#295,#296);
#294 = CARTESIAN_POINT('',(23.811896265116,-240.1601439244,0.));
#295 = DIRECTION('',(0.,0.,1.));
#296 = DIRECTION('',(0.479901568531,0.877322337867,-0.));
#297 = CYLINDRICAL_SURFACE('',#298,170.50836900846);
#298 = AXIS2_PLACEMENT_3D('',#299,#300,#301);
#299 = CARTESIAN_POINT('',(23.811896265116,-240.1601439244,0.));
#300 = DIRECTION('',(-0.,-0.,-1.));
#301 = DIRECTION('',(0.479901568531,0.877322337867,-0.));
#302 = ADVANCED_FACE('',(#303),#330,.T.);
#303 = FACE_BOUND('',#304,.T.);
#304 = EDGE_LOOP('',(#305,#306,#315,#323));
#305 = ORIENTED_EDGE('',*,*,#283,.T.);
#306 = ORIENTED_EDGE('',*,*,#307,.T.);
#307 = EDGE_CURVE('',#275,#308,#310,.T.);
#308 = VERTEX_POINT('',#309);
#309 = CARTESIAN_POINT('',(62.577013,-72.691589,1.51));
#310 = CIRCLE('',#311,1.389105964096);
#311 = AXIS2_PLACEMENT_3D('',#312,#313,#314);
#312 = CARTESIAN_POINT('',(63.929252450761,-73.0094944062,1.51));
#313 = DIRECTION('',(0.,0.,-1.));
#314 = DIRECTION('',(-0.233410163905,-0.972378370484,-0.));
#315 = ORIENTED_EDGE('',*,*,#316,.F.);
#316 = EDGE_CURVE('',#317,#308,#319,.T.);
#317 = VERTEX_POINT('',#318);
#318 = CARTESIAN_POINT('',(62.577013,-72.691589,0.));
#319 = LINE('',#320,#321);
#320 = CARTESIAN_POINT('',(62.577013,-72.691589,0.));
#321 = VECTOR('',#322,1.);
#322 = DIRECTION('',(0.,0.,1.));
#323 = ORIENTED_EDGE('',*,*,#324,.F.);
#324 = EDGE_CURVE('',#284,#317,#325,.T.);
#325 = CIRCLE('',#326,1.389105964096);
#326 = AXIS2_PLACEMENT_3D('',#327,#328,#329);
#327 = CARTESIAN_POINT('',(63.929252450761,-73.0094944062,0.));
#328 = DIRECTION('',(0.,0.,-1.));
#329 = DIRECTION('',(-0.233410163905,-0.972378370484,-0.));
#330 = CYLINDRICAL_SURFACE('',#331,1.389105964096);
#331 = AXIS2_PLACEMENT_3D('',#332,#333,#334);
#332 = CARTESIAN_POINT('',(63.929252450761,-73.0094944062,0.));
#333 = DIRECTION('',(0.,0.,-1.));
#334 = DIRECTION('',(-0.233410163905,-0.972378370484,-0.));
#335 = ADVANCED_FACE('',(#336),#352,.T.);
#336 = FACE_BOUND('',#337,.T.);
#337 = EDGE_LOOP('',(#338,#339,#345,#346));
#338 = ORIENTED_EDGE('',*,*,#316,.T.);
#339 = ORIENTED_EDGE('',*,*,#340,.T.);
#340 = EDGE_CURVE('',#308,#42,#341,.T.);
#341 = LINE('',#342,#343);
#342 = CARTESIAN_POINT('',(62.577013,-72.691589,1.51));
#343 = VECTOR('',#344,1.);
#344 = DIRECTION('',(0.228886646992,0.973453081986,0.));
#345 = ORIENTED_EDGE('',*,*,#39,.F.);
#346 = ORIENTED_EDGE('',*,*,#347,.F.);
#347 = EDGE_CURVE('',#317,#40,#348,.T.);
#348 = LINE('',#349,#350);
#349 = CARTESIAN_POINT('',(62.577013,-72.691589,0.));
#350 = VECTOR('',#351,1.);
#351 = DIRECTION('',(0.228886646992,0.973453081986,0.));
#352 = PLANE('',#353);
#353 = AXIS2_PLACEMENT_3D('',#354,#355,#356);
#354 = CARTESIAN_POINT('',(62.577013,-72.691589,0.));
#355 = DIRECTION('',(-0.973453081986,0.228886646992,0.));
#356 = DIRECTION('',(0.228886646992,0.973453081986,0.));
#357 = ADVANCED_FACE('',(#358),#394,.F.);
#358 = FACE_BOUND('',#359,.T.);
#359 = EDGE_LOOP('',(#360,#370,#379,#387));
#360 = ORIENTED_EDGE('',*,*,#361,.T.);
#361 = EDGE_CURVE('',#362,#364,#366,.T.);
#362 = VERTEX_POINT('',#363);
#363 = CARTESIAN_POINT('',(108.133349,-72.361521,0.));
#364 = VERTEX_POINT('',#365);
#365 = CARTESIAN_POINT('',(108.133349,-72.361521,1.51));
#366 = LINE('',#367,#368);
#367 = CARTESIAN_POINT('',(108.133349,-72.361521,0.));
#368 = VECTOR('',#369,1.);
#369 = DIRECTION('',(0.,0.,1.));
#370 = ORIENTED_EDGE('',*,*,#371,.T.);
#371 = EDGE_CURVE('',#364,#372,#374,.T.);
#372 = VERTEX_POINT('',#373);
#373 = CARTESIAN_POINT('',(107.454737,-72.560231,1.51));
#374 = CIRCLE('',#375,0.500002740729);
#375 = AXIS2_PLACEMENT_3D('',#376,#377,#378);
#376 = CARTESIAN_POINT('',(107.89339910697,-72.80018578041,1.51));
#377 = DIRECTION('',(0.,0.,1.));
#378 = DIRECTION('',(0.479897155517,0.877324751803,-0.));
#379 = ORIENTED_EDGE('',*,*,#380,.F.);
#380 = EDGE_CURVE('',#381,#372,#383,.T.);
#381 = VERTEX_POINT('',#382);
#382 = CARTESIAN_POINT('',(107.454737,-72.560231,0.));
#383 = LINE('',#384,#385);
#384 = CARTESIAN_POINT('',(107.454737,-72.560231,0.));
#385 = VECTOR('',#386,1.);
#386 = DIRECTION('',(0.,0.,1.));
#387 = ORIENTED_EDGE('',*,*,#388,.F.);
#388 = EDGE_CURVE('',#362,#381,#389,.T.);
#389 = CIRCLE('',#390,0.500002740729);
#390 = AXIS2_PLACEMENT_3D('',#391,#392,#393);
#391 = CARTESIAN_POINT('',(107.89339910697,-72.80018578041,0.));
#392 = DIRECTION('',(0.,0.,1.));
#393 = DIRECTION('',(0.479897155517,0.877324751803,-0.));
#394 = CYLINDRICAL_SURFACE('',#395,0.500002740729);
#395 = AXIS2_PLACEMENT_3D('',#396,#397,#398);
#396 = CARTESIAN_POINT('',(107.89339910697,-72.80018578041,0.));
#397 = DIRECTION('',(-0.,-0.,-1.));
#398 = DIRECTION('',(0.479897155517,0.877324751803,-0.));
#399 = ADVANCED_FACE('',(#400),#425,.T.);
#400 = FACE_BOUND('',#401,.T.);
#401 = EDGE_LOOP('',(#402,#403,#411,#419));
#402 = ORIENTED_EDGE('',*,*,#380,.T.);
#403 = ORIENTED_EDGE('',*,*,#404,.T.);
#404 = EDGE_CURVE('',#372,#405,#407,.T.);
#405 = VERTEX_POINT('',#406);
#406 = CARTESIAN_POINT('',(101.16802,-84.053154,1.51));
#407 = LINE('',#408,#409);
#408 = CARTESIAN_POINT('',(107.454737,-72.560231,1.51));
#409 = VECTOR('',#410,1.);
#410 = DIRECTION('',(-0.479901935616,-0.877322137069,0.));
#411 = ORIENTED_EDGE('',*,*,#412,.F.);
#412 = EDGE_CURVE('',#413,#405,#415,.T.);
#413 = VERTEX_POINT('',#414);
#414 = CARTESIAN_POINT('',(101.16802,-84.053154,0.));
#415 = LINE('',#416,#417);
#416 = CARTESIAN_POINT('',(101.16802,-84.053154,0.));
#417 = VECTOR('',#418,1.);
#418 = DIRECTION('',(0.,0.,1.));
#419 = ORIENTED_EDGE('',*,*,#420,.F.);
#420 = EDGE_CURVE('',#381,#413,#421,.T.);
#421 = LINE('',#422,#423);
#422 = CARTESIAN_POINT('',(107.454737,-72.560231,0.));
#423 = VECTOR('',#424,1.);
#424 = DIRECTION('',(-0.479901935616,-0.877322137069,0.));
#425 = PLANE('',#426);
#426 = AXIS2_PLACEMENT_3D('',#427,#428,#429);
#427 = CARTESIAN_POINT('',(107.454737,-72.560231,0.));
#428 = DIRECTION('',(0.877322137069,-0.479901935616,0.));
#429 = DIRECTION('',(-0.479901935616,-0.877322137069,0.));
#430 = ADVANCED_FACE('',(#431),#458,.F.);
#431 = FACE_BOUND('',#432,.T.);
#432 = EDGE_LOOP('',(#433,#434,#443,#451));
#433 = ORIENTED_EDGE('',*,*,#412,.T.);
#434 = ORIENTED_EDGE('',*,*,#435,.T.);
#435 = EDGE_CURVE('',#405,#436,#438,.T.);
#436 = VERTEX_POINT('',#437);
#437 = CARTESIAN_POINT('',(101.366731,-84.731763,1.51));
#438 = CIRCLE('',#439,0.500001102249);
#439 = AXIS2_PLACEMENT_3D('',#440,#441,#442);
#440 = CARTESIAN_POINT('',(101.60668405001,-84.29310181407,1.51));
#441 = DIRECTION('',(0.,0.,1.));
#442 = DIRECTION('',(-0.87732616596,0.479894570215,0.));
#443 = ORIENTED_EDGE('',*,*,#444,.F.);
#444 = EDGE_CURVE('',#445,#436,#447,.T.);
#445 = VERTEX_POINT('',#446);
#446 = CARTESIAN_POINT('',(101.366731,-84.731763,0.));
#447 = LINE('',#448,#449);
#448 = CARTESIAN_POINT('',(101.366731,-84.731763,0.));
#449 = VECTOR('',#450,1.);
#450 = DIRECTION('',(0.,0.,1.));
#451 = ORIENTED_EDGE('',*,*,#452,.F.);
#452 = EDGE_CURVE('',#413,#445,#453,.T.);
#453 = CIRCLE('',#454,0.500001102249);
#454 = AXIS2_PLACEMENT_3D('',#455,#456,#457);
#455 = CARTESIAN_POINT('',(101.60668405001,-84.29310181407,0.));
#456 = DIRECTION('',(0.,0.,1.));
#457 = DIRECTION('',(-0.87732616596,0.479894570215,0.));
#458 = CYLINDRICAL_SURFACE('',#459,0.500001102249);
#459 = AXIS2_PLACEMENT_3D('',#460,#461,#462);
#460 = CARTESIAN_POINT('',(101.60668405001,-84.29310181407,0.));
#461 = DIRECTION('',(-0.,-0.,-1.));
#462 = DIRECTION('',(-0.87732616596,0.479894570215,0.));
#463 = ADVANCED_FACE('',(#464),#489,.T.);
#464 = FACE_BOUND('',#465,.T.);
#465 = EDGE_LOOP('',(#466,#467,#475,#483));
#466 = ORIENTED_EDGE('',*,*,#444,.T.);
#467 = ORIENTED_EDGE('',*,*,#468,.T.);
#468 = EDGE_CURVE('',#436,#469,#471,.T.);
#469 = VERTEX_POINT('',#470);
#470 = CARTESIAN_POINT('',(112.859654,-91.01848,1.51));
#471 = LINE('',#472,#473);
#472 = CARTESIAN_POINT('',(101.366731,-84.731763,1.51));
#473 = VECTOR('',#474,1.);
#474 = DIRECTION('',(0.877322137069,-0.479901935616,0.));
#475 = ORIENTED_EDGE('',*,*,#476,.F.);
#476 = EDGE_CURVE('',#477,#469,#479,.T.);
#477 = VERTEX_POINT('',#478);
#478 = CARTESIAN_POINT('',(112.859654,-91.01848,0.));
#479 = LINE('',#480,#481);
#480 = CARTESIAN_POINT('',(112.859654,-91.01848,0.));
#481 = VECTOR('',#482,1.);
#482 = DIRECTION('',(0.,0.,1.));
#483 = ORIENTED_EDGE('',*,*,#484,.F.);
#484 = EDGE_CURVE('',#445,#477,#485,.T.);
#485 = LINE('',#486,#487);
#486 = CARTESIAN_POINT('',(101.366731,-84.731763,0.));
#487 = VECTOR('',#488,1.);
#488 = DIRECTION('',(0.877322137069,-0.479901935616,0.));
#489 = PLANE('',#490);
#490 = AXIS2_PLACEMENT_3D('',#491,#492,#493);
#491 = CARTESIAN_POINT('',(101.366731,-84.731763,0.));
#492 = DIRECTION('',(0.479901935616,0.877322137069,-0.));
#493 = DIRECTION('',(0.877322137069,-0.479901935616,0.));
#494 = ADVANCED_FACE('',(#495),#522,.F.);
#495 = FACE_BOUND('',#496,.T.);
#496 = EDGE_LOOP('',(#497,#498,#507,#515));
#497 = ORIENTED_EDGE('',*,*,#476,.T.);
#498 = ORIENTED_EDGE('',*,*,#499,.T.);
#499 = EDGE_CURVE('',#469,#500,#502,.T.);
#500 = VERTEX_POINT('',#501);
#501 = CARTESIAN_POINT('',(113.538263,-90.819769,1.51));
#502 = CIRCLE('',#503,0.500001102249);
#503 = AXIS2_PLACEMENT_3D('',#504,#505,#506);
#504 = CARTESIAN_POINT('',(113.09960181407,-90.57981594998,1.51));
#505 = DIRECTION('',(0.,0.,1.));
#506 = DIRECTION('',(-0.479894570215,-0.87732616596,0.));
#507 = ORIENTED_EDGE('',*,*,#508,.F.);
#508 = EDGE_CURVE('',#509,#500,#511,.T.);
#509 = VERTEX_POINT('',#510);
#510 = CARTESIAN_POINT('',(113.538263,-90.819769,0.));
#511 = LINE('',#512,#513);
#512 = CARTESIAN_POINT('',(113.538263,-90.819769,0.));
#513 = VECTOR('',#514,1.);
#514 = DIRECTION('',(0.,0.,1.));
#515 = ORIENTED_EDGE('',*,*,#516,.F.);
#516 = EDGE_CURVE('',#477,#509,#517,.T.);
#517 = CIRCLE('',#518,0.500001102249);
#518 = AXIS2_PLACEMENT_3D('',#519,#520,#521);
#519 = CARTESIAN_POINT('',(113.09960181407,-90.57981594998,0.));
#520 = DIRECTION('',(0.,0.,1.));
#521 = DIRECTION('',(-0.479894570215,-0.87732616596,0.));
#522 = CYLINDRICAL_SURFACE('',#523,0.500001102249);
#523 = AXIS2_PLACEMENT_3D('',#524,#525,#526);
#524 = CARTESIAN_POINT('',(113.09960181407,-90.57981594998,0.));
#525 = DIRECTION('',(-0.,-0.,-1.));
#526 = DIRECTION('',(-0.479894570215,-0.87732616596,0.));
#527 = ADVANCED_FACE('',(#528),#553,.T.);
#528 = FACE_BOUND('',#529,.T.);
#529 = EDGE_LOOP('',(#530,#531,#539,#547));
#530 = ORIENTED_EDGE('',*,*,#508,.T.);
#531 = ORIENTED_EDGE('',*,*,#532,.T.);
#532 = EDGE_CURVE('',#500,#533,#535,.T.);
#533 = VERTEX_POINT('',#534);
#534 = CARTESIAN_POINT('',(119.82498,-79.326846,1.51));
#535 = LINE('',#536,#537);
#536 = CARTESIAN_POINT('',(113.538263,-90.819769,1.51));
#537 = VECTOR('',#538,1.);
#538 = DIRECTION('',(0.479901935616,0.877322137069,0.));
#539 = ORIENTED_EDGE('',*,*,#540,.F.);
#540 = EDGE_CURVE('',#541,#533,#543,.T.);
#541 = VERTEX_POINT('',#542);
#542 = CARTESIAN_POINT('',(119.82498,-79.326846,0.));
#543 = LINE('',#544,#545);
#544 = CARTESIAN_POINT('',(119.82498,-79.326846,0.));
#545 = VECTOR('',#546,1.);
#546 = DIRECTION('',(0.,0.,1.));
#547 = ORIENTED_EDGE('',*,*,#548,.F.);
#548 = EDGE_CURVE('',#509,#541,#549,.T.);
#549 = LINE('',#550,#551);
#550 = CARTESIAN_POINT('',(113.538263,-90.819769,0.));
#551 = VECTOR('',#552,1.);
#552 = DIRECTION('',(0.479901935616,0.877322137069,0.));
#553 = PLANE('',#554);
#554 = AXIS2_PLACEMENT_3D('',#555,#556,#557);
#555 = CARTESIAN_POINT('',(113.538263,-90.819769,0.));
#556 = DIRECTION('',(-0.877322137069,0.479901935616,0.));
#557 = DIRECTION('',(0.479901935616,0.877322137069,0.));
#558 = ADVANCED_FACE('',(#559),#586,.F.);
#559 = FACE_BOUND('',#560,.T.);
#560 = EDGE_LOOP('',(#561,#562,#571,#579));
#561 = ORIENTED_EDGE('',*,*,#540,.T.);
#562 = ORIENTED_EDGE('',*,*,#563,.T.);
#563 = EDGE_CURVE('',#533,#564,#566,.T.);
#564 = VERTEX_POINT('',#565);
#565 = CARTESIAN_POINT('',(119.626269,-78.648237,1.51));
#566 = CIRCLE('',#567,0.500001102249);
#567 = AXIS2_PLACEMENT_3D('',#568,#569,#570);
#568 = CARTESIAN_POINT('',(119.38631594998,-79.08689818592,1.51));
#569 = DIRECTION('',(0.,-0.,1.));
#570 = DIRECTION('',(0.87732616596,-0.479894570215,-0.));
#571 = ORIENTED_EDGE('',*,*,#572,.F.);
#572 = EDGE_CURVE('',#573,#564,#575,.T.);
#573 = VERTEX_POINT('',#574);
#574 = CARTESIAN_POINT('',(119.626269,-78.648237,0.));
#575 = LINE('',#576,#577);
#576 = CARTESIAN_POINT('',(119.626269,-78.648237,0.));
#577 = VECTOR('',#578,1.);
#578 = DIRECTION('',(0.,0.,1.));
#579 = ORIENTED_EDGE('',*,*,#580,.F.);
#580 = EDGE_CURVE('',#541,#573,#581,.T.);
#581 = CIRCLE('',#582,0.500001102249);
#582 = AXIS2_PLACEMENT_3D('',#583,#584,#585);
#583 = CARTESIAN_POINT('',(119.38631594998,-79.08689818592,0.));
#584 = DIRECTION('',(0.,-0.,1.));
#585 = DIRECTION('',(0.87732616596,-0.479894570215,-0.));
#586 = CYLINDRICAL_SURFACE('',#587,0.500001102249);
#587 = AXIS2_PLACEMENT_3D('',#588,#589,#590);
#588 = CARTESIAN_POINT('',(119.38631594998,-79.08689818592,0.));
#589 = DIRECTION('',(-0.,0.,-1.));
#590 = DIRECTION('',(0.87732616596,-0.479894570215,-0.));
#591 = ADVANCED_FACE('',(#592),#608,.T.);
#592 = FACE_BOUND('',#593,.T.);
#593 = EDGE_LOOP('',(#594,#595,#601,#602));
#594 = ORIENTED_EDGE('',*,*,#572,.T.);
#595 = ORIENTED_EDGE('',*,*,#596,.T.);
#596 = EDGE_CURVE('',#564,#364,#597,.T.);
#597 = LINE('',#598,#599);
#598 = CARTESIAN_POINT('',(119.626269,-78.648237,1.51));
#599 = VECTOR('',#600,1.);
#600 = DIRECTION('',(-0.877322116467,0.47990197328,0.));
#601 = ORIENTED_EDGE('',*,*,#361,.F.);
#602 = ORIENTED_EDGE('',*,*,#603,.F.);
#603 = EDGE_CURVE('',#573,#362,#604,.T.);
#604 = LINE('',#605,#606);
#605 = CARTESIAN_POINT('',(119.626269,-78.648237,0.));
#606 = VECTOR('',#607,1.);
#607 = DIRECTION('',(-0.877322116467,0.47990197328,0.));
#608 = PLANE('',#609);
#609 = AXIS2_PLACEMENT_3D('',#610,#611,#612);
#610 = CARTESIAN_POINT('',(119.626269,-78.648237,0.));
#611 = DIRECTION('',(-0.47990197328,-0.877322116467,0.));
#612 = DIRECTION('',(-0.877322116467,0.47990197328,0.));
#613 = ADVANCED_FACE('',(#614),#650,.F.);
#614 = FACE_BOUND('',#615,.T.);
#615 = EDGE_LOOP('',(#616,#626,#635,#643));
#616 = ORIENTED_EDGE('',*,*,#617,.T.);
#617 = EDGE_CURVE('',#618,#620,#622,.T.);
#618 = VERTEX_POINT('',#619);
#619 = CARTESIAN_POINT('',(89.582007,-64.261073,0.));
#620 = VERTEX_POINT('',#621);
#621 = CARTESIAN_POINT('',(89.582007,-64.261073,1.51));
#622 = LINE('',#623,#624);
#623 = CARTESIAN_POINT('',(89.582007,-64.261073,0.));
#624 = VECTOR('',#625,1.);
#625 = DIRECTION('',(0.,0.,1.));
#626 = ORIENTED_EDGE('',*,*,#627,.T.);
#627 = EDGE_CURVE('',#620,#628,#630,.T.);
#628 = VERTEX_POINT('',#629);
#629 = CARTESIAN_POINT('',(88.928726,-64.531671,1.51));
#630 = CIRCLE('',#631,0.499999671282);
#631 = AXIS2_PLACEMENT_3D('',#632,#633,#634);
#632 = CARTESIAN_POINT('',(89.3906655,-64.7230125,1.51));
#633 = DIRECTION('',(0.,0.,1.));
#634 = DIRECTION('',(0.382683251589,0.923879607391,-0.));
#635 = ORIENTED_EDGE('',*,*,#636,.F.);
#636 = EDGE_CURVE('',#637,#628,#639,.T.);
#637 = VERTEX_POINT('',#638);
#638 = CARTESIAN_POINT('',(88.928726,-64.531671,0.));
#639 = LINE('',#640,#641);
#640 = CARTESIAN_POINT('',(88.928726,-64.531671,0.));
#641 = VECTOR('',#642,1.);
#642 = DIRECTION('',(0.,0.,1.));
#643 = ORIENTED_EDGE('',*,*,#644,.F.);
#644 = EDGE_CURVE('',#618,#637,#645,.T.);
#645 = CIRCLE('',#646,0.499999671282);
#646 = AXIS2_PLACEMENT_3D('',#647,#648,#649);
#647 = CARTESIAN_POINT('',(89.3906655,-64.7230125,0.));
#648 = DIRECTION('',(0.,0.,1.));
#649 = DIRECTION('',(0.382683251589,0.923879607391,-0.));
#650 = CYLINDRICAL_SURFACE('',#651,0.499999671282);
#651 = AXIS2_PLACEMENT_3D('',#652,#653,#654);
#652 = CARTESIAN_POINT('',(89.3906655,-64.7230125,0.));
#653 = DIRECTION('',(-0.,-0.,-1.));
#654 = DIRECTION('',(0.382683251589,0.923879607391,-0.));
#655 = ADVANCED_FACE('',(#656),#681,.T.);
#656 = FACE_BOUND('',#657,.T.);
#657 = EDGE_LOOP('',(#658,#659,#667,#675));
#658 = ORIENTED_EDGE('',*,*,#636,.T.);
#659 = ORIENTED_EDGE('',*,*,#660,.T.);
#660 = EDGE_CURVE('',#628,#661,#663,.T.);
#661 = VERTEX_POINT('',#662);
#662 = CARTESIAN_POINT('',(83.915572,-76.634496,1.51));
#663 = LINE('',#664,#665);
#664 = CARTESIAN_POINT('',(88.928726,-64.531671,1.51));
#665 = VECTOR('',#666,1.);
#666 = DIRECTION('',(-0.382683415553,-0.923879539475,0.));
#667 = ORIENTED_EDGE('',*,*,#668,.F.);
#668 = EDGE_CURVE('',#669,#661,#671,.T.);
#669 = VERTEX_POINT('',#670);
#670 = CARTESIAN_POINT('',(83.915572,-76.634496,0.));
#671 = LINE('',#672,#673);
#672 = CARTESIAN_POINT('',(83.915572,-76.634496,0.));
#673 = VECTOR('',#674,1.);
#674 = DIRECTION('',(0.,0.,1.));
#675 = ORIENTED_EDGE('',*,*,#676,.F.);
#676 = EDGE_CURVE('',#637,#669,#677,.T.);
#677 = LINE('',#678,#679);
#678 = CARTESIAN_POINT('',(88.928726,-64.531671,0.));
#679 = VECTOR('',#680,1.);
#680 = DIRECTION('',(-0.382683415553,-0.923879539475,0.));
#681 = PLANE('',#682);
#682 = AXIS2_PLACEMENT_3D('',#683,#684,#685);
#683 = CARTESIAN_POINT('',(88.928726,-64.531671,0.));
#684 = DIRECTION('',(0.923879539475,-0.382683415553,0.));
#685 = DIRECTION('',(-0.382683415553,-0.923879539475,0.));
#686 = ADVANCED_FACE('',(#687),#714,.F.);
#687 = FACE_BOUND('',#688,.T.);
#688 = EDGE_LOOP('',(#689,#690,#699,#707));
#689 = ORIENTED_EDGE('',*,*,#668,.T.);
#690 = ORIENTED_EDGE('',*,*,#691,.T.);
#691 = EDGE_CURVE('',#661,#692,#694,.T.);
#692 = VERTEX_POINT('',#693);
#693 = CARTESIAN_POINT('',(84.186171,-77.287774,1.51));
#694 = CIRCLE('',#695,0.500000595191);
#695 = AXIS2_PLACEMENT_3D('',#696,#697,#698);
#696 = CARTESIAN_POINT('',(84.377513914235,-76.82583408576,1.51));
#697 = DIRECTION('',(0.,0.,1.));
#698 = DIRECTION('',(-0.923882728697,0.382675716,0.));
#699 = ORIENTED_EDGE('',*,*,#700,.F.);
#700 = EDGE_CURVE('',#701,#692,#703,.T.);
#701 = VERTEX_POINT('',#702);
#702 = CARTESIAN_POINT('',(84.186171,-77.287774,0.));
#703 = LINE('',#704,#705);
#704 = CARTESIAN_POINT('',(84.186171,-77.287774,0.));
#705 = VECTOR('',#706,1.);
#706 = DIRECTION('',(0.,0.,1.));
#707 = ORIENTED_EDGE('',*,*,#708,.F.);
#708 = EDGE_CURVE('',#669,#701,#709,.T.);
#709 = CIRCLE('',#710,0.500000595191);
#710 = AXIS2_PLACEMENT_3D('',#711,#712,#713);
#711 = CARTESIAN_POINT('',(84.377513914235,-76.82583408576,0.));
#712 = DIRECTION('',(0.,0.,1.));
#713 = DIRECTION('',(-0.923882728697,0.382675716,0.));
#714 = CYLINDRICAL_SURFACE('',#715,0.500000595191);
#715 = AXIS2_PLACEMENT_3D('',#716,#717,#718);
#716 = CARTESIAN_POINT('',(84.377513914235,-76.82583408576,0.));
#717 = DIRECTION('',(-0.,-0.,-1.));
#718 = DIRECTION('',(-0.923882728697,0.382675716,0.));
#719 = ADVANCED_FACE('',(#720),#745,.T.);
#720 = FACE_BOUND('',#721,.T.);
#721 = EDGE_LOOP('',(#722,#723,#731,#739));
#722 = ORIENTED_EDGE('',*,*,#700,.T.);
#723 = ORIENTED_EDGE('',*,*,#724,.T.);
#724 = EDGE_CURVE('',#692,#725,#727,.T.);
#725 = VERTEX_POINT('',#726);
#726 = CARTESIAN_POINT('',(96.288996,-82.300928,1.51));
#727 = LINE('',#728,#729);
#728 = CARTESIAN_POINT('',(84.186171,-77.287774,1.51));
#729 = VECTOR('',#730,1.);
#730 = DIRECTION('',(0.923879539475,-0.382683415553,0.));
#731 = ORIENTED_EDGE('',*,*,#732,.F.);
#732 = EDGE_CURVE('',#733,#725,#735,.T.);
#733 = VERTEX_POINT('',#734);
#734 = CARTESIAN_POINT('',(96.288996,-82.300928,0.));
#735 = LINE('',#736,#737);
#736 = CARTESIAN_POINT('',(96.288996,-82.300928,0.));
#737 = VECTOR('',#738,1.);
#738 = DIRECTION('',(0.,0.,1.));
#739 = ORIENTED_EDGE('',*,*,#740,.F.);
#740 = EDGE_CURVE('',#701,#733,#741,.T.);
#741 = LINE('',#742,#743);
#742 = CARTESIAN_POINT('',(84.186171,-77.287774,0.));
#743 = VECTOR('',#744,1.);
#744 = DIRECTION('',(0.923879539475,-0.382683415553,0.));
#745 = PLANE('',#746);
#746 = AXIS2_PLACEMENT_3D('',#747,#748,#749);
#747 = CARTESIAN_POINT('',(84.186171,-77.287774,0.));
#748 = DIRECTION('',(0.382683415553,0.923879539475,-0.));
#749 = DIRECTION('',(0.923879539475,-0.382683415553,0.));
#750 = ADVANCED_FACE('',(#751),#778,.F.);
#751 = FACE_BOUND('',#752,.T.);
#752 = EDGE_LOOP('',(#753,#754,#763,#771));
#753 = ORIENTED_EDGE('',*,*,#732,.T.);
#754 = ORIENTED_EDGE('',*,*,#755,.T.);
#755 = EDGE_CURVE('',#725,#756,#758,.T.);
#756 = VERTEX_POINT('',#757);
#757 = CARTESIAN_POINT('',(96.942274,-82.030329,1.51));
#758 = CIRCLE('',#759,0.500000595191);
#759 = AXIS2_PLACEMENT_3D('',#760,#761,#762);
#760 = CARTESIAN_POINT('',(96.480334085765,-81.83898608576,1.51));
#761 = DIRECTION('',(0.,0.,1.));
#762 = DIRECTION('',(-0.382675716,-0.923882728697,0.));
#763 = ORIENTED_EDGE('',*,*,#764,.F.);
#764 = EDGE_CURVE('',#765,#756,#767,.T.);
#765 = VERTEX_POINT('',#766);
#766 = CARTESIAN_POINT('',(96.942274,-82.030329,0.));
#767 = LINE('',#768,#769);
#768 = CARTESIAN_POINT('',(96.942274,-82.030329,0.));
#769 = VECTOR('',#770,1.);
#770 = DIRECTION('',(0.,0.,1.));
#771 = ORIENTED_EDGE('',*,*,#772,.F.);
#772 = EDGE_CURVE('',#733,#765,#773,.T.);
#773 = CIRCLE('',#774,0.500000595191);
#774 = AXIS2_PLACEMENT_3D('',#775,#776,#777);
#775 = CARTESIAN_POINT('',(96.480334085765,-81.83898608576,0.));
#776 = DIRECTION('',(0.,0.,1.));
#777 = DIRECTION('',(-0.382675716,-0.923882728697,0.));
#778 = CYLINDRICAL_SURFACE('',#779,0.500000595191);
#779 = AXIS2_PLACEMENT_3D('',#780,#781,#782);
#780 = CARTESIAN_POINT('',(96.480334085765,-81.83898608576,0.));
#781 = DIRECTION('',(-0.,-0.,-1.));
#782 = DIRECTION('',(-0.382675716,-0.923882728697,0.));
#783 = ADVANCED_FACE('',(#784),#809,.T.);
#784 = FACE_BOUND('',#785,.T.);
#785 = EDGE_LOOP('',(#786,#787,#795,#803));
#786 = ORIENTED_EDGE('',*,*,#764,.T.);
#787 = ORIENTED_EDGE('',*,*,#788,.T.);
#788 = EDGE_CURVE('',#756,#789,#791,.T.);
#789 = VERTEX_POINT('',#790);
#790 = CARTESIAN_POINT('',(101.955428,-69.927504,1.51));
#791 = LINE('',#792,#793);
#792 = CARTESIAN_POINT('',(96.942274,-82.030329,1.51));
#793 = VECTOR('',#794,1.);
#794 = DIRECTION('',(0.382683415553,0.923879539475,0.));
#795 = ORIENTED_EDGE('',*,*,#796,.F.);
#796 = EDGE_CURVE('',#797,#789,#799,.T.);
#797 = VERTEX_POINT('',#798);
#798 = CARTESIAN_POINT('',(101.955428,-69.927504,0.));
#799 = LINE('',#800,#801);
#800 = CARTESIAN_POINT('',(101.955428,-69.927504,0.));
#801 = VECTOR('',#802,1.);
#802 = DIRECTION('',(0.,0.,1.));
#803 = ORIENTED_EDGE('',*,*,#804,.F.);
#804 = EDGE_CURVE('',#765,#797,#805,.T.);
#805 = LINE('',#806,#807);
#806 = CARTESIAN_POINT('',(96.942274,-82.030329,0.));
#807 = VECTOR('',#808,1.);
#808 = DIRECTION('',(0.382683415553,0.923879539475,0.));
#809 = PLANE('',#810);
#810 = AXIS2_PLACEMENT_3D('',#811,#812,#813);
#811 = CARTESIAN_POINT('',(96.942274,-82.030329,0.));
#812 = DIRECTION('',(-0.923879539475,0.382683415553,0.));
#813 = DIRECTION('',(0.382683415553,0.923879539475,0.));
#814 = ADVANCED_FACE('',(#815),#842,.F.);
#815 = FACE_BOUND('',#816,.T.);
#816 = EDGE_LOOP('',(#817,#818,#827,#835));
#817 = ORIENTED_EDGE('',*,*,#796,.T.);
#818 = ORIENTED_EDGE('',*,*,#819,.T.);
#819 = EDGE_CURVE('',#789,#820,#822,.T.);
#820 = VERTEX_POINT('',#821);
#821 = CARTESIAN_POINT('',(101.684829,-69.274226,1.51));
#822 = CIRCLE('',#823,0.500000595191);
#823 = AXIS2_PLACEMENT_3D('',#824,#825,#826);
#824 = CARTESIAN_POINT('',(101.49348608576,-69.73616591423,1.51));
#825 = DIRECTION('',(0.,0.,1.));
#826 = DIRECTION('',(0.923882728697,-0.382675716,0.));
#827 = ORIENTED_EDGE('',*,*,#828,.F.);
#828 = EDGE_CURVE('',#829,#820,#831,.T.);
#829 = VERTEX_POINT('',#830);
#830 = CARTESIAN_POINT('',(101.684829,-69.274226,0.));
#831 = LINE('',#832,#833);
#832 = CARTESIAN_POINT('',(101.684829,-69.274226,0.));
#833 = VECTOR('',#834,1.);
#834 = DIRECTION('',(0.,0.,1.));
#835 = ORIENTED_EDGE('',*,*,#836,.F.);
#836 = EDGE_CURVE('',#797,#829,#837,.T.);
#837 = CIRCLE('',#838,0.500000595191);
#838 = AXIS2_PLACEMENT_3D('',#839,#840,#841);
#839 = CARTESIAN_POINT('',(101.49348608576,-69.73616591423,0.));
#840 = DIRECTION('',(0.,0.,1.));
#841 = DIRECTION('',(0.923882728697,-0.382675716,0.));
#842 = CYLINDRICAL_SURFACE('',#843,0.500000595191);
#843 = AXIS2_PLACEMENT_3D('',#844,#845,#846);
#844 = CARTESIAN_POINT('',(101.49348608576,-69.73616591423,0.));
#845 = DIRECTION('',(-0.,-0.,-1.));
#846 = DIRECTION('',(0.923882728697,-0.382675716,0.));
#847 = ADVANCED_FACE('',(#848),#864,.T.);
#848 = FACE_BOUND('',#849,.T.);
#849 = EDGE_LOOP('',(#850,#851,#857,#858));
#850 = ORIENTED_EDGE('',*,*,#828,.T.);
#851 = ORIENTED_EDGE('',*,*,#852,.T.);
#852 = EDGE_CURVE('',#820,#620,#853,.T.);
#853 = LINE('',#854,#855);
#854 = CARTESIAN_POINT('',(101.684829,-69.274226,1.51));
#855 = VECTOR('',#856,1.);
#856 = DIRECTION('',(-0.923879532927,0.382683431362,0.));
#857 = ORIENTED_EDGE('',*,*,#617,.F.);
#858 = ORIENTED_EDGE('',*,*,#859,.F.);
#859 = EDGE_CURVE('',#829,#618,#860,.T.);
#860 = LINE('',#861,#862);
#861 = CARTESIAN_POINT('',(101.684829,-69.274226,0.));
#862 = VECTOR('',#863,1.);
#863 = DIRECTION('',(-0.923879532927,0.382683431362,0.));
#864 = PLANE('',#865);
#865 = AXIS2_PLACEMENT_3D('',#866,#867,#868);
#866 = CARTESIAN_POINT('',(101.684829,-69.274226,0.));
#867 = DIRECTION('',(-0.382683431362,-0.923879532927,0.));
#868 = DIRECTION('',(-0.923879532927,0.382683431362,0.));
#869 = ADVANCED_FACE('',(#870),#906,.F.);
#870 = FACE_BOUND('',#871,.T.);
#871 = EDGE_LOOP('',(#872,#882,#891,#899));
#872 = ORIENTED_EDGE('',*,*,#873,.T.);
#873 = EDGE_CURVE('',#874,#876,#878,.T.);
#874 = VERTEX_POINT('',#875);
#875 = CARTESIAN_POINT('',(70.26763,-58.203427,0.));
#876 = VERTEX_POINT('',#877);
#877 = CARTESIAN_POINT('',(70.26763,-58.203427,1.51));
#878 = LINE('',#879,#880);
#879 = CARTESIAN_POINT('',(70.26763,-58.203427,0.));
#880 = VECTOR('',#881,1.);
#881 = DIRECTION('',(0.,0.,1.));
#882 = ORIENTED_EDGE('',*,*,#883,.T.);
#883 = EDGE_CURVE('',#876,#884,#886,.T.);
#884 = VERTEX_POINT('',#885);
#885 = CARTESIAN_POINT('',(69.647269,-58.542769,1.51));
#886 = CIRCLE('',#887,0.500003049209);
#887 = AXIS2_PLACEMENT_3D('',#888,#889,#890);
#888 = CARTESIAN_POINT('',(70.127122310429,-58.68328180969,1.51));
#889 = DIRECTION('',(0.,0.,1.));
#890 = DIRECTION('',(0.281013665403,0.95970376672,-0.));
#891 = ORIENTED_EDGE('',*,*,#892,.F.);
#892 = EDGE_CURVE('',#893,#884,#895,.T.);
#893 = VERTEX_POINT('',#894);
#894 = CARTESIAN_POINT('',(69.647269,-58.542769,0.));
#895 = LINE('',#896,#897);
#896 = CARTESIAN_POINT('',(69.647269,-58.542769,0.));
#897 = VECTOR('',#898,1.);
#898 = DIRECTION('',(0.,0.,1.));
#899 = ORIENTED_EDGE('',*,*,#900,.F.);
#900 = EDGE_CURVE('',#874,#893,#901,.T.);
#901 = CIRCLE('',#902,0.500003049209);
#902 = AXIS2_PLACEMENT_3D('',#903,#904,#905);
#903 = CARTESIAN_POINT('',(70.127122310429,-58.68328180969,0.));
#904 = DIRECTION('',(0.,0.,1.));
#905 = DIRECTION('',(0.281013665403,0.95970376672,-0.));
#906 = CYLINDRICAL_SURFACE('',#907,0.500003049209);
#907 = AXIS2_PLACEMENT_3D('',#908,#909,#910);
#908 = CARTESIAN_POINT('',(70.127122310429,-58.68328180969,0.));
#909 = DIRECTION('',(-0.,-0.,-1.));
#910 = DIRECTION('',(0.281013665403,0.95970376672,-0.));
#911 = ADVANCED_FACE('',(#912),#937,.T.);
#912 = FACE_BOUND('',#913,.T.);
#913 = EDGE_LOOP('',(#914,#915,#923,#931));
#914 = ORIENTED_EDGE('',*,*,#892,.T.);
#915 = ORIENTED_EDGE('',*,*,#916,.T.);
#916 = EDGE_CURVE('',#884,#917,#919,.T.);
#917 = VERTEX_POINT('',#918);
#918 = CARTESIAN_POINT('',(65.965927,-71.114873,1.51));
#919 = LINE('',#920,#921);
#920 = CARTESIAN_POINT('',(69.647269,-58.542769,1.51));
#921 = VECTOR('',#922,1.);
#922 = DIRECTION('',(-0.281018409494,-0.959702377576,0.));
#923 = ORIENTED_EDGE('',*,*,#924,.F.);
#924 = EDGE_CURVE('',#925,#917,#927,.T.);
#925 = VERTEX_POINT('',#926);
#926 = CARTESIAN_POINT('',(65.965927,-71.114873,0.));
#927 = LINE('',#928,#929);
#928 = CARTESIAN_POINT('',(65.965927,-71.114873,0.));
#929 = VECTOR('',#930,1.);
#930 = DIRECTION('',(0.,0.,1.));
#931 = ORIENTED_EDGE('',*,*,#932,.F.);
#932 = EDGE_CURVE('',#893,#925,#933,.T.);
#933 = LINE('',#934,#935);
#934 = CARTESIAN_POINT('',(69.647269,-58.542769,0.));
#935 = VECTOR('',#936,1.);
#936 = DIRECTION('',(-0.281018409494,-0.959702377576,0.));
#937 = PLANE('',#938);
#938 = AXIS2_PLACEMENT_3D('',#939,#940,#941);
#939 = CARTESIAN_POINT('',(69.647269,-58.542769,0.));
#940 = DIRECTION('',(0.959702377576,-0.281018409494,0.));
#941 = DIRECTION('',(-0.281018409494,-0.959702377576,0.));
#942 = ADVANCED_FACE('',(#943),#970,.F.);
#943 = FACE_BOUND('',#944,.T.);
#944 = EDGE_LOOP('',(#945,#946,#955,#963));
#945 = ORIENTED_EDGE('',*,*,#924,.T.);
#946 = ORIENTED_EDGE('',*,*,#947,.T.);
#947 = EDGE_CURVE('',#917,#948,#950,.T.);
#948 = VERTEX_POINT('',#949);
#949 = CARTESIAN_POINT('',(66.305269,-71.735231,1.51));
#950 = CIRCLE('',#951,0.500002569514);
#951 = AXIS2_PLACEMENT_3D('',#952,#953,#954);
#952 = CARTESIAN_POINT('',(66.445782023594,-71.25537825204,1.51));
#953 = DIRECTION('',(0.,0.,1.));
#954 = DIRECTION('',(-0.959705115237,0.281009059974,0.));
#955 = ORIENTED_EDGE('',*,*,#956,.F.);
#956 = EDGE_CURVE('',#957,#948,#959,.T.);
#957 = VERTEX_POINT('',#958);
#958 = CARTESIAN_POINT('',(66.305269,-71.735231,0.));
#959 = LINE('',#960,#961);
#960 = CARTESIAN_POINT('',(66.305269,-71.735231,0.));
#961 = VECTOR('',#962,1.);
#962 = DIRECTION('',(0.,0.,1.));
#963 = ORIENTED_EDGE('',*,*,#964,.F.);
#964 = EDGE_CURVE('',#925,#957,#965,.T.);
#965 = CIRCLE('',#966,0.500002569514);
#966 = AXIS2_PLACEMENT_3D('',#967,#968,#969);
#967 = CARTESIAN_POINT('',(66.445782023594,-71.25537825204,0.));
#968 = DIRECTION('',(0.,0.,1.));
#969 = DIRECTION('',(-0.959705115237,0.281009059974,0.));
#970 = CYLINDRICAL_SURFACE('',#971,0.500002569514);
#971 = AXIS2_PLACEMENT_3D('',#972,#973,#974);
#972 = CARTESIAN_POINT('',(66.445782023594,-71.25537825204,0.));
#973 = DIRECTION('',(-0.,-0.,-1.));
#974 = DIRECTION('',(-0.959705115237,0.281009059974,0.));
#975 = ADVANCED_FACE('',(#976),#1001,.T.);
#976 = FACE_BOUND('',#977,.T.);
#977 = EDGE_LOOP('',(#978,#979,#987,#995));
#978 = ORIENTED_EDGE('',*,*,#956,.T.);
#979 = ORIENTED_EDGE('',*,*,#980,.T.);
#980 = EDGE_CURVE('',#948,#981,#983,.T.);
#981 = VERTEX_POINT('',#982);
#982 = CARTESIAN_POINT('',(78.877373,-75.416573,1.51));
#983 = LINE('',#984,#985);
#984 = CARTESIAN_POINT('',(66.305269,-71.735231,1.51));
#985 = VECTOR('',#986,1.);
#986 = DIRECTION('',(0.959702377576,-0.281018409494,0.));
#987 = ORIENTED_EDGE('',*,*,#988,.F.);
#988 = EDGE_CURVE('',#989,#981,#991,.T.);
#989 = VERTEX_POINT('',#990);
#990 = CARTESIAN_POINT('',(78.877373,-75.416573,0.));
#991 = LINE('',#992,#993);
#992 = CARTESIAN_POINT('',(78.877373,-75.416573,0.));
#993 = VECTOR('',#994,1.);
#994 = DIRECTION('',(0.,0.,1.));
#995 = ORIENTED_EDGE('',*,*,#996,.F.);
#996 = EDGE_CURVE('',#957,#989,#997,.T.);
#997 = LINE('',#998,#999);
#998 = CARTESIAN_POINT('',(66.305269,-71.735231,0.));
#999 = VECTOR('',#1000,1.);
#1000 = DIRECTION('',(0.959702377576,-0.281018409494,0.));
#1001 = PLANE('',#1002);
#1002 = AXIS2_PLACEMENT_3D('',#1003,#1004,#1005);
#1003 = CARTESIAN_POINT('',(66.305269,-71.735231,0.));
#1004 = DIRECTION('',(0.281018409494,0.959702377576,-0.));
#1005 = DIRECTION('',(0.959702377576,-0.281018409494,0.));
#1006 = ADVANCED_FACE('',(#1007),#1034,.F.);
#1007 = FACE_BOUND('',#1008,.T.);
#1008 = EDGE_LOOP('',(#1009,#1010,#1019,#1027));
#1009 = ORIENTED_EDGE('',*,*,#988,.T.);
#1010 = ORIENTED_EDGE('',*,*,#1011,.T.);
#1011 = EDGE_CURVE('',#981,#1012,#1014,.T.);
#1012 = VERTEX_POINT('',#1013);
#1013 = CARTESIAN_POINT('',(79.497731,-75.077231,1.51));
#1014 = CIRCLE('',#1015,0.500002569514);
#1015 = AXIS2_PLACEMENT_3D('',#1016,#1017,#1018);
#1016 = CARTESIAN_POINT('',(79.017878252044,-74.9367179764,1.51));
#1017 = DIRECTION('',(0.,0.,1.));
#1018 = DIRECTION('',(-0.281009059974,-0.959705115237,0.));
#1019 = ORIENTED_EDGE('',*,*,#1020,.F.);
#1020 = EDGE_CURVE('',#1021,#1012,#1023,.T.);
#1021 = VERTEX_POINT('',#1022);
#1022 = CARTESIAN_POINT('',(79.497731,-75.077231,0.));
#1023 = LINE('',#1024,#1025);
#1024 = CARTESIAN_POINT('',(79.497731,-75.077231,0.));
#1025 = VECTOR('',#1026,1.);
#1026 = DIRECTION('',(0.,0.,1.));
#1027 = ORIENTED_EDGE('',*,*,#1028,.F.);
#1028 = EDGE_CURVE('',#989,#1021,#1029,.T.);
#1029 = CIRCLE('',#1030,0.500002569514);
#1030 = AXIS2_PLACEMENT_3D('',#1031,#1032,#1033);
#1031 = CARTESIAN_POINT('',(79.017878252044,-74.9367179764,0.));
#1032 = DIRECTION('',(0.,0.,1.));
#1033 = DIRECTION('',(-0.281009059974,-0.959705115237,0.));
#1034 = CYLINDRICAL_SURFACE('',#1035,0.500002569514);
#1035 = AXIS2_PLACEMENT_3D('',#1036,#1037,#1038);
#1036 = CARTESIAN_POINT('',(79.017878252044,-74.9367179764,0.));
#1037 = DIRECTION('',(-0.,-0.,-1.));
#1038 = DIRECTION('',(-0.281009059974,-0.959705115237,0.));
#1039 = ADVANCED_FACE('',(#1040),#1065,.T.);
#1040 = FACE_BOUND('',#1041,.T.);
#1041 = EDGE_LOOP('',(#1042,#1043,#1051,#1059));
#1042 = ORIENTED_EDGE('',*,*,#1020,.T.);
#1043 = ORIENTED_EDGE('',*,*,#1044,.T.);
#1044 = EDGE_CURVE('',#1012,#1045,#1047,.T.);
#1045 = VERTEX_POINT('',#1046);
#1046 = CARTESIAN_POINT('',(83.179073,-62.505127,1.51));
#1047 = LINE('',#1048,#1049);
#1048 = CARTESIAN_POINT('',(79.497731,-75.077231,1.51));
#1049 = VECTOR('',#1050,1.);
#1050 = DIRECTION('',(0.281018409494,0.959702377576,0.));
#1051 = ORIENTED_EDGE('',*,*,#1052,.F.);
#1052 = EDGE_CURVE('',#1053,#1045,#1055,.T.);
#1053 = VERTEX_POINT('',#1054);
#1054 = CARTESIAN_POINT('',(83.179073,-62.505127,0.));
#1055 = LINE('',#1056,#1057);
#1056 = CARTESIAN_POINT('',(83.179073,-62.505127,0.));
#1057 = VECTOR('',#1058,1.);
#1058 = DIRECTION('',(0.,0.,1.));
#1059 = ORIENTED_EDGE('',*,*,#1060,.F.);
#1060 = EDGE_CURVE('',#1021,#1053,#1061,.T.);
#1061 = LINE('',#1062,#1063);
#1062 = CARTESIAN_POINT('',(79.497731,-75.077231,0.));
#1063 = VECTOR('',#1064,1.);
#1064 = DIRECTION('',(0.281018409494,0.959702377576,0.));
#1065 = PLANE('',#1066);
#1066 = AXIS2_PLACEMENT_3D('',#1067,#1068,#1069);
#1067 = CARTESIAN_POINT('',(79.497731,-75.077231,0.));
#1068 = DIRECTION('',(-0.959702377576,0.281018409494,0.));
#1069 = DIRECTION('',(0.281018409494,0.959702377576,0.));
#1070 = ADVANCED_FACE('',(#1071),#1098,.F.);
#1071 = FACE_BOUND('',#1072,.T.);
#1072 = EDGE_LOOP('',(#1073,#1074,#1083,#1091));
#1073 = ORIENTED_EDGE('',*,*,#1052,.T.);
#1074 = ORIENTED_EDGE('',*,*,#1075,.T.);
#1075 = EDGE_CURVE('',#1045,#1076,#1078,.T.);
#1076 = VERTEX_POINT('',#1077);
#1077 = CARTESIAN_POINT('',(82.839731,-61.884769,1.51));
#1078 = CIRCLE('',#1079,0.500002569514);
#1079 = AXIS2_PLACEMENT_3D('',#1080,#1081,#1082);
#1080 = CARTESIAN_POINT('',(82.699217976406,-62.36462174795,1.51));
#1081 = DIRECTION('',(0.,0.,1.));
#1082 = DIRECTION('',(0.959705115237,-0.281009059974,0.));
#1083 = ORIENTED_EDGE('',*,*,#1084,.F.);
#1084 = EDGE_CURVE('',#1085,#1076,#1087,.T.);
#1085 = VERTEX_POINT('',#1086);
#1086 = CARTESIAN_POINT('',(82.839731,-61.884769,0.));
#1087 = LINE('',#1088,#1089);
#1088 = CARTESIAN_POINT('',(82.839731,-61.884769,0.));
#1089 = VECTOR('',#1090,1.);
#1090 = DIRECTION('',(0.,0.,1.));
#1091 = ORIENTED_EDGE('',*,*,#1092,.F.);
#1092 = EDGE_CURVE('',#1053,#1085,#1093,.T.);
#1093 = CIRCLE('',#1094,0.500002569514);
#1094 = AXIS2_PLACEMENT_3D('',#1095,#1096,#1097);
#1095 = CARTESIAN_POINT('',(82.699217976406,-62.36462174795,0.));
#1096 = DIRECTION('',(0.,0.,1.));
#1097 = DIRECTION('',(0.959705115237,-0.281009059974,0.));
#1098 = CYLINDRICAL_SURFACE('',#1099,0.500002569514);
#1099 = AXIS2_PLACEMENT_3D('',#1100,#1101,#1102);
#1100 = CARTESIAN_POINT('',(82.699217976406,-62.36462174795,0.));
#1101 = DIRECTION('',(-0.,-0.,-1.));
#1102 = DIRECTION('',(0.959705115237,-0.281009059974,0.));
#1103 = ADVANCED_FACE('',(#1104),#1120,.T.);
#1104 = FACE_BOUND('',#1105,.T.);
#1105 = EDGE_LOOP('',(#1106,#1107,#1113,#1114));
#1106 = ORIENTED_EDGE('',*,*,#1084,.T.);
#1107 = ORIENTED_EDGE('',*,*,#1108,.T.);
#1108 = EDGE_CURVE('',#1076,#876,#1109,.T.);
#1109 = LINE('',#1110,#1111);
#1110 = CARTESIAN_POINT('',(82.839731,-61.884769,1.51));
#1111 = VECTOR('',#1112,1.);
#1112 = DIRECTION('',(-0.959702359491,0.281018471256,0.));
#1113 = ORIENTED_EDGE('',*,*,#873,.F.);
#1114 = ORIENTED_EDGE('',*,*,#1115,.F.);
#1115 = EDGE_CURVE('',#1085,#874,#1116,.T.);
#1116 = LINE('',#1117,#1118);
#1117 = CARTESIAN_POINT('',(82.839731,-61.884769,0.));
#1118 = VECTOR('',#1119,1.);
#1119 = DIRECTION('',(-0.959702359491,0.281018471256,0.));
#1120 = PLANE('',#1121);
#1121 = AXIS2_PLACEMENT_3D('',#1122,#1123,#1124);
#1122 = CARTESIAN_POINT('',(82.839731,-61.884769,0.));
#1123 = DIRECTION('',(-0.281018471256,-0.959702359491,0.));
#1124 = DIRECTION('',(-0.959702359491,0.281018471256,0.));
#1125 = ADVANCED_FACE('',(#1126,#1138,#1148,#1158),#1168,.F.);
#1126 = FACE_BOUND('',#1127,.T.);
#1127 = EDGE_LOOP('',(#1128,#1129,#1130,#1131,#1132,#1133,#1134,#1135,
    #1136,#1137));
#1128 = ORIENTED_EDGE('',*,*,#66,.T.);
#1129 = ORIENTED_EDGE('',*,*,#99,.T.);
#1130 = ORIENTED_EDGE('',*,*,#131,.T.);
#1131 = ORIENTED_EDGE('',*,*,#163,.T.);
#1132 = ORIENTED_EDGE('',*,*,#195,.T.);
#1133 = ORIENTED_EDGE('',*,*,#227,.T.);
#1134 = ORIENTED_EDGE('',*,*,#259,.T.);
#1135 = ORIENTED_EDGE('',*,*,#291,.T.);
#1136 = ORIENTED_EDGE('',*,*,#324,.T.);
#1137 = ORIENTED_EDGE('',*,*,#347,.T.);
#1138 = FACE_BOUND('',#1139,.T.);
#1139 = EDGE_LOOP('',(#1140,#1141,#1142,#1143,#1144,#1145,#1146,#1147));
#1140 = ORIENTED_EDGE('',*,*,#388,.T.);
#1141 = ORIENTED_EDGE('',*,*,#420,.T.);
#1142 = ORIENTED_EDGE('',*,*,#452,.T.);
#1143 = ORIENTED_EDGE('',*,*,#484,.T.);
#1144 = ORIENTED_EDGE('',*,*,#516,.T.);
#1145 = ORIENTED_EDGE('',*,*,#548,.T.);
#1146 = ORIENTED_EDGE('',*,*,#580,.T.);
#1147 = ORIENTED_EDGE('',*,*,#603,.T.);
#1148 = FACE_BOUND('',#1149,.T.);
#1149 = EDGE_LOOP('',(#1150,#1151,#1152,#1153,#1154,#1155,#1156,#1157));
#1150 = ORIENTED_EDGE('',*,*,#644,.T.);
#1151 = ORIENTED_EDGE('',*,*,#676,.T.);
#1152 = ORIENTED_EDGE('',*,*,#708,.T.);
#1153 = ORIENTED_EDGE('',*,*,#740,.T.);
#1154 = ORIENTED_EDGE('',*,*,#772,.T.);
#1155 = ORIENTED_EDGE('',*,*,#804,.T.);
#1156 = ORIENTED_EDGE('',*,*,#836,.T.);
#1157 = ORIENTED_EDGE('',*,*,#859,.T.);
#1158 = FACE_BOUND('',#1159,.T.);
#1159 = EDGE_LOOP('',(#1160,#1161,#1162,#1163,#1164,#1165,#1166,#1167));
#1160 = ORIENTED_EDGE('',*,*,#900,.T.);
#1161 = ORIENTED_EDGE('',*,*,#932,.T.);
#1162 = ORIENTED_EDGE('',*,*,#964,.T.);
#1163 = ORIENTED_EDGE('',*,*,#996,.T.);
#1164 = ORIENTED_EDGE('',*,*,#1028,.T.);
#1165 = ORIENTED_EDGE('',*,*,#1060,.T.);
#1166 = ORIENTED_EDGE('',*,*,#1092,.T.);
#1167 = ORIENTED_EDGE('',*,*,#1115,.T.);
#1168 = PLANE('',#1169);
#1169 = AXIS2_PLACEMENT_3D('',#1170,#1171,#1172);
#1170 = CARTESIAN_POINT('',(0.,0.,0.));
#1171 = DIRECTION('',(0.,0.,1.));
#1172 = DIRECTION('',(1.,0.,-0.));
#1173 = ADVANCED_FACE('',(#1174,#1186,#1196,#1206),#1216,.T.);
#1174 = FACE_BOUND('',#1175,.F.);
#1175 = EDGE_LOOP('',(#1176,#1177,#1178,#1179,#1180,#1181,#1182,#1183,
    #1184,#1185));
#1176 = ORIENTED_EDGE('',*,*,#49,.T.);
#1177 = ORIENTED_EDGE('',*,*,#82,.T.);
#1178 = ORIENTED_EDGE('',*,*,#115,.T.);
#1179 = ORIENTED_EDGE('',*,*,#146,.T.);
#1180 = ORIENTED_EDGE('',*,*,#179,.T.);
#1181 = ORIENTED_EDGE('',*,*,#210,.T.);
#1182 = ORIENTED_EDGE('',*,*,#243,.T.);
#1183 = ORIENTED_EDGE('',*,*,#274,.T.);
#1184 = ORIENTED_EDGE('',*,*,#307,.T.);
#1185 = ORIENTED_EDGE('',*,*,#340,.T.);
#1186 = FACE_BOUND('',#1187,.F.);
#1187 = EDGE_LOOP('',(#1188,#1189,#1190,#1191,#1192,#1193,#1194,#1195));
#1188 = ORIENTED_EDGE('',*,*,#371,.T.);
#1189 = ORIENTED_EDGE('',*,*,#404,.T.);
#1190 = ORIENTED_EDGE('',*,*,#435,.T.);
#1191 = ORIENTED_EDGE('',*,*,#468,.T.);
#1192 = ORIENTED_EDGE('',*,*,#499,.T.);
#1193 = ORIENTED_EDGE('',*,*,#532,.T.);
#1194 = ORIENTED_EDGE('',*,*,#563,.T.);
#1195 = ORIENTED_EDGE('',*,*,#596,.T.);
#1196 = FACE_BOUND('',#1197,.F.);
#1197 = EDGE_LOOP('',(#1198,#1199,#1200,#1201,#1202,#1203,#1204,#1205));
#1198 = ORIENTED_EDGE('',*,*,#627,.T.);
#1199 = ORIENTED_EDGE('',*,*,#660,.T.);
#1200 = ORIENTED_EDGE('',*,*,#691,.T.);
#1201 = ORIENTED_EDGE('',*,*,#724,.T.);
#1202 = ORIENTED_EDGE('',*,*,#755,.T.);
#1203 = ORIENTED_EDGE('',*,*,#788,.T.);
#1204 = ORIENTED_EDGE('',*,*,#819,.T.);
#1205 = ORIENTED_EDGE('',*,*,#852,.T.);
#1206 = FACE_BOUND('',#1207,.F.);
#1207 = EDGE_LOOP('',(#1208,#1209,#1210,#1211,#1212,#1213,#1214,#1215));
#1208 = ORIENTED_EDGE('',*,*,#883,.T.);
#1209 = ORIENTED_EDGE('',*,*,#916,.T.);
#1210 = ORIENTED_EDGE('',*,*,#947,.T.);
#1211 = ORIENTED_EDGE('',*,*,#980,.T.);
#1212 = ORIENTED_EDGE('',*,*,#1011,.T.);
#1213 = ORIENTED_EDGE('',*,*,#1044,.T.);
#1214 = ORIENTED_EDGE('',*,*,#1075,.T.);
#1215 = ORIENTED_EDGE('',*,*,#1108,.T.);
#1216 = PLANE('',#1217);
#1217 = AXIS2_PLACEMENT_3D('',#1218,#1219,#1220);
#1218 = CARTESIAN_POINT('',(0.,0.,1.51));
#1219 = DIRECTION('',(0.,0.,1.));
#1220 = DIRECTION('',(1.,0.,-0.));
#1221 = ( GEOMETRIC_REPRESENTATION_CONTEXT(3) 
GLOBAL_UNCERTAINTY_ASSIGNED_CONTEXT((#1225)) 
GLOBAL_UNIT_ASSIGNED_CONTEXT((#1222,#1223,#1224)) REPRESENTATION_CONTEXT
('Context #1','3D Context with UNIT and UNCERTAINTY') );
#1222 = ( LENGTH_UNIT() NAMED_UNIT(*) SI_UNIT(.MILLI.,.METRE.) );
#1223 = ( NAMED_UNIT(*) PLANE_ANGLE_UNIT() SI_UNIT($,.RADIAN.) );
#1224 = ( NAMED_UNIT(*) SI_UNIT($,.STERADIAN.) SOLID_ANGLE_UNIT() );
#1225 = UNCERTAINTY_MEASURE_WITH_UNIT(LENGTH_MEASURE(1.E-07),#1222,
  'distance_accuracy_value','confusion accuracy');
#1226 = CONTEXT_DEPENDENT_SHAPE_REPRESENTATION(#1227,#1229);
#1227 = ( REPRESENTATION_RELATIONSHIP('','',#32,#10) 
REPRESENTATION_RELATIONSHIP_WITH_TRANSFORMATION(#1228) 
SHAPE_REPRESENTATION_RELATIONSHIP() );
#1228 = ITEM_DEFINED_TRANSFORMATION('','',#11,#15);
#1229 = PRODUCT_DEFINITION_SHAPE('Placement','Placement of an item',
  #1230);
#1230 = NEXT_ASSEMBLY_USAGE_OCCURRENCE('1','=>[0:1:1:2]','',#5,#27,$);
#1231 = PRODUCT_RELATED_PRODUCT_CATEGORY('part',$,(#29));
#1232 = MECHANICAL_DESIGN_GEOMETRIC_PRESENTATION_REPRESENTATION('',(
    #1233),#1221);
#1233 = STYLED_ITEM('color',(#1234),#33);
#1234 = PRESENTATION_STYLE_ASSIGNMENT((#1235));
#1235 = SURFACE_STYLE_USAGE(.BOTH.,#1236);
#1236 = SURFACE_SIDE_STYLE('',(#1237));
#1237 = SURFACE_STYLE_FILL_AREA(#1238);
#1238 = FILL_AREA_STYLE('',(#1239));
#1239 = FILL_AREA_STYLE_COLOUR('',#1240);
#1240 = COLOUR_RGB('',0.313304153717,0.484529207832,0.410020903123);
ENDSEC;
END-ISO-10303-21;
