ISO-10303-21;
HEADER;
/* Generated by software containing ST-Developer
 * from STEP Tools, Inc. (www.steptools.com) 
 */

FILE_DESCRIPTION(
/* description */ (''),
/* implementation_level */ '2;1');

FILE_NAME(
/* name */ 'bifrost_switch_knob.step',
/* time_stamp */ '2026-08-16T20:05:48+09:00',
/* author */ (''),
/* organization */ (''),
/* preprocessor_version */ 'ST-DEVELOPER v20.1',
/* originating_system */ 'Autodesk Translation Framework v15.8.0.0',
/* authorisation */ '');

FILE_SCHEMA (('AUTOMOTIVE_DESIGN { 1 0 10303 214 3 1 1 }'));
ENDSEC;

DATA;
#10=MECHANICAL_DESIGN_GEOMETRIC_PRESENTATION_REPRESENTATION('',(#13),#1427);
#11=SHAPE_REPRESENTATION_RELATIONSHIP('SRR','None',#1434,#12);
#12=ADVANCED_BREP_SHAPE_REPRESENTATION('',(#14),#1426);
#13=STYLED_ITEM('',(#1444),#14);
#14=MANIFOLD_SOLID_BREP('\X2\30B930A430C330C130CE30D6\X0\1',#871);
#15=ELLIPSE('',#912,0.707106781186546,0.5);
#16=ELLIPSE('',#914,0.707106781186556,0.5);
#17=ELLIPSE('',#919,0.707106781186549,0.5);
#18=ELLIPSE('',#921,0.707106781186545,0.5);
#19=CYLINDRICAL_SURFACE('',#911,0.5);
#20=CYLINDRICAL_SURFACE('',#913,0.5);
#21=CYLINDRICAL_SURFACE('',#915,0.5);
#22=CYLINDRICAL_SURFACE('',#918,0.5);
#23=CYLINDRICAL_SURFACE('',#920,0.5);
#24=CYLINDRICAL_SURFACE('',#922,0.5);
#25=CYLINDRICAL_SURFACE('',#925,0.5);
#26=CYLINDRICAL_SURFACE('',#933,0.5);
#27=CYLINDRICAL_SURFACE('',#935,0.5);
#28=CYLINDRICAL_SURFACE('',#938,0.5);
#29=FACE_BOUND('',#90,.T.);
#30=CIRCLE('',#888,0.5);
#31=CIRCLE('',#889,0.5);
#32=CIRCLE('',#890,0.5);
#33=CIRCLE('',#891,0.5);
#34=CIRCLE('',#926,0.5);
#35=CIRCLE('',#927,0.5);
#36=CIRCLE('',#929,0.5);
#37=CIRCLE('',#930,0.5);
#38=CIRCLE('',#931,0.5);
#39=CIRCLE('',#934,0.5);
#40=CIRCLE('',#936,0.5);
#41=CIRCLE('',#939,0.5);
#42=FACE_OUTER_BOUND('',#87,.T.);
#43=FACE_OUTER_BOUND('',#88,.T.);
#44=FACE_OUTER_BOUND('',#89,.T.);
#45=FACE_OUTER_BOUND('',#91,.T.);
#46=FACE_OUTER_BOUND('',#92,.T.);
#47=FACE_OUTER_BOUND('',#93,.T.);
#48=FACE_OUTER_BOUND('',#94,.T.);
#49=FACE_OUTER_BOUND('',#95,.T.);
#50=FACE_OUTER_BOUND('',#96,.T.);
#51=FACE_OUTER_BOUND('',#97,.T.);
#52=FACE_OUTER_BOUND('',#98,.T.);
#53=FACE_OUTER_BOUND('',#99,.T.);
#54=FACE_OUTER_BOUND('',#100,.T.);
#55=FACE_OUTER_BOUND('',#101,.T.);
#56=FACE_OUTER_BOUND('',#102,.T.);
#57=FACE_OUTER_BOUND('',#103,.T.);
#58=FACE_OUTER_BOUND('',#104,.T.);
#59=FACE_OUTER_BOUND('',#105,.T.);
#60=FACE_OUTER_BOUND('',#106,.T.);
#61=FACE_OUTER_BOUND('',#107,.T.);
#62=FACE_OUTER_BOUND('',#108,.T.);
#63=FACE_OUTER_BOUND('',#109,.T.);
#64=FACE_OUTER_BOUND('',#110,.T.);
#65=FACE_OUTER_BOUND('',#111,.T.);
#66=FACE_OUTER_BOUND('',#112,.T.);
#67=FACE_OUTER_BOUND('',#113,.T.);
#68=FACE_OUTER_BOUND('',#114,.T.);
#69=FACE_OUTER_BOUND('',#115,.T.);
#70=FACE_OUTER_BOUND('',#116,.T.);
#71=FACE_OUTER_BOUND('',#117,.T.);
#72=FACE_OUTER_BOUND('',#118,.T.);
#73=FACE_OUTER_BOUND('',#119,.T.);
#74=FACE_OUTER_BOUND('',#120,.T.);
#75=FACE_OUTER_BOUND('',#121,.T.);
#76=FACE_OUTER_BOUND('',#122,.T.);
#77=FACE_OUTER_BOUND('',#123,.T.);
#78=FACE_OUTER_BOUND('',#124,.T.);
#79=FACE_OUTER_BOUND('',#125,.T.);
#80=FACE_OUTER_BOUND('',#126,.T.);
#81=FACE_OUTER_BOUND('',#127,.T.);
#82=FACE_OUTER_BOUND('',#128,.T.);
#83=FACE_OUTER_BOUND('',#129,.T.);
#84=FACE_OUTER_BOUND('',#130,.T.);
#85=FACE_OUTER_BOUND('',#131,.T.);
#86=FACE_OUTER_BOUND('',#132,.T.);
#87=EDGE_LOOP('',(#547,#548,#549,#550));
#88=EDGE_LOOP('',(#551,#552,#553,#554,#555));
#89=EDGE_LOOP('',(#556,#557,#558,#559,#560,#561,#562,#563));
#90=EDGE_LOOP('',(#564,#565,#566,#567,#568,#569,#570,#571,#572,#573,#574,
#575,#576,#577,#578,#579,#580,#581,#582,#583));
#91=EDGE_LOOP('',(#584,#585,#586,#587));
#92=EDGE_LOOP('',(#588,#589,#590,#591,#592));
#93=EDGE_LOOP('',(#593,#594,#595,#596));
#94=EDGE_LOOP('',(#597,#598,#599,#600,#601));
#95=EDGE_LOOP('',(#602,#603,#604,#605));
#96=EDGE_LOOP('',(#606,#607,#608,#609,#610));
#97=EDGE_LOOP('',(#611,#612,#613,#614,#615));
#98=EDGE_LOOP('',(#616,#617,#618,#619));
#99=EDGE_LOOP('',(#620,#621,#622,#623));
#100=EDGE_LOOP('',(#624,#625,#626,#627,#628));
#101=EDGE_LOOP('',(#629,#630,#631,#632));
#102=EDGE_LOOP('',(#633,#634,#635,#636));
#103=EDGE_LOOP('',(#637,#638,#639,#640));
#104=EDGE_LOOP('',(#641,#642,#643,#644));
#105=EDGE_LOOP('',(#645,#646,#647,#648,#649));
#106=EDGE_LOOP('',(#650,#651,#652,#653));
#107=EDGE_LOOP('',(#654,#655,#656,#657));
#108=EDGE_LOOP('',(#658,#659,#660,#661,#662));
#109=EDGE_LOOP('',(#663,#664,#665,#666));
#110=EDGE_LOOP('',(#667,#668,#669,#670));
#111=EDGE_LOOP('',(#671,#672,#673,#674));
#112=EDGE_LOOP('',(#675,#676,#677,#678));
#113=EDGE_LOOP('',(#679,#680,#681,#682));
#114=EDGE_LOOP('',(#683,#684,#685,#686,#687,#688,#689,#690));
#115=EDGE_LOOP('',(#691,#692,#693,#694));
#116=EDGE_LOOP('',(#695,#696,#697,#698));
#117=EDGE_LOOP('',(#699,#700,#701,#702));
#118=EDGE_LOOP('',(#703,#704,#705,#706));
#119=EDGE_LOOP('',(#707,#708,#709,#710));
#120=EDGE_LOOP('',(#711,#712,#713,#714));
#121=EDGE_LOOP('',(#715,#716,#717,#718,#719,#720,#721,#722));
#122=EDGE_LOOP('',(#723,#724,#725,#726));
#123=EDGE_LOOP('',(#727,#728,#729,#730));
#124=EDGE_LOOP('',(#731,#732,#733,#734));
#125=EDGE_LOOP('',(#735,#736,#737,#738));
#126=EDGE_LOOP('',(#739,#740,#741,#742));
#127=EDGE_LOOP('',(#743,#744,#745,#746));
#128=EDGE_LOOP('',(#747,#748,#749,#750));
#129=EDGE_LOOP('',(#751,#752,#753,#754,#755,#756,#757,#758,#759,#760,#761,
#762));
#130=EDGE_LOOP('',(#763,#764,#765,#766,#767,#768,#769,#770,#771,#772,#773,
#774,#775,#776,#777,#778,#779,#780,#781,#782));
#131=EDGE_LOOP('',(#783,#784,#785,#786));
#132=EDGE_LOOP('',(#787,#788,#789,#790));
#133=LINE('',#1180,#239);
#134=LINE('',#1182,#240);
#135=LINE('',#1184,#241);
#136=LINE('',#1185,#242);
#137=LINE('',#1188,#243);
#138=LINE('',#1190,#244);
#139=LINE('',#1192,#245);
#140=LINE('',#1193,#246);
#141=LINE('',#1199,#247);
#142=LINE('',#1203,#248);
#143=LINE('',#1207,#249);
#144=LINE('',#1210,#250);
#145=LINE('',#1212,#251);
#146=LINE('',#1214,#252);
#147=LINE('',#1216,#253);
#148=LINE('',#1218,#254);
#149=LINE('',#1220,#255);
#150=LINE('',#1222,#256);
#151=LINE('',#1224,#257);
#152=LINE('',#1226,#258);
#153=LINE('',#1228,#259);
#154=LINE('',#1230,#260);
#155=LINE('',#1232,#261);
#156=LINE('',#1234,#262);
#157=LINE('',#1236,#263);
#158=LINE('',#1238,#264);
#159=LINE('',#1240,#265);
#160=LINE('',#1242,#266);
#161=LINE('',#1244,#267);
#162=LINE('',#1245,#268);
#163=LINE('',#1248,#269);
#164=LINE('',#1250,#270);
#165=LINE('',#1251,#271);
#166=LINE('',#1254,#272);
#167=LINE('',#1256,#273);
#168=LINE('',#1257,#274);
#169=LINE('',#1260,#275);
#170=LINE('',#1262,#276);
#171=LINE('',#1263,#277);
#172=LINE('',#1266,#278);
#173=LINE('',#1268,#279);
#174=LINE('',#1269,#280);
#175=LINE('',#1272,#281);
#176=LINE('',#1274,#282);
#177=LINE('',#1275,#283);
#178=LINE('',#1278,#284);
#179=LINE('',#1280,#285);
#180=LINE('',#1281,#286);
#181=LINE('',#1284,#287);
#182=LINE('',#1286,#288);
#183=LINE('',#1287,#289);
#184=LINE('',#1290,#290);
#185=LINE('',#1291,#291);
#186=LINE('',#1294,#292);
#187=LINE('',#1295,#293);
#188=LINE('',#1298,#294);
#189=LINE('',#1299,#295);
#190=LINE('',#1302,#296);
#191=LINE('',#1303,#297);
#192=LINE('',#1305,#298);
#193=LINE('',#1308,#299);
#194=LINE('',#1309,#300);
#195=LINE('',#1312,#301);
#196=LINE('',#1313,#302);
#197=LINE('',#1316,#303);
#198=LINE('',#1317,#304);
#199=LINE('',#1320,#305);
#200=LINE('',#1321,#306);
#201=LINE('',#1324,#307);
#202=LINE('',#1325,#308);
#203=LINE('',#1328,#309);
#204=LINE('',#1329,#310);
#205=LINE('',#1331,#311);
#206=LINE('',#1334,#312);
#207=LINE('',#1336,#313);
#208=LINE('',#1340,#314);
#209=LINE('',#1342,#315);
#210=LINE('',#1345,#316);
#211=LINE('',#1346,#317);
#212=LINE('',#1350,#318);
#213=LINE('',#1352,#319);
#214=LINE('',#1354,#320);
#215=LINE('',#1356,#321);
#216=LINE('',#1358,#322);
#217=LINE('',#1359,#323);
#218=LINE('',#1362,#324);
#219=LINE('',#1366,#325);
#220=LINE('',#1368,#326);
#221=LINE('',#1371,#327);
#222=LINE('',#1372,#328);
#223=LINE('',#1375,#329);
#224=LINE('',#1381,#330);
#225=LINE('',#1384,#331);
#226=LINE('',#1387,#332);
#227=LINE('',#1392,#333);
#228=LINE('',#1395,#334);
#229=LINE('',#1398,#335);
#230=LINE('',#1399,#336);
#231=LINE('',#1405,#337);
#232=LINE('',#1408,#338);
#233=LINE('',#1409,#339);
#234=LINE('',#1413,#340);
#235=LINE('',#1415,#341);
#236=LINE('',#1417,#342);
#237=LINE('',#1420,#343);
#238=LINE('',#1421,#344);
#239=VECTOR('',#950,10.);
#240=VECTOR('',#951,10.);
#241=VECTOR('',#952,10.);
#242=VECTOR('',#953,10.);
#243=VECTOR('',#956,10.);
#244=VECTOR('',#957,10.);
#245=VECTOR('',#958,10.);
#246=VECTOR('',#959,10.);
#247=VECTOR('',#964,10.);
#248=VECTOR('',#967,10.);
#249=VECTOR('',#970,10.);
#250=VECTOR('',#973,10.);
#251=VECTOR('',#974,10.);
#252=VECTOR('',#975,10.);
#253=VECTOR('',#976,10.);
#254=VECTOR('',#977,10.);
#255=VECTOR('',#978,10.);
#256=VECTOR('',#979,10.);
#257=VECTOR('',#980,10.);
#258=VECTOR('',#981,10.);
#259=VECTOR('',#982,10.);
#260=VECTOR('',#983,10.);
#261=VECTOR('',#984,10.);
#262=VECTOR('',#985,10.);
#263=VECTOR('',#986,10.);
#264=VECTOR('',#987,10.);
#265=VECTOR('',#988,10.);
#266=VECTOR('',#989,10.);
#267=VECTOR('',#990,10.);
#268=VECTOR('',#991,10.);
#269=VECTOR('',#994,10.);
#270=VECTOR('',#995,10.);
#271=VECTOR('',#996,10.);
#272=VECTOR('',#999,10.);
#273=VECTOR('',#1000,10.);
#274=VECTOR('',#1001,10.);
#275=VECTOR('',#1004,10.);
#276=VECTOR('',#1005,10.);
#277=VECTOR('',#1006,10.);
#278=VECTOR('',#1009,10.);
#279=VECTOR('',#1010,10.);
#280=VECTOR('',#1011,10.);
#281=VECTOR('',#1014,10.);
#282=VECTOR('',#1015,10.);
#283=VECTOR('',#1016,10.);
#284=VECTOR('',#1019,10.);
#285=VECTOR('',#1020,10.);
#286=VECTOR('',#1021,10.);
#287=VECTOR('',#1024,10.);
#288=VECTOR('',#1025,10.);
#289=VECTOR('',#1026,10.);
#290=VECTOR('',#1029,10.);
#291=VECTOR('',#1030,10.);
#292=VECTOR('',#1033,10.);
#293=VECTOR('',#1034,10.);
#294=VECTOR('',#1037,10.);
#295=VECTOR('',#1038,10.);
#296=VECTOR('',#1041,10.);
#297=VECTOR('',#1042,10.);
#298=VECTOR('',#1045,10.);
#299=VECTOR('',#1048,10.);
#300=VECTOR('',#1049,10.);
#301=VECTOR('',#1052,10.);
#302=VECTOR('',#1053,10.);
#303=VECTOR('',#1056,10.);
#304=VECTOR('',#1057,10.);
#305=VECTOR('',#1060,10.);
#306=VECTOR('',#1061,10.);
#307=VECTOR('',#1064,10.);
#308=VECTOR('',#1065,10.);
#309=VECTOR('',#1068,10.);
#310=VECTOR('',#1069,10.);
#311=VECTOR('',#1072,10.);
#312=VECTOR('',#1075,10.);
#313=VECTOR('',#1076,10.);
#314=VECTOR('',#1081,10.);
#315=VECTOR('',#1082,10.);
#316=VECTOR('',#1087,10.);
#317=VECTOR('',#1088,10.);
#318=VECTOR('',#1093,10.);
#319=VECTOR('',#1094,10.);
#320=VECTOR('',#1095,10.);
#321=VECTOR('',#1096,10.);
#322=VECTOR('',#1097,10.);
#323=VECTOR('',#1098,10.);
#324=VECTOR('',#1101,10.);
#325=VECTOR('',#1106,10.);
#326=VECTOR('',#1107,10.);
#327=VECTOR('',#1112,10.);
#328=VECTOR('',#1113,10.);
#329=VECTOR('',#1118,10.);
#330=VECTOR('',#1123,10.);
#331=VECTOR('',#1126,10.);
#332=VECTOR('',#1129,10.);
#333=VECTOR('',#1134,10.);
#334=VECTOR('',#1137,10.);
#335=VECTOR('',#1140,10.);
#336=VECTOR('',#1141,10.);
#337=VECTOR('',#1150,10.);
#338=VECTOR('',#1153,10.);
#339=VECTOR('',#1154,10.);
#340=VECTOR('',#1159,10.);
#341=VECTOR('',#1162,10.);
#342=VECTOR('',#1165,10.);
#343=VECTOR('',#1170,10.);
#344=VECTOR('',#1171,10.);
#345=VERTEX_POINT('',#1178);
#346=VERTEX_POINT('',#1179);
#347=VERTEX_POINT('',#1181);
#348=VERTEX_POINT('',#1183);
#349=VERTEX_POINT('',#1187);
#350=VERTEX_POINT('',#1189);
#351=VERTEX_POINT('',#1191);
#352=VERTEX_POINT('',#1195);
#353=VERTEX_POINT('',#1196);
#354=VERTEX_POINT('',#1198);
#355=VERTEX_POINT('',#1200);
#356=VERTEX_POINT('',#1202);
#357=VERTEX_POINT('',#1204);
#358=VERTEX_POINT('',#1206);
#359=VERTEX_POINT('',#1208);
#360=VERTEX_POINT('',#1211);
#361=VERTEX_POINT('',#1213);
#362=VERTEX_POINT('',#1215);
#363=VERTEX_POINT('',#1217);
#364=VERTEX_POINT('',#1219);
#365=VERTEX_POINT('',#1221);
#366=VERTEX_POINT('',#1223);
#367=VERTEX_POINT('',#1225);
#368=VERTEX_POINT('',#1227);
#369=VERTEX_POINT('',#1229);
#370=VERTEX_POINT('',#1231);
#371=VERTEX_POINT('',#1233);
#372=VERTEX_POINT('',#1235);
#373=VERTEX_POINT('',#1237);
#374=VERTEX_POINT('',#1239);
#375=VERTEX_POINT('',#1241);
#376=VERTEX_POINT('',#1243);
#377=VERTEX_POINT('',#1247);
#378=VERTEX_POINT('',#1249);
#379=VERTEX_POINT('',#1253);
#380=VERTEX_POINT('',#1255);
#381=VERTEX_POINT('',#1259);
#382=VERTEX_POINT('',#1261);
#383=VERTEX_POINT('',#1265);
#384=VERTEX_POINT('',#1267);
#385=VERTEX_POINT('',#1271);
#386=VERTEX_POINT('',#1273);
#387=VERTEX_POINT('',#1277);
#388=VERTEX_POINT('',#1279);
#389=VERTEX_POINT('',#1283);
#390=VERTEX_POINT('',#1285);
#391=VERTEX_POINT('',#1289);
#392=VERTEX_POINT('',#1293);
#393=VERTEX_POINT('',#1297);
#394=VERTEX_POINT('',#1301);
#395=VERTEX_POINT('',#1307);
#396=VERTEX_POINT('',#1311);
#397=VERTEX_POINT('',#1315);
#398=VERTEX_POINT('',#1319);
#399=VERTEX_POINT('',#1323);
#400=VERTEX_POINT('',#1327);
#401=VERTEX_POINT('',#1333);
#402=VERTEX_POINT('',#1335);
#403=VERTEX_POINT('',#1339);
#404=VERTEX_POINT('',#1341);
#405=VERTEX_POINT('',#1349);
#406=VERTEX_POINT('',#1351);
#407=VERTEX_POINT('',#1353);
#408=VERTEX_POINT('',#1355);
#409=VERTEX_POINT('',#1357);
#410=VERTEX_POINT('',#1361);
#411=VERTEX_POINT('',#1365);
#412=VERTEX_POINT('',#1367);
#413=VERTEX_POINT('',#1377);
#414=VERTEX_POINT('',#1378);
#415=VERTEX_POINT('',#1380);
#416=VERTEX_POINT('',#1382);
#417=VERTEX_POINT('',#1386);
#418=VERTEX_POINT('',#1389);
#419=VERTEX_POINT('',#1391);
#420=VERTEX_POINT('',#1393);
#421=VERTEX_POINT('',#1397);
#422=VERTEX_POINT('',#1403);
#423=VERTEX_POINT('',#1407);
#424=VERTEX_POINT('',#1411);
#425=EDGE_CURVE('',#345,#346,#133,.T.);
#426=EDGE_CURVE('',#346,#347,#134,.T.);
#427=EDGE_CURVE('',#347,#348,#135,.T.);
#428=EDGE_CURVE('',#348,#345,#136,.T.);
#429=EDGE_CURVE('',#349,#345,#137,.T.);
#430=EDGE_CURVE('',#349,#350,#138,.T.);
#431=EDGE_CURVE('',#350,#351,#139,.T.);
#432=EDGE_CURVE('',#346,#351,#140,.T.);
#433=EDGE_CURVE('',#352,#353,#30,.T.);
#434=EDGE_CURVE('',#352,#354,#141,.T.);
#435=EDGE_CURVE('',#355,#354,#31,.T.);
#436=EDGE_CURVE('',#355,#356,#142,.T.);
#437=EDGE_CURVE('',#357,#356,#32,.T.);
#438=EDGE_CURVE('',#357,#358,#143,.T.);
#439=EDGE_CURVE('',#359,#358,#33,.T.);
#440=EDGE_CURVE('',#359,#353,#144,.T.);
#441=EDGE_CURVE('',#348,#360,#145,.T.);
#442=EDGE_CURVE('',#360,#361,#146,.T.);
#443=EDGE_CURVE('',#361,#362,#147,.T.);
#444=EDGE_CURVE('',#362,#363,#148,.T.);
#445=EDGE_CURVE('',#364,#363,#149,.T.);
#446=EDGE_CURVE('',#364,#365,#150,.T.);
#447=EDGE_CURVE('',#365,#366,#151,.T.);
#448=EDGE_CURVE('',#366,#367,#152,.T.);
#449=EDGE_CURVE('',#367,#368,#153,.T.);
#450=EDGE_CURVE('',#369,#368,#154,.T.);
#451=EDGE_CURVE('',#369,#370,#155,.T.);
#452=EDGE_CURVE('',#370,#371,#156,.T.);
#453=EDGE_CURVE('',#371,#372,#157,.T.);
#454=EDGE_CURVE('',#372,#373,#158,.T.);
#455=EDGE_CURVE('',#374,#373,#159,.T.);
#456=EDGE_CURVE('',#374,#375,#160,.T.);
#457=EDGE_CURVE('',#375,#376,#161,.T.);
#458=EDGE_CURVE('',#376,#349,#162,.T.);
#459=EDGE_CURVE('',#377,#364,#163,.T.);
#460=EDGE_CURVE('',#363,#378,#164,.T.);
#461=EDGE_CURVE('',#378,#377,#165,.T.);
#462=EDGE_CURVE('',#362,#379,#166,.T.);
#463=EDGE_CURVE('',#379,#380,#167,.T.);
#464=EDGE_CURVE('',#378,#380,#168,.T.);
#465=EDGE_CURVE('',#381,#369,#169,.T.);
#466=EDGE_CURVE('',#368,#382,#170,.T.);
#467=EDGE_CURVE('',#382,#381,#171,.T.);
#468=EDGE_CURVE('',#367,#383,#172,.T.);
#469=EDGE_CURVE('',#383,#384,#173,.T.);
#470=EDGE_CURVE('',#382,#384,#174,.T.);
#471=EDGE_CURVE('',#385,#374,#175,.T.);
#472=EDGE_CURVE('',#373,#386,#176,.T.);
#473=EDGE_CURVE('',#386,#385,#177,.T.);
#474=EDGE_CURVE('',#387,#385,#178,.T.);
#475=EDGE_CURVE('',#387,#388,#179,.T.);
#476=EDGE_CURVE('',#375,#388,#180,.T.);
#477=EDGE_CURVE('',#372,#389,#181,.T.);
#478=EDGE_CURVE('',#389,#390,#182,.T.);
#479=EDGE_CURVE('',#386,#390,#183,.T.);
#480=EDGE_CURVE('',#371,#391,#184,.T.);
#481=EDGE_CURVE('',#391,#389,#185,.T.);
#482=EDGE_CURVE('',#370,#392,#186,.T.);
#483=EDGE_CURVE('',#392,#391,#187,.T.);
#484=EDGE_CURVE('',#393,#381,#188,.T.);
#485=EDGE_CURVE('',#393,#392,#189,.T.);
#486=EDGE_CURVE('',#376,#394,#190,.T.);
#487=EDGE_CURVE('',#394,#350,#191,.T.);
#488=EDGE_CURVE('',#388,#394,#192,.T.);
#489=EDGE_CURVE('',#366,#395,#193,.T.);
#490=EDGE_CURVE('',#395,#383,#194,.T.);
#491=EDGE_CURVE('',#365,#396,#195,.T.);
#492=EDGE_CURVE('',#396,#395,#196,.T.);
#493=EDGE_CURVE('',#397,#377,#197,.T.);
#494=EDGE_CURVE('',#397,#396,#198,.T.);
#495=EDGE_CURVE('',#361,#398,#199,.T.);
#496=EDGE_CURVE('',#398,#379,#200,.T.);
#497=EDGE_CURVE('',#360,#399,#201,.T.);
#498=EDGE_CURVE('',#399,#398,#202,.T.);
#499=EDGE_CURVE('',#400,#347,#203,.T.);
#500=EDGE_CURVE('',#400,#399,#204,.T.);
#501=EDGE_CURVE('',#390,#387,#205,.T.);
#502=EDGE_CURVE('',#401,#352,#206,.T.);
#503=EDGE_CURVE('',#353,#402,#207,.T.);
#504=EDGE_CURVE('',#402,#401,#15,.T.);
#505=EDGE_CURVE('',#403,#355,#208,.T.);
#506=EDGE_CURVE('',#354,#404,#209,.T.);
#507=EDGE_CURVE('',#404,#403,#16,.T.);
#508=EDGE_CURVE('',#402,#403,#210,.T.);
#509=EDGE_CURVE('',#404,#401,#211,.T.);
#510=EDGE_CURVE('',#405,#403,#212,.T.);
#511=EDGE_CURVE('',#406,#405,#213,.T.);
#512=EDGE_CURVE('',#407,#406,#214,.T.);
#513=EDGE_CURVE('',#408,#407,#215,.T.);
#514=EDGE_CURVE('',#409,#408,#216,.T.);
#515=EDGE_CURVE('',#356,#409,#217,.T.);
#516=EDGE_CURVE('',#410,#357,#218,.T.);
#517=EDGE_CURVE('',#409,#410,#17,.T.);
#518=EDGE_CURVE('',#411,#359,#219,.T.);
#519=EDGE_CURVE('',#358,#412,#220,.T.);
#520=EDGE_CURVE('',#412,#411,#18,.T.);
#521=EDGE_CURVE('',#409,#411,#221,.T.);
#522=EDGE_CURVE('',#412,#410,#222,.T.);
#523=EDGE_CURVE('',#402,#411,#223,.T.);
#524=EDGE_CURVE('',#413,#414,#34,.T.);
#525=EDGE_CURVE('',#414,#415,#224,.T.);
#526=EDGE_CURVE('',#415,#416,#35,.F.);
#527=EDGE_CURVE('',#416,#413,#225,.T.);
#528=EDGE_CURVE('',#413,#417,#226,.T.);
#529=EDGE_CURVE('',#407,#417,#36,.T.);
#530=EDGE_CURVE('',#418,#406,#37,.T.);
#531=EDGE_CURVE('',#418,#419,#227,.T.);
#532=EDGE_CURVE('',#420,#419,#38,.T.);
#533=EDGE_CURVE('',#420,#414,#228,.T.);
#534=EDGE_CURVE('',#416,#421,#229,.T.);
#535=EDGE_CURVE('',#417,#421,#230,.T.);
#536=EDGE_CURVE('',#421,#408,#39,.F.);
#537=EDGE_CURVE('',#405,#422,#40,.F.);
#538=EDGE_CURVE('',#422,#418,#231,.T.);
#539=EDGE_CURVE('',#422,#423,#232,.T.);
#540=EDGE_CURVE('',#419,#423,#233,.T.);
#541=EDGE_CURVE('',#423,#424,#41,.F.);
#542=EDGE_CURVE('',#424,#420,#234,.T.);
#543=EDGE_CURVE('',#424,#415,#235,.T.);
#544=EDGE_CURVE('',#400,#351,#236,.T.);
#545=EDGE_CURVE('',#384,#393,#237,.T.);
#546=EDGE_CURVE('',#380,#397,#238,.T.);
#547=ORIENTED_EDGE('',*,*,#425,.T.);
#548=ORIENTED_EDGE('',*,*,#426,.T.);
#549=ORIENTED_EDGE('',*,*,#427,.T.);
#550=ORIENTED_EDGE('',*,*,#428,.T.);
#551=ORIENTED_EDGE('',*,*,#425,.F.);
#552=ORIENTED_EDGE('',*,*,#429,.F.);
#553=ORIENTED_EDGE('',*,*,#430,.T.);
#554=ORIENTED_EDGE('',*,*,#431,.T.);
#555=ORIENTED_EDGE('',*,*,#432,.F.);
#556=ORIENTED_EDGE('',*,*,#433,.F.);
#557=ORIENTED_EDGE('',*,*,#434,.T.);
#558=ORIENTED_EDGE('',*,*,#435,.F.);
#559=ORIENTED_EDGE('',*,*,#436,.T.);
#560=ORIENTED_EDGE('',*,*,#437,.F.);
#561=ORIENTED_EDGE('',*,*,#438,.T.);
#562=ORIENTED_EDGE('',*,*,#439,.F.);
#563=ORIENTED_EDGE('',*,*,#440,.T.);
#564=ORIENTED_EDGE('',*,*,#428,.F.);
#565=ORIENTED_EDGE('',*,*,#441,.T.);
#566=ORIENTED_EDGE('',*,*,#442,.T.);
#567=ORIENTED_EDGE('',*,*,#443,.T.);
#568=ORIENTED_EDGE('',*,*,#444,.T.);
#569=ORIENTED_EDGE('',*,*,#445,.F.);
#570=ORIENTED_EDGE('',*,*,#446,.T.);
#571=ORIENTED_EDGE('',*,*,#447,.T.);
#572=ORIENTED_EDGE('',*,*,#448,.T.);
#573=ORIENTED_EDGE('',*,*,#449,.T.);
#574=ORIENTED_EDGE('',*,*,#450,.F.);
#575=ORIENTED_EDGE('',*,*,#451,.T.);
#576=ORIENTED_EDGE('',*,*,#452,.T.);
#577=ORIENTED_EDGE('',*,*,#453,.T.);
#578=ORIENTED_EDGE('',*,*,#454,.T.);
#579=ORIENTED_EDGE('',*,*,#455,.F.);
#580=ORIENTED_EDGE('',*,*,#456,.T.);
#581=ORIENTED_EDGE('',*,*,#457,.T.);
#582=ORIENTED_EDGE('',*,*,#458,.T.);
#583=ORIENTED_EDGE('',*,*,#429,.T.);
#584=ORIENTED_EDGE('',*,*,#459,.T.);
#585=ORIENTED_EDGE('',*,*,#445,.T.);
#586=ORIENTED_EDGE('',*,*,#460,.T.);
#587=ORIENTED_EDGE('',*,*,#461,.T.);
#588=ORIENTED_EDGE('',*,*,#460,.F.);
#589=ORIENTED_EDGE('',*,*,#444,.F.);
#590=ORIENTED_EDGE('',*,*,#462,.T.);
#591=ORIENTED_EDGE('',*,*,#463,.T.);
#592=ORIENTED_EDGE('',*,*,#464,.F.);
#593=ORIENTED_EDGE('',*,*,#465,.T.);
#594=ORIENTED_EDGE('',*,*,#450,.T.);
#595=ORIENTED_EDGE('',*,*,#466,.T.);
#596=ORIENTED_EDGE('',*,*,#467,.T.);
#597=ORIENTED_EDGE('',*,*,#466,.F.);
#598=ORIENTED_EDGE('',*,*,#449,.F.);
#599=ORIENTED_EDGE('',*,*,#468,.T.);
#600=ORIENTED_EDGE('',*,*,#469,.T.);
#601=ORIENTED_EDGE('',*,*,#470,.F.);
#602=ORIENTED_EDGE('',*,*,#471,.T.);
#603=ORIENTED_EDGE('',*,*,#455,.T.);
#604=ORIENTED_EDGE('',*,*,#472,.T.);
#605=ORIENTED_EDGE('',*,*,#473,.T.);
#606=ORIENTED_EDGE('',*,*,#471,.F.);
#607=ORIENTED_EDGE('',*,*,#474,.F.);
#608=ORIENTED_EDGE('',*,*,#475,.T.);
#609=ORIENTED_EDGE('',*,*,#476,.F.);
#610=ORIENTED_EDGE('',*,*,#456,.F.);
#611=ORIENTED_EDGE('',*,*,#472,.F.);
#612=ORIENTED_EDGE('',*,*,#454,.F.);
#613=ORIENTED_EDGE('',*,*,#477,.T.);
#614=ORIENTED_EDGE('',*,*,#478,.T.);
#615=ORIENTED_EDGE('',*,*,#479,.F.);
#616=ORIENTED_EDGE('',*,*,#453,.F.);
#617=ORIENTED_EDGE('',*,*,#480,.T.);
#618=ORIENTED_EDGE('',*,*,#481,.T.);
#619=ORIENTED_EDGE('',*,*,#477,.F.);
#620=ORIENTED_EDGE('',*,*,#452,.F.);
#621=ORIENTED_EDGE('',*,*,#482,.T.);
#622=ORIENTED_EDGE('',*,*,#483,.T.);
#623=ORIENTED_EDGE('',*,*,#480,.F.);
#624=ORIENTED_EDGE('',*,*,#465,.F.);
#625=ORIENTED_EDGE('',*,*,#484,.F.);
#626=ORIENTED_EDGE('',*,*,#485,.T.);
#627=ORIENTED_EDGE('',*,*,#482,.F.);
#628=ORIENTED_EDGE('',*,*,#451,.F.);
#629=ORIENTED_EDGE('',*,*,#458,.F.);
#630=ORIENTED_EDGE('',*,*,#486,.T.);
#631=ORIENTED_EDGE('',*,*,#487,.T.);
#632=ORIENTED_EDGE('',*,*,#430,.F.);
#633=ORIENTED_EDGE('',*,*,#457,.F.);
#634=ORIENTED_EDGE('',*,*,#476,.T.);
#635=ORIENTED_EDGE('',*,*,#488,.T.);
#636=ORIENTED_EDGE('',*,*,#486,.F.);
#637=ORIENTED_EDGE('',*,*,#448,.F.);
#638=ORIENTED_EDGE('',*,*,#489,.T.);
#639=ORIENTED_EDGE('',*,*,#490,.T.);
#640=ORIENTED_EDGE('',*,*,#468,.F.);
#641=ORIENTED_EDGE('',*,*,#447,.F.);
#642=ORIENTED_EDGE('',*,*,#491,.T.);
#643=ORIENTED_EDGE('',*,*,#492,.T.);
#644=ORIENTED_EDGE('',*,*,#489,.F.);
#645=ORIENTED_EDGE('',*,*,#459,.F.);
#646=ORIENTED_EDGE('',*,*,#493,.F.);
#647=ORIENTED_EDGE('',*,*,#494,.T.);
#648=ORIENTED_EDGE('',*,*,#491,.F.);
#649=ORIENTED_EDGE('',*,*,#446,.F.);
#650=ORIENTED_EDGE('',*,*,#443,.F.);
#651=ORIENTED_EDGE('',*,*,#495,.T.);
#652=ORIENTED_EDGE('',*,*,#496,.T.);
#653=ORIENTED_EDGE('',*,*,#462,.F.);
#654=ORIENTED_EDGE('',*,*,#442,.F.);
#655=ORIENTED_EDGE('',*,*,#497,.T.);
#656=ORIENTED_EDGE('',*,*,#498,.T.);
#657=ORIENTED_EDGE('',*,*,#495,.F.);
#658=ORIENTED_EDGE('',*,*,#427,.F.);
#659=ORIENTED_EDGE('',*,*,#499,.F.);
#660=ORIENTED_EDGE('',*,*,#500,.T.);
#661=ORIENTED_EDGE('',*,*,#497,.F.);
#662=ORIENTED_EDGE('',*,*,#441,.F.);
#663=ORIENTED_EDGE('',*,*,#473,.F.);
#664=ORIENTED_EDGE('',*,*,#479,.T.);
#665=ORIENTED_EDGE('',*,*,#501,.T.);
#666=ORIENTED_EDGE('',*,*,#474,.T.);
#667=ORIENTED_EDGE('',*,*,#502,.T.);
#668=ORIENTED_EDGE('',*,*,#433,.T.);
#669=ORIENTED_EDGE('',*,*,#503,.T.);
#670=ORIENTED_EDGE('',*,*,#504,.T.);
#671=ORIENTED_EDGE('',*,*,#505,.T.);
#672=ORIENTED_EDGE('',*,*,#435,.T.);
#673=ORIENTED_EDGE('',*,*,#506,.T.);
#674=ORIENTED_EDGE('',*,*,#507,.T.);
#675=ORIENTED_EDGE('',*,*,#508,.T.);
#676=ORIENTED_EDGE('',*,*,#507,.F.);
#677=ORIENTED_EDGE('',*,*,#509,.T.);
#678=ORIENTED_EDGE('',*,*,#504,.F.);
#679=ORIENTED_EDGE('',*,*,#502,.F.);
#680=ORIENTED_EDGE('',*,*,#509,.F.);
#681=ORIENTED_EDGE('',*,*,#506,.F.);
#682=ORIENTED_EDGE('',*,*,#434,.F.);
#683=ORIENTED_EDGE('',*,*,#505,.F.);
#684=ORIENTED_EDGE('',*,*,#510,.F.);
#685=ORIENTED_EDGE('',*,*,#511,.F.);
#686=ORIENTED_EDGE('',*,*,#512,.F.);
#687=ORIENTED_EDGE('',*,*,#513,.F.);
#688=ORIENTED_EDGE('',*,*,#514,.F.);
#689=ORIENTED_EDGE('',*,*,#515,.F.);
#690=ORIENTED_EDGE('',*,*,#436,.F.);
#691=ORIENTED_EDGE('',*,*,#516,.T.);
#692=ORIENTED_EDGE('',*,*,#437,.T.);
#693=ORIENTED_EDGE('',*,*,#515,.T.);
#694=ORIENTED_EDGE('',*,*,#517,.T.);
#695=ORIENTED_EDGE('',*,*,#518,.T.);
#696=ORIENTED_EDGE('',*,*,#439,.T.);
#697=ORIENTED_EDGE('',*,*,#519,.T.);
#698=ORIENTED_EDGE('',*,*,#520,.T.);
#699=ORIENTED_EDGE('',*,*,#521,.T.);
#700=ORIENTED_EDGE('',*,*,#520,.F.);
#701=ORIENTED_EDGE('',*,*,#522,.T.);
#702=ORIENTED_EDGE('',*,*,#517,.F.);
#703=ORIENTED_EDGE('',*,*,#516,.F.);
#704=ORIENTED_EDGE('',*,*,#522,.F.);
#705=ORIENTED_EDGE('',*,*,#519,.F.);
#706=ORIENTED_EDGE('',*,*,#438,.F.);
#707=ORIENTED_EDGE('',*,*,#503,.F.);
#708=ORIENTED_EDGE('',*,*,#440,.F.);
#709=ORIENTED_EDGE('',*,*,#518,.F.);
#710=ORIENTED_EDGE('',*,*,#523,.F.);
#711=ORIENTED_EDGE('',*,*,#524,.T.);
#712=ORIENTED_EDGE('',*,*,#525,.T.);
#713=ORIENTED_EDGE('',*,*,#526,.T.);
#714=ORIENTED_EDGE('',*,*,#527,.T.);
#715=ORIENTED_EDGE('',*,*,#524,.F.);
#716=ORIENTED_EDGE('',*,*,#528,.T.);
#717=ORIENTED_EDGE('',*,*,#529,.F.);
#718=ORIENTED_EDGE('',*,*,#512,.T.);
#719=ORIENTED_EDGE('',*,*,#530,.F.);
#720=ORIENTED_EDGE('',*,*,#531,.T.);
#721=ORIENTED_EDGE('',*,*,#532,.F.);
#722=ORIENTED_EDGE('',*,*,#533,.T.);
#723=ORIENTED_EDGE('',*,*,#527,.F.);
#724=ORIENTED_EDGE('',*,*,#534,.T.);
#725=ORIENTED_EDGE('',*,*,#535,.F.);
#726=ORIENTED_EDGE('',*,*,#528,.F.);
#727=ORIENTED_EDGE('',*,*,#529,.T.);
#728=ORIENTED_EDGE('',*,*,#535,.T.);
#729=ORIENTED_EDGE('',*,*,#536,.T.);
#730=ORIENTED_EDGE('',*,*,#513,.T.);
#731=ORIENTED_EDGE('',*,*,#530,.T.);
#732=ORIENTED_EDGE('',*,*,#511,.T.);
#733=ORIENTED_EDGE('',*,*,#537,.T.);
#734=ORIENTED_EDGE('',*,*,#538,.T.);
#735=ORIENTED_EDGE('',*,*,#538,.F.);
#736=ORIENTED_EDGE('',*,*,#539,.T.);
#737=ORIENTED_EDGE('',*,*,#540,.F.);
#738=ORIENTED_EDGE('',*,*,#531,.F.);
#739=ORIENTED_EDGE('',*,*,#532,.T.);
#740=ORIENTED_EDGE('',*,*,#540,.T.);
#741=ORIENTED_EDGE('',*,*,#541,.T.);
#742=ORIENTED_EDGE('',*,*,#542,.T.);
#743=ORIENTED_EDGE('',*,*,#525,.F.);
#744=ORIENTED_EDGE('',*,*,#533,.F.);
#745=ORIENTED_EDGE('',*,*,#542,.F.);
#746=ORIENTED_EDGE('',*,*,#543,.T.);
#747=ORIENTED_EDGE('',*,*,#426,.F.);
#748=ORIENTED_EDGE('',*,*,#432,.T.);
#749=ORIENTED_EDGE('',*,*,#544,.F.);
#750=ORIENTED_EDGE('',*,*,#499,.T.);
#751=ORIENTED_EDGE('',*,*,#508,.F.);
#752=ORIENTED_EDGE('',*,*,#523,.T.);
#753=ORIENTED_EDGE('',*,*,#521,.F.);
#754=ORIENTED_EDGE('',*,*,#514,.T.);
#755=ORIENTED_EDGE('',*,*,#536,.F.);
#756=ORIENTED_EDGE('',*,*,#534,.F.);
#757=ORIENTED_EDGE('',*,*,#526,.F.);
#758=ORIENTED_EDGE('',*,*,#543,.F.);
#759=ORIENTED_EDGE('',*,*,#541,.F.);
#760=ORIENTED_EDGE('',*,*,#539,.F.);
#761=ORIENTED_EDGE('',*,*,#537,.F.);
#762=ORIENTED_EDGE('',*,*,#510,.T.);
#763=ORIENTED_EDGE('',*,*,#463,.F.);
#764=ORIENTED_EDGE('',*,*,#496,.F.);
#765=ORIENTED_EDGE('',*,*,#498,.F.);
#766=ORIENTED_EDGE('',*,*,#500,.F.);
#767=ORIENTED_EDGE('',*,*,#544,.T.);
#768=ORIENTED_EDGE('',*,*,#431,.F.);
#769=ORIENTED_EDGE('',*,*,#487,.F.);
#770=ORIENTED_EDGE('',*,*,#488,.F.);
#771=ORIENTED_EDGE('',*,*,#475,.F.);
#772=ORIENTED_EDGE('',*,*,#501,.F.);
#773=ORIENTED_EDGE('',*,*,#478,.F.);
#774=ORIENTED_EDGE('',*,*,#481,.F.);
#775=ORIENTED_EDGE('',*,*,#483,.F.);
#776=ORIENTED_EDGE('',*,*,#485,.F.);
#777=ORIENTED_EDGE('',*,*,#545,.F.);
#778=ORIENTED_EDGE('',*,*,#469,.F.);
#779=ORIENTED_EDGE('',*,*,#490,.F.);
#780=ORIENTED_EDGE('',*,*,#492,.F.);
#781=ORIENTED_EDGE('',*,*,#494,.F.);
#782=ORIENTED_EDGE('',*,*,#546,.F.);
#783=ORIENTED_EDGE('',*,*,#461,.F.);
#784=ORIENTED_EDGE('',*,*,#464,.T.);
#785=ORIENTED_EDGE('',*,*,#546,.T.);
#786=ORIENTED_EDGE('',*,*,#493,.T.);
#787=ORIENTED_EDGE('',*,*,#467,.F.);
#788=ORIENTED_EDGE('',*,*,#470,.T.);
#789=ORIENTED_EDGE('',*,*,#545,.T.);
#790=ORIENTED_EDGE('',*,*,#484,.T.);
#791=PLANE('',#885);
#792=PLANE('',#886);
#793=PLANE('',#887);
#794=PLANE('',#892);
#795=PLANE('',#893);
#796=PLANE('',#894);
#797=PLANE('',#895);
#798=PLANE('',#896);
#799=PLANE('',#897);
#800=PLANE('',#898);
#801=PLANE('',#899);
#802=PLANE('',#900);
#803=PLANE('',#901);
#804=PLANE('',#902);
#805=PLANE('',#903);
#806=PLANE('',#904);
#807=PLANE('',#905);
#808=PLANE('',#906);
#809=PLANE('',#907);
#810=PLANE('',#908);
#811=PLANE('',#909);
#812=PLANE('',#910);
#813=PLANE('',#916);
#814=PLANE('',#917);
#815=PLANE('',#923);
#816=PLANE('',#924);
#817=PLANE('',#928);
#818=PLANE('',#932);
#819=PLANE('',#937);
#820=PLANE('',#940);
#821=PLANE('',#941);
#822=PLANE('',#942);
#823=PLANE('',#943);
#824=PLANE('',#944);
#825=PLANE('',#945);
#826=ADVANCED_FACE('',(#42),#791,.T.);
#827=ADVANCED_FACE('',(#43),#792,.F.);
#828=ADVANCED_FACE('',(#44,#29),#793,.T.);
#829=ADVANCED_FACE('',(#45),#794,.T.);
#830=ADVANCED_FACE('',(#46),#795,.F.);
#831=ADVANCED_FACE('',(#47),#796,.T.);
#832=ADVANCED_FACE('',(#48),#797,.F.);
#833=ADVANCED_FACE('',(#49),#798,.T.);
#834=ADVANCED_FACE('',(#50),#799,.F.);
#835=ADVANCED_FACE('',(#51),#800,.F.);
#836=ADVANCED_FACE('',(#52),#801,.F.);
#837=ADVANCED_FACE('',(#53),#802,.F.);
#838=ADVANCED_FACE('',(#54),#803,.F.);
#839=ADVANCED_FACE('',(#55),#804,.F.);
#840=ADVANCED_FACE('',(#56),#805,.F.);
#841=ADVANCED_FACE('',(#57),#806,.F.);
#842=ADVANCED_FACE('',(#58),#807,.F.);
#843=ADVANCED_FACE('',(#59),#808,.F.);
#844=ADVANCED_FACE('',(#60),#809,.F.);
#845=ADVANCED_FACE('',(#61),#810,.F.);
#846=ADVANCED_FACE('',(#62),#811,.F.);
#847=ADVANCED_FACE('',(#63),#812,.T.);
#848=ADVANCED_FACE('',(#64),#19,.T.);
#849=ADVANCED_FACE('',(#65),#20,.T.);
#850=ADVANCED_FACE('',(#66),#21,.T.);
#851=ADVANCED_FACE('',(#67),#813,.T.);
#852=ADVANCED_FACE('',(#68),#814,.T.);
#853=ADVANCED_FACE('',(#69),#22,.T.);
#854=ADVANCED_FACE('',(#70),#23,.T.);
#855=ADVANCED_FACE('',(#71),#24,.T.);
#856=ADVANCED_FACE('',(#72),#815,.T.);
#857=ADVANCED_FACE('',(#73),#816,.T.);
#858=ADVANCED_FACE('',(#74),#25,.T.);
#859=ADVANCED_FACE('',(#75),#817,.T.);
#860=ADVANCED_FACE('',(#76),#818,.T.);
#861=ADVANCED_FACE('',(#77),#26,.T.);
#862=ADVANCED_FACE('',(#78),#27,.T.);
#863=ADVANCED_FACE('',(#79),#819,.T.);
#864=ADVANCED_FACE('',(#80),#28,.T.);
#865=ADVANCED_FACE('',(#81),#820,.T.);
#866=ADVANCED_FACE('',(#82),#821,.T.);
#867=ADVANCED_FACE('',(#83),#822,.T.);
#868=ADVANCED_FACE('',(#84),#823,.T.);
#869=ADVANCED_FACE('',(#85),#824,.T.);
#870=ADVANCED_FACE('',(#86),#825,.T.);
#871=CLOSED_SHELL('',(#826,#827,#828,#829,#830,#831,#832,#833,#834,#835,
#836,#837,#838,#839,#840,#841,#842,#843,#844,#845,#846,#847,#848,#849,#850,
#851,#852,#853,#854,#855,#856,#857,#858,#859,#860,#861,#862,#863,#864,#865,
#866,#867,#868,#869,#870));
#872=DERIVED_UNIT_ELEMENT(#874,1.);
#873=DERIVED_UNIT_ELEMENT(#1429,-3.);
#874=(
MASS_UNIT()
NAMED_UNIT(*)
SI_UNIT(.KILO.,.GRAM.)
);
#875=DERIVED_UNIT((#872,#873));
#876=MEASURE_REPRESENTATION_ITEM('density measure',
POSITIVE_RATIO_MEASURE(7850.),#875);
#877=PROPERTY_DEFINITION_REPRESENTATION(#882,#879);
#878=PROPERTY_DEFINITION_REPRESENTATION(#883,#880);
#879=REPRESENTATION('material name',(#881),#1426);
#880=REPRESENTATION('density',(#876),#1426);
#881=DESCRIPTIVE_REPRESENTATION_ITEM('\X2\92FC\X0\','\X2\92FC\X0\');
#882=PROPERTY_DEFINITION('material property','material name',#1436);
#883=PROPERTY_DEFINITION('material property','density of part',#1436);
#884=AXIS2_PLACEMENT_3D('',#1176,#946,#947);
#885=AXIS2_PLACEMENT_3D('',#1177,#948,#949);
#886=AXIS2_PLACEMENT_3D('',#1186,#954,#955);
#887=AXIS2_PLACEMENT_3D('',#1194,#960,#961);
#888=AXIS2_PLACEMENT_3D('',#1197,#962,#963);
#889=AXIS2_PLACEMENT_3D('',#1201,#965,#966);
#890=AXIS2_PLACEMENT_3D('',#1205,#968,#969);
#891=AXIS2_PLACEMENT_3D('',#1209,#971,#972);
#892=AXIS2_PLACEMENT_3D('',#1246,#992,#993);
#893=AXIS2_PLACEMENT_3D('',#1252,#997,#998);
#894=AXIS2_PLACEMENT_3D('',#1258,#1002,#1003);
#895=AXIS2_PLACEMENT_3D('',#1264,#1007,#1008);
#896=AXIS2_PLACEMENT_3D('',#1270,#1012,#1013);
#897=AXIS2_PLACEMENT_3D('',#1276,#1017,#1018);
#898=AXIS2_PLACEMENT_3D('',#1282,#1022,#1023);
#899=AXIS2_PLACEMENT_3D('',#1288,#1027,#1028);
#900=AXIS2_PLACEMENT_3D('',#1292,#1031,#1032);
#901=AXIS2_PLACEMENT_3D('',#1296,#1035,#1036);
#902=AXIS2_PLACEMENT_3D('',#1300,#1039,#1040);
#903=AXIS2_PLACEMENT_3D('',#1304,#1043,#1044);
#904=AXIS2_PLACEMENT_3D('',#1306,#1046,#1047);
#905=AXIS2_PLACEMENT_3D('',#1310,#1050,#1051);
#906=AXIS2_PLACEMENT_3D('',#1314,#1054,#1055);
#907=AXIS2_PLACEMENT_3D('',#1318,#1058,#1059);
#908=AXIS2_PLACEMENT_3D('',#1322,#1062,#1063);
#909=AXIS2_PLACEMENT_3D('',#1326,#1066,#1067);
#910=AXIS2_PLACEMENT_3D('',#1330,#1070,#1071);
#911=AXIS2_PLACEMENT_3D('',#1332,#1073,#1074);
#912=AXIS2_PLACEMENT_3D('',#1337,#1077,#1078);
#913=AXIS2_PLACEMENT_3D('',#1338,#1079,#1080);
#914=AXIS2_PLACEMENT_3D('',#1343,#1083,#1084);
#915=AXIS2_PLACEMENT_3D('',#1344,#1085,#1086);
#916=AXIS2_PLACEMENT_3D('',#1347,#1089,#1090);
#917=AXIS2_PLACEMENT_3D('',#1348,#1091,#1092);
#918=AXIS2_PLACEMENT_3D('',#1360,#1099,#1100);
#919=AXIS2_PLACEMENT_3D('',#1363,#1102,#1103);
#920=AXIS2_PLACEMENT_3D('',#1364,#1104,#1105);
#921=AXIS2_PLACEMENT_3D('',#1369,#1108,#1109);
#922=AXIS2_PLACEMENT_3D('',#1370,#1110,#1111);
#923=AXIS2_PLACEMENT_3D('',#1373,#1114,#1115);
#924=AXIS2_PLACEMENT_3D('',#1374,#1116,#1117);
#925=AXIS2_PLACEMENT_3D('',#1376,#1119,#1120);
#926=AXIS2_PLACEMENT_3D('',#1379,#1121,#1122);
#927=AXIS2_PLACEMENT_3D('',#1383,#1124,#1125);
#928=AXIS2_PLACEMENT_3D('',#1385,#1127,#1128);
#929=AXIS2_PLACEMENT_3D('',#1388,#1130,#1131);
#930=AXIS2_PLACEMENT_3D('',#1390,#1132,#1133);
#931=AXIS2_PLACEMENT_3D('',#1394,#1135,#1136);
#932=AXIS2_PLACEMENT_3D('',#1396,#1138,#1139);
#933=AXIS2_PLACEMENT_3D('',#1400,#1142,#1143);
#934=AXIS2_PLACEMENT_3D('',#1401,#1144,#1145);
#935=AXIS2_PLACEMENT_3D('',#1402,#1146,#1147);
#936=AXIS2_PLACEMENT_3D('',#1404,#1148,#1149);
#937=AXIS2_PLACEMENT_3D('',#1406,#1151,#1152);
#938=AXIS2_PLACEMENT_3D('',#1410,#1155,#1156);
#939=AXIS2_PLACEMENT_3D('',#1412,#1157,#1158);
#940=AXIS2_PLACEMENT_3D('',#1414,#1160,#1161);
#941=AXIS2_PLACEMENT_3D('',#1416,#1163,#1164);
#942=AXIS2_PLACEMENT_3D('',#1418,#1166,#1167);
#943=AXIS2_PLACEMENT_3D('',#1419,#1168,#1169);
#944=AXIS2_PLACEMENT_3D('',#1422,#1172,#1173);
#945=AXIS2_PLACEMENT_3D('',#1423,#1174,#1175);
#946=DIRECTION('axis',(0.,0.,1.));
#947=DIRECTION('refdir',(1.,0.,0.));
#948=DIRECTION('center_axis',(0.0348994967024987,-0.999390827019096,1.30435470888851E-15));
#949=DIRECTION('ref_axis',(0.,-1.30514977086496E-15,-1.));
#950=DIRECTION('',(0.999390827019096,0.0348994967024987,9.2967333818711E-16));
#951=DIRECTION('',(-1.13838014502067E-16,1.30117445980113E-15,1.));
#952=DIRECTION('',(-0.999390827019096,-0.0348994967024987,-2.78902001456133E-15));
#953=DIRECTION('',(1.13838014502067E-16,-1.30117445980113E-15,-1.));
#954=DIRECTION('center_axis',(-1.54819699722813E-15,1.76959726532955E-14,
1.));
#955=DIRECTION('ref_axis',(0.0871557427476583,-0.996194698091746,1.77635683940026E-14));
#956=DIRECTION('',(0.0871557427476583,-0.996194698091746,1.77635683940026E-14));
#957=DIRECTION('',(0.996194698091746,0.0871557427476588,0.));
#958=DIRECTION('',(0.0871557427476582,-0.996194698091746,1.77635683940026E-14));
#959=DIRECTION('',(0.996194698091746,0.0871557427476577,1.952430740422E-29));
#960=DIRECTION('center_axis',(-0.996194698091746,-0.0871557427476583,0.));
#961=DIRECTION('ref_axis',(0.,0.,1.));
#962=DIRECTION('center_axis',(0.996194698091746,0.0871557427476583,0.));
#963=DIRECTION('ref_axis',(-0.0616284167162145,0.704416026402759,-0.707106781186547));
#964=DIRECTION('',(0.0871557427476581,-0.996194698091746,0.));
#965=DIRECTION('center_axis',(0.996194698091746,0.0871557427476583,0.));
#966=DIRECTION('ref_axis',(0.0616284167162207,-0.704416026402759,-0.707106781186547));
#967=DIRECTION('',(7.74098498614057E-17,-8.8479863266477E-16,1.));
#968=DIRECTION('center_axis',(0.996194698091746,0.0871557427476583,0.));
#969=DIRECTION('ref_axis',(0.0616284167162207,-0.704416026402759,0.707106781186547));
#970=DIRECTION('',(-0.0871557427476581,0.996194698091746,0.));
#971=DIRECTION('center_axis',(0.996194698091746,0.0871557427476583,0.));
#972=DIRECTION('ref_axis',(-0.0616284167162207,0.704416026402759,0.707106781186547));
#973=DIRECTION('',(0.,0.,-1.));
#974=DIRECTION('',(-0.0871557427476583,0.996194698091746,-5.32907051820077E-14));
#975=DIRECTION('',(0.,0.,1.));
#976=DIRECTION('',(0.0871557427476583,-0.996194698091746,0.));
#977=DIRECTION('',(0.,0.,-1.));
#978=DIRECTION('',(-0.0871557427476583,0.996194698091746,0.));
#979=DIRECTION('',(0.,0.,1.));
#980=DIRECTION('',(0.0871557427476583,-0.996194698091746,0.));
#981=DIRECTION('',(0.,0.,-1.));
#982=DIRECTION('',(-0.0871557427476583,0.996194698091746,0.));
#983=DIRECTION('',(-2.76463749505022E-16,3.15999511665991E-15,1.));
#984=DIRECTION('',(0.0871557427476583,-0.996194698091746,0.));
#985=DIRECTION('',(0.,0.,-1.));
#986=DIRECTION('',(-0.0871557427476583,0.996194698091746,-4.93432455388959E-15));
#987=DIRECTION('',(0.,0.,1.));
#988=DIRECTION('',(0.0871557427476583,-0.996194698091746,0.));
#989=DIRECTION('',(0.,0.,-1.));
#990=DIRECTION('',(-0.0871557427476583,0.996194698091746,4.93432455388959E-15));
#991=DIRECTION('',(0.,0.,1.));
#992=DIRECTION('center_axis',(-0.052136802128778,-0.00456137913876234,-0.998629534754574));
#993=DIRECTION('ref_axis',(-0.998639923749442,0.,0.0521373445210775));
#994=DIRECTION('',(-0.994829447880333,-0.0870362988312838,0.0523359562429396));
#995=DIRECTION('',(0.994829447880333,0.0870362988312838,-0.0523359562429396));
#996=DIRECTION('',(0.0871557427476583,-0.996194698091746,0.));
#997=DIRECTION('center_axis',(0.0871557427476588,-0.996194698091746,0.));
#998=DIRECTION('ref_axis',(0.,0.,-1.));
#999=DIRECTION('',(0.996194698091746,0.0871557427476588,0.));
#1000=DIRECTION('',(0.,0.,-1.));
#1001=DIRECTION('',(0.996194698091746,0.0871557427476588,0.));
#1002=DIRECTION('center_axis',(-0.139173100960066,0.99026806874157,-3.16771857872926E-15));
#1003=DIRECTION('ref_axis',(0.,3.19884956278029E-15,1.));
#1004=DIRECTION('',(-0.99026806874157,-0.139173100960066,0.));
#1005=DIRECTION('',(0.99026806874157,0.139173100960066,0.));
#1006=DIRECTION('',(2.76463749505022E-16,-3.15999511665991E-15,-1.));
#1007=DIRECTION('center_axis',(0.,0.,-1.));
#1008=DIRECTION('ref_axis',(-0.0871557427476583,0.996194698091746,0.));
#1009=DIRECTION('',(0.996194698091746,0.0871557427476588,0.));
#1010=DIRECTION('',(-0.0871557427476582,0.996194698091746,0.));
#1011=DIRECTION('',(0.996194698091746,0.0871557427476583,0.));
#1012=DIRECTION('center_axis',(-0.0521368021287822,-0.00456137913876271,
0.998629534754574));
#1013=DIRECTION('ref_axis',(0.998639923749441,0.,0.0521373445210817));
#1014=DIRECTION('',(-0.994829447880333,-0.0870362988312838,-0.0523359562429438));
#1015=DIRECTION('',(0.994829447880333,0.0870362988312838,0.0523359562429438));
#1016=DIRECTION('',(-0.0871557427476583,0.996194698091746,0.));
#1017=DIRECTION('center_axis',(0.0871557427476588,-0.996194698091746,0.));
#1018=DIRECTION('ref_axis',(0.,0.,-1.));
#1019=DIRECTION('',(-0.996194698091746,-0.0871557427476588,0.));
#1020=DIRECTION('',(0.,0.,-1.));
#1021=DIRECTION('',(0.996194698091746,0.0871557427476588,0.));
#1022=DIRECTION('center_axis',(-0.0871557427476588,0.996194698091746,0.));
#1023=DIRECTION('ref_axis',(0.,0.,1.));
#1024=DIRECTION('',(0.996194698091746,0.0871557427476588,0.));
#1025=DIRECTION('',(0.,0.,1.));
#1026=DIRECTION('',(0.996194698091746,0.0871557427476588,0.));
#1027=DIRECTION('center_axis',(4.30054721452257E-16,-4.91554795924873E-15,
-1.));
#1028=DIRECTION('ref_axis',(-0.0871557427476583,0.996194698091746,-4.93432455388959E-15));
#1029=DIRECTION('',(0.996194698091746,0.0871557427476588,0.));
#1030=DIRECTION('',(-0.0871557427476582,0.996194698091746,-4.93432455388959E-15));
#1031=DIRECTION('center_axis',(0.0871557427476588,-0.996194698091746,0.));
#1032=DIRECTION('ref_axis',(0.,0.,-1.));
#1033=DIRECTION('',(0.996194698091746,0.0871557427476588,0.));
#1034=DIRECTION('',(0.,0.,-1.));
#1035=DIRECTION('center_axis',(0.,0.,1.));
#1036=DIRECTION('ref_axis',(0.0871557427476583,-0.996194698091746,0.));
#1037=DIRECTION('',(-0.996194698091746,-0.0871557427476583,0.));
#1038=DIRECTION('',(0.0871557427476582,-0.996194698091746,0.));
#1039=DIRECTION('center_axis',(-0.0871557427476588,0.996194698091746,0.));
#1040=DIRECTION('ref_axis',(0.,0.,1.));
#1041=DIRECTION('',(0.996194698091746,0.0871557427476588,0.));
#1042=DIRECTION('',(0.,0.,1.));
#1043=DIRECTION('center_axis',(-4.30054721452257E-16,4.91554795924873E-15,
-1.));
#1044=DIRECTION('ref_axis',(-0.0871557427476583,0.996194698091746,4.93432455388959E-15));
#1045=DIRECTION('',(-0.0871557427476582,0.996194698091746,4.93432455388959E-15));
#1046=DIRECTION('center_axis',(0.0871557427476588,-0.996194698091746,0.));
#1047=DIRECTION('ref_axis',(0.,0.,-1.));
#1048=DIRECTION('',(0.996194698091746,0.0871557427476588,0.));
#1049=DIRECTION('',(0.,0.,-1.));
#1050=DIRECTION('center_axis',(0.,0.,1.));
#1051=DIRECTION('ref_axis',(0.0871557427476583,-0.996194698091746,0.));
#1052=DIRECTION('',(0.996194698091746,0.0871557427476588,0.));
#1053=DIRECTION('',(0.0871557427476582,-0.996194698091746,0.));
#1054=DIRECTION('center_axis',(-0.0871557427476588,0.996194698091746,0.));
#1055=DIRECTION('ref_axis',(0.,0.,1.));
#1056=DIRECTION('',(-0.996194698091746,-0.0871557427476588,0.));
#1057=DIRECTION('',(0.,0.,1.));
#1058=DIRECTION('center_axis',(0.,0.,1.));
#1059=DIRECTION('ref_axis',(0.0871557427476583,-0.996194698091746,0.));
#1060=DIRECTION('',(0.996194698091746,0.0871557427476588,0.));
#1061=DIRECTION('',(0.0871557427476582,-0.996194698091746,0.));
#1062=DIRECTION('center_axis',(-0.0871557427476588,0.996194698091746,0.));
#1063=DIRECTION('ref_axis',(0.,0.,1.));
#1064=DIRECTION('',(0.996194698091746,0.0871557427476588,0.));
#1065=DIRECTION('',(0.,0.,1.));
#1066=DIRECTION('center_axis',(4.64459099168439E-15,-5.30879179598864E-14,
-1.));
#1067=DIRECTION('ref_axis',(-0.0871557427476583,0.996194698091746,-5.32907051820077E-14));
#1068=DIRECTION('',(-0.996194698091746,-0.0871557427476577,-5.75868460811339E-29));
#1069=DIRECTION('',(-0.0871557427476582,0.996194698091746,-5.32907051820077E-14));
#1070=DIRECTION('center_axis',(0.,0.,1.));
#1071=DIRECTION('ref_axis',(-0.0871557427476581,0.996194698091746,0.));
#1072=DIRECTION('',(-0.0871557427476581,0.996194698091746,0.));
#1073=DIRECTION('center_axis',(0.996194698091746,0.0871557427476577,0.));
#1074=DIRECTION('ref_axis',(-0.0616284167162145,0.704416026402759,-0.707106781186547));
#1075=DIRECTION('',(-0.996194698091746,-0.0871557427476577,0.));
#1076=DIRECTION('',(0.996194698091746,0.0871557427476577,0.));
#1077=DIRECTION('center_axis',(-0.766044443118979,0.642787609686538,0.));
#1078=DIRECTION('ref_axis',(-0.642787609686538,-0.766044443118979,0.));
#1079=DIRECTION('center_axis',(0.996194698091746,0.0871557427476583,0.));
#1080=DIRECTION('ref_axis',(0.0616284167162207,-0.704416026402759,-0.707106781186547));
#1081=DIRECTION('',(-0.996194698091746,-0.0871557427476583,0.));
#1082=DIRECTION('',(0.996194698091746,0.0871557427476583,0.));
#1083=DIRECTION('center_axis',(-0.642787609686531,-0.766044443118985,0.));
#1084=DIRECTION('ref_axis',(-0.766044443118985,0.642787609686531,0.));
#1085=DIRECTION('center_axis',(-0.0871557427476577,0.996194698091746,0.));
#1086=DIRECTION('ref_axis',(0.704416026402759,0.0616284167162145,-0.707106781186547));
#1087=DIRECTION('',(0.0871557427476577,-0.996194698091746,0.));
#1088=DIRECTION('',(-0.0871557427476577,0.996194698091746,0.));
#1089=DIRECTION('center_axis',(0.,0.,-1.));
#1090=DIRECTION('ref_axis',(-0.0871557427476581,0.996194698091746,0.));
#1091=DIRECTION('center_axis',(0.0871557427476583,-0.996194698091746,1.30614473485313E-15));
#1092=DIRECTION('ref_axis',(-1.13838014502067E-16,1.30117445980113E-15,
1.));
#1093=DIRECTION('',(-7.74098498614057E-17,8.8479863266477E-16,-1.));
#1094=DIRECTION('',(-0.996194698091746,-0.0871557427476583,0.));
#1095=DIRECTION('',(1.13838014502067E-16,-1.30117445980113E-15,-1.));
#1096=DIRECTION('',(0.996194698091746,0.0871557427476583,0.));
#1097=DIRECTION('',(0.,0.,-1.));
#1098=DIRECTION('',(0.996194698091746,0.0871557427476583,0.));
#1099=DIRECTION('center_axis',(0.996194698091746,0.0871557427476583,0.));
#1100=DIRECTION('ref_axis',(0.0616284167162207,-0.704416026402759,0.707106781186547));
#1101=DIRECTION('',(-0.996194698091746,-0.0871557427476583,0.));
#1102=DIRECTION('center_axis',(-0.642787609686538,-0.766044443118979,0.));
#1103=DIRECTION('ref_axis',(-0.766044443118979,0.642787609686538,0.));
#1104=DIRECTION('center_axis',(0.996194698091746,0.0871557427476577,0.));
#1105=DIRECTION('ref_axis',(-0.0616284167162207,0.704416026402759,0.707106781186547));
#1106=DIRECTION('',(-0.996194698091746,-0.0871557427476577,0.));
#1107=DIRECTION('',(0.996194698091746,0.0871557427476577,0.));
#1108=DIRECTION('center_axis',(-0.76604444311898,0.642787609686537,0.));
#1109=DIRECTION('ref_axis',(-0.642787609686537,-0.76604444311898,0.));
#1110=DIRECTION('center_axis',(0.0871557427476577,-0.996194698091746,0.));
#1111=DIRECTION('ref_axis',(0.704416026402759,0.0616284167162207,0.707106781186547));
#1112=DIRECTION('',(-0.0871557427476577,0.996194698091746,0.));
#1113=DIRECTION('',(0.0871557427476577,-0.996194698091746,0.));
#1114=DIRECTION('center_axis',(0.,0.,1.));
#1115=DIRECTION('ref_axis',(0.0871557427476581,-0.996194698091746,0.));
#1116=DIRECTION('center_axis',(-0.0871557427476577,0.996194698091746,0.));
#1117=DIRECTION('ref_axis',(0.,0.,1.));
#1118=DIRECTION('',(0.,0.,1.));
#1119=DIRECTION('center_axis',(0.996194698091746,0.0871557427476583,0.));
#1120=DIRECTION('ref_axis',(-0.0616284167162207,0.704416026402759,0.707106781186547));
#1121=DIRECTION('center_axis',(-0.996194698091745,-0.0871557427476601,0.));
#1122=DIRECTION('ref_axis',(-0.0616284167162207,0.704416026402759,0.707106781186547));
#1123=DIRECTION('',(-0.996194698091746,-0.0871557427476583,0.));
#1124=DIRECTION('center_axis',(-0.996194698091746,-0.0871557427476577,0.));
#1125=DIRECTION('ref_axis',(-0.0616284167162207,0.704416026402759,0.707106781186547));
#1126=DIRECTION('',(0.996194698091746,0.0871557427476583,0.));
#1127=DIRECTION('center_axis',(0.996194698091745,0.0871557427476601,0.));
#1128=DIRECTION('ref_axis',(0.,0.,-1.));
#1129=DIRECTION('',(0.0871557427476581,-0.996194698091746,0.));
#1130=DIRECTION('center_axis',(-0.996194698091745,-0.0871557427476601,0.));
#1131=DIRECTION('ref_axis',(0.0616284167162207,-0.704416026402759,0.707106781186547));
#1132=DIRECTION('center_axis',(-0.996194698091745,-0.0871557427476601,0.));
#1133=DIRECTION('ref_axis',(0.0616284167162207,-0.704416026402759,-0.707106781186547));
#1134=DIRECTION('',(-0.0871557427476581,0.996194698091746,0.));
#1135=DIRECTION('center_axis',(-0.996194698091745,-0.0871557427476601,0.));
#1136=DIRECTION('ref_axis',(-0.0616284167162207,0.704416026402759,-0.707106781186547));
#1137=DIRECTION('',(-1.13838014502067E-16,1.30117445980113E-15,1.));
#1138=DIRECTION('center_axis',(0.,0.,1.));
#1139=DIRECTION('ref_axis',(-0.0871557427476581,0.996194698091746,0.));
#1140=DIRECTION('',(0.0871557427476577,-0.996194698091746,0.));
#1141=DIRECTION('',(-0.996194698091746,-0.0871557427476583,0.));
#1142=DIRECTION('center_axis',(0.996194698091746,0.0871557427476583,0.));
#1143=DIRECTION('ref_axis',(0.0616284167162207,-0.704416026402759,0.707106781186547));
#1144=DIRECTION('center_axis',(-0.996194698091746,-0.0871557427476577,0.));
#1145=DIRECTION('ref_axis',(0.0616284167162207,-0.704416026402759,0.707106781186547));
#1146=DIRECTION('center_axis',(0.996194698091746,0.0871557427476583,0.));
#1147=DIRECTION('ref_axis',(0.0616284167162207,-0.704416026402759,-0.707106781186547));
#1148=DIRECTION('center_axis',(-0.996194698091746,-0.0871557427476577,0.));
#1149=DIRECTION('ref_axis',(0.0616284167162207,-0.704416026402759,-0.707106781186547));
#1150=DIRECTION('',(0.996194698091746,0.0871557427476583,0.));
#1151=DIRECTION('center_axis',(0.,0.,-1.));
#1152=DIRECTION('ref_axis',(0.0871557427476581,-0.996194698091746,0.));
#1153=DIRECTION('',(-0.0871557427476577,0.996194698091746,0.));
#1154=DIRECTION('',(-0.996194698091746,-0.0871557427476583,0.));
#1155=DIRECTION('center_axis',(0.996194698091746,0.0871557427476583,0.));
#1156=DIRECTION('ref_axis',(-0.0616284167162207,0.704416026402759,-0.707106781186547));
#1157=DIRECTION('center_axis',(-0.996194698091746,-0.0871557427476577,0.));
#1158=DIRECTION('ref_axis',(-0.0616284167162207,0.704416026402759,-0.707106781186547));
#1159=DIRECTION('',(0.996194698091746,0.0871557427476583,0.));
#1160=DIRECTION('center_axis',(-0.0871557427476583,0.996194698091746,-1.30614473485313E-15));
#1161=DIRECTION('ref_axis',(1.13838014502067E-16,-1.30117445980113E-15,
-1.));
#1162=DIRECTION('',(-1.13838014502067E-16,1.30117445980113E-15,1.));
#1163=DIRECTION('center_axis',(0.0871557427476577,-0.996194698091746,1.30614473485313E-15));
#1164=DIRECTION('ref_axis',(1.13838014502067E-16,-1.30117445980113E-15,
-1.));
#1165=DIRECTION('',(1.13838014502067E-16,-1.30117445980113E-15,-1.));
#1166=DIRECTION('center_axis',(0.996194698091746,0.0871557427476577,0.));
#1167=DIRECTION('ref_axis',(0.,0.,-1.));
#1168=DIRECTION('center_axis',(-0.996194698091746,-0.0871557427476581,0.));
#1169=DIRECTION('ref_axis',(0.,0.,1.));
#1170=DIRECTION('',(2.76463749505021E-16,-3.15999511665991E-15,-1.));
#1171=DIRECTION('',(0.0871557427476581,-0.996194698091746,0.));
#1172=DIRECTION('center_axis',(0.,0.,-1.));
#1173=DIRECTION('ref_axis',(0.0871557427476581,-0.996194698091746,0.));
#1174=DIRECTION('center_axis',(-0.0871557427476583,0.996194698091746,-3.17206578464332E-15));
#1175=DIRECTION('ref_axis',(2.76463749505021E-16,-3.15999511665991E-15,
-1.));
#1176=CARTESIAN_POINT('',(0.,0.,0.));
#1177=CARTESIAN_POINT('Origin',(-14.8921956185641,18.1276565542283,21.496875));
#1178=CARTESIAN_POINT('',(-15.1423862028194,18.1189197065065,20.146875));
#1179=CARTESIAN_POINT('',(-14.6420050343089,18.1363934019501,20.146875));
#1180=CARTESIAN_POINT('',(-15.0231436349166,18.1230837487338,20.146875));
#1181=CARTESIAN_POINT('',(-14.6420050343089,18.1363934019501,21.146875));
#1182=CARTESIAN_POINT('',(-14.6420050343089,18.1363934019501,21.496875));
#1183=CARTESIAN_POINT('',(-15.1423862028194,18.1189197065065,21.146875));
#1184=CARTESIAN_POINT('',(-15.0166056255925,18.1233120610504,21.146875));
#1185=CARTESIAN_POINT('',(-15.1423862028194,18.1189197065065,21.496875));
#1186=CARTESIAN_POINT('Origin',(-15.1618913190417,18.3418642050992,20.146875));
#1187=CARTESIAN_POINT('',(-15.1618913190417,18.3418642050992,20.146875));
#1188=CARTESIAN_POINT('',(-15.1074189798244,17.7192425187918,20.146875));
#1189=CARTESIAN_POINT('',(-14.0660771511408,18.4377355221216,20.146875));
#1190=CARTESIAN_POINT('',(-15.1618913190417,18.3418642050992,20.146875));
#1191=CARTESIAN_POINT('',(-14.0442882154539,18.1886868475987,20.146875));
#1192=CARTESIAN_POINT('',(-14.0442882154539,18.1886868475987,20.146875));
#1193=CARTESIAN_POINT('',(-15.1401023833548,18.0928155305762,20.146875));
#1194=CARTESIAN_POINT('Origin',(-15.0529466406071,17.0966208324845,20.646875));
#1195=CARTESIAN_POINT('',(-15.1836802547286,18.5909128796221,16.446875));
#1196=CARTESIAN_POINT('',(-15.2272581261024,19.089010228668,16.946875));
#1197=CARTESIAN_POINT('Origin',(-15.1836802547286,18.5909128796221,16.946875));
#1198=CARTESIAN_POINT('',(-15.0093687692333,16.5985234834386,16.446875));
#1199=CARTESIAN_POINT('',(-15.2272581261024,19.089010228668,16.446875));
#1200=CARTESIAN_POINT('',(-14.9657908978595,16.1004261343927,16.946875));
#1201=CARTESIAN_POINT('Origin',(-15.0093687692333,16.5985234834386,16.946875));
#1202=CARTESIAN_POINT('',(-14.9657908978595,16.1004261343927,24.346875));
#1203=CARTESIAN_POINT('',(-14.9657908978595,16.1004261343927,16.446875));
#1204=CARTESIAN_POINT('',(-15.0093687692333,16.5985234834386,24.846875));
#1205=CARTESIAN_POINT('Origin',(-15.0093687692333,16.5985234834386,24.346875));
#1206=CARTESIAN_POINT('',(-15.1836802547286,18.5909128796221,24.846875));
#1207=CARTESIAN_POINT('',(-14.9657908978595,16.1004261343927,24.846875));
#1208=CARTESIAN_POINT('',(-15.2272581261024,19.089010228668,24.346875));
#1209=CARTESIAN_POINT('Origin',(-15.1836802547286,18.5909128796221,24.346875));
#1210=CARTESIAN_POINT('',(-15.2272581261024,19.089010228668,24.846875));
#1211=CARTESIAN_POINT('',(-15.1618913190417,18.3418642050992,21.146875));
#1212=CARTESIAN_POINT('',(-15.096524511981,17.5947181815304,21.146875));
#1213=CARTESIAN_POINT('',(-15.1618913190417,18.3418642050992,21.596875));
#1214=CARTESIAN_POINT('',(-15.1618913190417,18.3418642050992,20.896875));
#1215=CARTESIAN_POINT('',(-15.1226712348053,17.8935765909579,21.596875));
#1216=CARTESIAN_POINT('',(-15.1074189798244,17.7192425187918,21.596875));
#1217=CARTESIAN_POINT('',(-15.1226712348053,17.8935765909579,21.3730788896415));
#1218=CARTESIAN_POINT('',(-15.1226712348053,17.8935765909579,21.121875));
#1219=CARTESIAN_POINT('',(-15.0529466406071,17.0966208324845,21.3730788896415));
#1220=CARTESIAN_POINT('',(-15.096524511981,17.5947181815304,21.3730788896415));
#1221=CARTESIAN_POINT('',(-15.0529466406071,17.0966208324845,21.596875));
#1222=CARTESIAN_POINT('',(-15.0529466406071,17.0966208324845,20.996875));
#1223=CARTESIAN_POINT('',(-15.0137265563707,16.6483332183432,21.596875));
#1224=CARTESIAN_POINT('',(-15.0529466406071,17.0966208324845,21.596875));
#1225=CARTESIAN_POINT('',(-15.0137265563707,16.6483332183432,21.146875));
#1226=CARTESIAN_POINT('',(-15.0137265563707,16.6483332183432,21.121875));
#1227=CARTESIAN_POINT('',(-15.033231672593,16.8712777169359,21.146875));
#1228=CARTESIAN_POINT('',(-15.0333365984889,16.8724770254138,21.146875));
#1229=CARTESIAN_POINT('',(-15.033231672593,16.8712777169359,20.146875));
#1230=CARTESIAN_POINT('',(-15.033231672593,16.8712777169359,20.996875));
#1231=CARTESIAN_POINT('',(-15.0137265563707,16.6483332183432,20.146875));
#1232=CARTESIAN_POINT('',(-15.0442310663324,16.9970013626753,20.146875));
#1233=CARTESIAN_POINT('',(-15.0137265563707,16.6483332183432,19.696875));
#1234=CARTESIAN_POINT('',(-15.0137265563707,16.6483332183432,20.396875));
#1235=CARTESIAN_POINT('',(-15.0529466406071,17.0966208324845,19.696875));
#1236=CARTESIAN_POINT('',(-15.0333365984889,16.8724770254138,19.696875));
#1237=CARTESIAN_POINT('',(-15.0529466406071,17.0966208324845,19.9206711103585));
#1238=CARTESIAN_POINT('',(-15.0529466406071,17.0966208324845,20.171875));
#1239=CARTESIAN_POINT('',(-15.1226712348053,17.8935765909579,19.9206711103585));
#1240=CARTESIAN_POINT('',(-15.0442310663324,16.9970013626753,19.9206711103585));
#1241=CARTESIAN_POINT('',(-15.1226712348053,17.8935765909579,19.696875));
#1242=CARTESIAN_POINT('',(-15.1226712348053,17.8935765909579,20.296875));
#1243=CARTESIAN_POINT('',(-15.1618913190417,18.3418642050992,19.696875));
#1244=CARTESIAN_POINT('',(-15.0878089377062,17.4950987117212,19.696875));
#1245=CARTESIAN_POINT('',(-15.1618913190417,18.3418642050992,20.171875));
#1246=CARTESIAN_POINT('Origin',(-14.847475837458,17.6165071172173,21.3599769448208));
#1247=CARTESIAN_POINT('',(-14.5548492915613,17.1401987038583,21.346875));
#1248=CARTESIAN_POINT('',(-14.9277401459969,17.1075749813627,21.3664920303188));
#1249=CARTESIAN_POINT('',(-14.6245738857594,17.9371544623317,21.346875));
#1250=CARTESIAN_POINT('',(-15.0039729090018,17.9039613488452,21.3668344118583));
#1251=CARTESIAN_POINT('',(-14.5984271629351,17.6382960529042,21.346875));
#1252=CARTESIAN_POINT('Origin',(-15.1226712348053,17.8935765909579,21.596875));
#1253=CARTESIAN_POINT('',(-14.0268570669043,17.9894479079803,21.596875));
#1254=CARTESIAN_POINT('',(-15.1226712348053,17.8935765909579,21.596875));
#1255=CARTESIAN_POINT('',(-14.0268570669043,17.9894479079803,21.346875));
#1256=CARTESIAN_POINT('',(-14.0268570669043,17.9894479079803,21.346875));
#1257=CARTESIAN_POINT('',(-13.2299013084309,18.0591725021784,21.346875));
#1258=CARTESIAN_POINT('Origin',(-14.7853249078024,16.9061187405879,20.996875));
#1259=CARTESIAN_POINT('',(-14.5374181430117,16.94095976424,20.146875));
#1260=CARTESIAN_POINT('',(-14.9085992605995,16.8887936601484,20.146875));
#1261=CARTESIAN_POINT('',(-14.5374181430117,16.94095976424,21.146875));
#1262=CARTESIAN_POINT('',(-14.9150775888888,16.8878831904832,21.146875));
#1263=CARTESIAN_POINT('',(-14.5374181430117,16.94095976424,20.996875));
#1264=CARTESIAN_POINT('Origin',(-15.0137265563707,16.6483332183432,21.146875));
#1265=CARTESIAN_POINT('',(-13.9179123884698,16.7442045353656,21.146875));
#1266=CARTESIAN_POINT('',(-15.0137265563707,16.6483332183432,21.146875));
#1267=CARTESIAN_POINT('',(-13.9397013241567,16.9932532098886,21.146875));
#1268=CARTESIAN_POINT('',(-13.9397013241567,16.9932532098886,21.146875));
#1269=CARTESIAN_POINT('',(-13.1427455656833,17.0629778040867,21.146875));
#1270=CARTESIAN_POINT('Origin',(-14.7951823918094,17.0187902983622,19.9337730551792));
#1271=CARTESIAN_POINT('',(-14.6245738857594,17.9371544623317,19.946875));
#1272=CARTESIAN_POINT('',(-14.9974647401951,17.9045307398361,19.9272579696812));
#1273=CARTESIAN_POINT('',(-14.5548492915613,17.1401987038583,19.946875));
#1274=CARTESIAN_POINT('',(-14.9342483148036,17.1070055903718,19.9269155881417));
#1275=CARTESIAN_POINT('',(-14.5461337172865,17.0405792340491,19.946875));
#1276=CARTESIAN_POINT('Origin',(-15.1226712348053,17.8935765909579,19.946875));
#1277=CARTESIAN_POINT('',(-14.0268570669043,17.9894479079803,19.946875));
#1278=CARTESIAN_POINT('',(-13.2299013084309,18.0591725021784,19.946875));
#1279=CARTESIAN_POINT('',(-14.0268570669043,17.9894479079803,19.696875));
#1280=CARTESIAN_POINT('',(-14.0268570669043,17.9894479079803,19.696875));
#1281=CARTESIAN_POINT('',(-15.1226712348053,17.8935765909579,19.696875));
#1282=CARTESIAN_POINT('Origin',(-15.0529466406071,17.0966208324845,19.696875));
#1283=CARTESIAN_POINT('',(-13.9571324727062,17.1924921495069,19.696875));
#1284=CARTESIAN_POINT('',(-15.0529466406071,17.0966208324845,19.696875));
#1285=CARTESIAN_POINT('',(-13.9571324727062,17.1924921495069,19.946875));
#1286=CARTESIAN_POINT('',(-13.9571324727062,17.1924921495069,19.946875));
#1287=CARTESIAN_POINT('',(-13.1601767142328,17.262216743705,19.946875));
#1288=CARTESIAN_POINT('Origin',(-15.0137265563707,16.6483332183432,19.696875));
#1289=CARTESIAN_POINT('',(-13.9179123884698,16.7442045353656,19.696875));
#1290=CARTESIAN_POINT('',(-15.0137265563707,16.6483332183432,19.696875));
#1291=CARTESIAN_POINT('',(-13.9571324727062,17.1924921495069,19.696875));
#1292=CARTESIAN_POINT('Origin',(-15.0137265563707,16.6483332183432,20.146875));
#1293=CARTESIAN_POINT('',(-13.9179123884698,16.7442045353656,20.146875));
#1294=CARTESIAN_POINT('',(-15.0137265563707,16.6483332183432,20.146875));
#1295=CARTESIAN_POINT('',(-13.9179123884698,16.7442045353656,19.696875));
#1296=CARTESIAN_POINT('Origin',(-15.0355154920576,16.8973818928661,20.146875));
#1297=CARTESIAN_POINT('',(-13.9397013241567,16.9932532098886,20.146875));
#1298=CARTESIAN_POINT('',(-13.1427455656833,17.0629778040867,20.146875));
#1299=CARTESIAN_POINT('',(-13.9179123884698,16.7442045353656,20.146875));
#1300=CARTESIAN_POINT('Origin',(-15.1618913190417,18.3418642050992,19.696875));
#1301=CARTESIAN_POINT('',(-14.0660771511408,18.4377355221216,19.696875));
#1302=CARTESIAN_POINT('',(-15.1618913190417,18.3418642050992,19.696875));
#1303=CARTESIAN_POINT('',(-14.0660771511408,18.4377355221216,20.146875));
#1304=CARTESIAN_POINT('Origin',(-15.1226712348053,17.8935765909579,19.696875));
#1305=CARTESIAN_POINT('',(-14.0660771511408,18.4377355221216,19.696875));
#1306=CARTESIAN_POINT('Origin',(-15.0137265563707,16.6483332183432,21.596875));
#1307=CARTESIAN_POINT('',(-13.9179123884698,16.7442045353656,21.596875));
#1308=CARTESIAN_POINT('',(-15.0137265563707,16.6483332183432,21.596875));
#1309=CARTESIAN_POINT('',(-13.9179123884698,16.7442045353656,21.146875));
#1310=CARTESIAN_POINT('Origin',(-15.0529466406071,17.0966208324845,21.596875));
#1311=CARTESIAN_POINT('',(-13.9571324727062,17.1924921495069,21.596875));
#1312=CARTESIAN_POINT('',(-15.0529466406071,17.0966208324845,21.596875));
#1313=CARTESIAN_POINT('',(-13.9179123884698,16.7442045353656,21.596875));
#1314=CARTESIAN_POINT('Origin',(-15.0529466406071,17.0966208324845,21.346875));
#1315=CARTESIAN_POINT('',(-13.9571324727062,17.1924921495069,21.346875));
#1316=CARTESIAN_POINT('',(-13.1601767142328,17.262216743705,21.346875));
#1317=CARTESIAN_POINT('',(-13.9571324727062,17.1924921495069,21.596875));
#1318=CARTESIAN_POINT('Origin',(-15.1618913190417,18.3418642050992,21.596875));
#1319=CARTESIAN_POINT('',(-14.0660771511408,18.4377355221216,21.596875));
#1320=CARTESIAN_POINT('',(-15.1618913190417,18.3418642050992,21.596875));
#1321=CARTESIAN_POINT('',(-14.0268570669043,17.9894479079803,21.596875));
#1322=CARTESIAN_POINT('Origin',(-15.1618913190417,18.3418642050992,21.146875));
#1323=CARTESIAN_POINT('',(-14.0660771511408,18.4377355221216,21.146875));
#1324=CARTESIAN_POINT('',(-15.1618913190417,18.3418642050992,21.146875));
#1325=CARTESIAN_POINT('',(-14.0660771511408,18.4377355221216,21.596875));
#1326=CARTESIAN_POINT('Origin',(-15.1401023833548,18.0928155305762,21.146875));
#1327=CARTESIAN_POINT('',(-14.0442882154539,18.1886868475987,21.146875));
#1328=CARTESIAN_POINT('',(-15.1401023833548,18.0928155305762,21.146875));
#1329=CARTESIAN_POINT('',(-14.0660771511408,18.4377355221216,21.146875));
#1330=CARTESIAN_POINT('Origin',(-11.249975639309,17.2285737153072,19.946875));
#1331=CARTESIAN_POINT('',(-13.965848046981,17.2921116193161,19.946875));
#1332=CARTESIAN_POINT('Origin',(-15.1836802547286,18.5909128796221,16.946875));
#1333=CARTESIAN_POINT('',(-13.689388207591,18.7216464937436,16.446875));
#1334=CARTESIAN_POINT('',(-15.1836802547286,18.5909128796221,16.446875));
#1335=CARTESIAN_POINT('',(-13.234868729919,19.2633217141633,16.946875));
#1336=CARTESIAN_POINT('',(-15.2272581261024,19.089010228668,16.946875));
#1337=CARTESIAN_POINT('Origin',(-13.689388207591,18.7216464937436,16.946875));
#1338=CARTESIAN_POINT('Origin',(-13.116598842859,16.7641193946592,16.946875));
#1339=CARTESIAN_POINT('',(-12.973401501676,16.2747376198881,16.946875));
#1340=CARTESIAN_POINT('',(-13.0730209714852,16.2660220456133,16.946875));
#1341=CARTESIAN_POINT('',(-13.5150767220957,16.7292570975601,16.446875));
#1342=CARTESIAN_POINT('',(-13.116598842859,16.7641193946592,16.446875));
#1343=CARTESIAN_POINT('Origin',(-13.5150767220957,16.7292570975601,16.946875));
#1344=CARTESIAN_POINT('Origin',(-13.5368656577826,16.978305772083,16.946875));
#1345=CARTESIAN_POINT('',(-13.0387683087367,17.0218836434569,16.946875));
#1346=CARTESIAN_POINT('',(-13.5368656577826,16.978305772083,16.446875));
#1347=CARTESIAN_POINT('Origin',(-14.9657908978595,16.1004261343927,16.446875));
#1348=CARTESIAN_POINT('Origin',(-11.1802510451108,16.4316179568338,18.946875));
#1349=CARTESIAN_POINT('',(-12.973401501676,16.2747376198881,19.446875));
#1350=CARTESIAN_POINT('',(-12.973401501676,16.2747376198881,16.446875));
#1351=CARTESIAN_POINT('',(-10.682153696065,16.4751958282077,19.446875));
#1352=CARTESIAN_POINT('',(-11.1802510451108,16.4316179568338,19.446875));
#1353=CARTESIAN_POINT('',(-10.682153696065,16.4751958282077,21.846875));
#1354=CARTESIAN_POINT('',(-10.682153696065,16.4751958282077,18.946875));
#1355=CARTESIAN_POINT('',(-12.973401501676,16.2747376198881,21.846875));
#1356=CARTESIAN_POINT('',(-11.1802510451108,16.4316179568339,21.846875));
#1357=CARTESIAN_POINT('',(-12.973401501676,16.2747376198881,24.346875));
#1358=CARTESIAN_POINT('',(-12.973401501676,16.2747376198881,22.346875));
#1359=CARTESIAN_POINT('',(-13.0730209714852,16.2660220456133,24.346875));
#1360=CARTESIAN_POINT('Origin',(-13.116598842859,16.7641193946592,24.346875));
#1361=CARTESIAN_POINT('',(-13.5150767220957,16.7292570975601,24.846875));
#1362=CARTESIAN_POINT('',(-13.116598842859,16.7641193946592,24.846875));
#1363=CARTESIAN_POINT('Origin',(-13.5150767220957,16.7292570975601,24.346875));
#1364=CARTESIAN_POINT('Origin',(-15.1836802547286,18.5909128796221,24.346875));
#1365=CARTESIAN_POINT('',(-13.234868729919,19.2633217141633,24.346875));
#1366=CARTESIAN_POINT('',(-15.2272581261024,19.089010228668,24.346875));
#1367=CARTESIAN_POINT('',(-13.689388207591,18.7216464937436,24.846875));
#1368=CARTESIAN_POINT('',(-15.1836802547286,18.5909128796221,24.846875));
#1369=CARTESIAN_POINT('Origin',(-13.689388207591,18.7216464937436,24.346875));
#1370=CARTESIAN_POINT('Origin',(-13.6675992719041,18.4725978192207,24.346875));
#1371=CARTESIAN_POINT('',(-13.1695019228582,18.5161756905945,24.346875));
#1372=CARTESIAN_POINT('',(-13.6675992719041,18.4725978192207,24.846875));
#1373=CARTESIAN_POINT('Origin',(-15.2272581261024,19.089010228668,24.846875));
#1374=CARTESIAN_POINT('Origin',(-15.2272581261024,19.089010228668,16.446875));
#1375=CARTESIAN_POINT('',(-13.234868729919,19.2633217141633,24.846875));
#1376=CARTESIAN_POINT('Origin',(-11.3109846592323,17.9259100039715,21.846875));
#1377=CARTESIAN_POINT('',(-10.8128873101865,17.9694878753453,22.346875));
#1378=CARTESIAN_POINT('',(-10.8564651815603,18.4675852243912,21.846875));
#1379=CARTESIAN_POINT('Origin',(-10.8128873101865,17.9694878753453,21.846875));
#1380=CARTESIAN_POINT('',(-13.1477129871713,18.2671270160716,21.846875));
#1381=CARTESIAN_POINT('',(-11.3545625306062,18.4240073530173,21.846875));
#1382=CARTESIAN_POINT('',(-13.1041351157975,17.7690296670257,22.346875));
#1383=CARTESIAN_POINT('Origin',(-13.1041351157975,17.7690296670257,21.846875));
#1384=CARTESIAN_POINT('',(-11.3109846592323,17.9259100039715,22.346875));
#1385=CARTESIAN_POINT('Origin',(-10.7693094388126,17.4713905262994,20.646875));
#1386=CARTESIAN_POINT('',(-10.7257315674388,16.9732931772536,22.346875));
#1387=CARTESIAN_POINT('',(-10.682153696065,16.4751958282077,22.346875));
#1388=CARTESIAN_POINT('Origin',(-10.7257315674388,16.9732931772536,21.846875));
#1389=CARTESIAN_POINT('',(-10.7257315674388,16.9732931772535,18.946875));
#1390=CARTESIAN_POINT('Origin',(-10.7257315674388,16.9732931772535,19.446875));
#1391=CARTESIAN_POINT('',(-10.8128873101865,17.9694878753453,18.946875));
#1392=CARTESIAN_POINT('',(-10.8564651815603,18.4675852243912,18.946875));
#1393=CARTESIAN_POINT('',(-10.8564651815603,18.4675852243912,19.446875));
#1394=CARTESIAN_POINT('Origin',(-10.8128873101865,17.9694878753453,19.446875));
#1395=CARTESIAN_POINT('',(-10.8564651815603,18.4675852243912,22.346875));
#1396=CARTESIAN_POINT('Origin',(-11.1802510451108,16.4316179568339,22.346875));
#1397=CARTESIAN_POINT('',(-13.0169793730498,16.7728349689339,22.346875));
#1398=CARTESIAN_POINT('',(-13.0387683087367,17.0218836434569,22.346875));
#1399=CARTESIAN_POINT('',(-11.2238289164847,16.9297153058797,22.346875));
#1400=CARTESIAN_POINT('Origin',(-11.2238289164847,16.9297153058797,21.846875));
#1401=CARTESIAN_POINT('Origin',(-13.0169793730498,16.7728349689339,21.846875));
#1402=CARTESIAN_POINT('Origin',(-11.2238289164847,16.9297153058797,19.446875));
#1403=CARTESIAN_POINT('',(-13.0169793730498,16.7728349689339,18.946875));
#1404=CARTESIAN_POINT('Origin',(-13.0169793730498,16.7728349689339,19.446875));
#1405=CARTESIAN_POINT('',(-11.2238289164847,16.9297153058797,18.946875));
#1406=CARTESIAN_POINT('Origin',(-11.3545625306062,18.4240073530173,18.946875));
#1407=CARTESIAN_POINT('',(-13.1041351157975,17.7690296670257,18.946875));
#1408=CARTESIAN_POINT('',(-13.1259240514844,18.0180783415486,18.946875));
#1409=CARTESIAN_POINT('',(-11.3109846592323,17.9259100039715,18.946875));
#1410=CARTESIAN_POINT('Origin',(-11.3109846592323,17.9259100039715,19.446875));
#1411=CARTESIAN_POINT('',(-13.1477129871713,18.2671270160716,19.446875));
#1412=CARTESIAN_POINT('Origin',(-13.1041351157975,17.7690296670257,19.446875));
#1413=CARTESIAN_POINT('',(-11.3545625306062,18.4240073530173,19.446875));
#1414=CARTESIAN_POINT('Origin',(-11.3545625306062,18.4240073530173,19.946875));
#1415=CARTESIAN_POINT('',(-13.1477129871713,18.2671270160716,20.296875));
#1416=CARTESIAN_POINT('Origin',(-15.1401023833548,18.0928155305762,22.346875));
#1417=CARTESIAN_POINT('',(-14.0442882154539,18.1886868475987,22.346875));
#1418=CARTESIAN_POINT('Origin',(-13.1041351157975,17.7690296670257,20.646875));
#1419=CARTESIAN_POINT('Origin',(-13.9919947698053,17.5909700287436,20.646875));
#1420=CARTESIAN_POINT('',(-13.9397013241567,16.9932532098886,20.996875));
#1421=CARTESIAN_POINT('',(-14.0181414926296,17.8898284381711,21.346875));
#1422=CARTESIAN_POINT('Origin',(-11.3545625306062,18.4240073530173,21.346875));
#1423=CARTESIAN_POINT('Origin',(-11.249975639309,17.2285737153072,21.346875));
#1424=UNCERTAINTY_MEASURE_WITH_UNIT(LENGTH_MEASURE(0.01),#1428,
'DISTANCE_ACCURACY_VALUE',
'Maximum model space distance between geometric entities at asserted c
onnectivities');
#1425=UNCERTAINTY_MEASURE_WITH_UNIT(LENGTH_MEASURE(0.01),#1428,
'DISTANCE_ACCURACY_VALUE',
'Maximum model space distance between geometric entities at asserted c
onnectivities');
#1426=(
GEOMETRIC_REPRESENTATION_CONTEXT(3)
GLOBAL_UNCERTAINTY_ASSIGNED_CONTEXT((#1424))
GLOBAL_UNIT_ASSIGNED_CONTEXT((#1428,#1430,#1431))
REPRESENTATION_CONTEXT('','3D')
);
#1427=(
GEOMETRIC_REPRESENTATION_CONTEXT(3)
GLOBAL_UNCERTAINTY_ASSIGNED_CONTEXT((#1425))
GLOBAL_UNIT_ASSIGNED_CONTEXT((#1428,#1430,#1431))
REPRESENTATION_CONTEXT('','3D')
);
#1428=(
LENGTH_UNIT()
NAMED_UNIT(*)
SI_UNIT(.MILLI.,.METRE.)
);
#1429=(
LENGTH_UNIT()
NAMED_UNIT(*)
SI_UNIT($,.METRE.)
);
#1430=(
NAMED_UNIT(*)
PLANE_ANGLE_UNIT()
SI_UNIT($,.RADIAN.)
);
#1431=(
NAMED_UNIT(*)
SI_UNIT($,.STERADIAN.)
SOLID_ANGLE_UNIT()
);
#1432=SHAPE_DEFINITION_REPRESENTATION(#1433,#1434);
#1433=PRODUCT_DEFINITION_SHAPE('',$,#1436);
#1434=SHAPE_REPRESENTATION('',(#884),#1426);
#1435=PRODUCT_DEFINITION_CONTEXT('part definition',#1440,'design');
#1436=PRODUCT_DEFINITION('\X2\30B930A430C330C130CE30D6\X0\1',
'\X2\30B930A430C330C130CE30D6\X0\1',#1437,#1435);
#1437=PRODUCT_DEFINITION_FORMATION('',$,#1442);
#1438=PRODUCT_RELATED_PRODUCT_CATEGORY('\X2\30B930A430C330C130CE30D6\X0\1',
'\X2\30B930A430C330C130CE30D6\X0\1',(#1442));
#1439=APPLICATION_PROTOCOL_DEFINITION('international standard',
'automotive_design',2009,#1440);
#1440=APPLICATION_CONTEXT(
'Core Data for Automotive Mechanical Design Process');
#1441=PRODUCT_CONTEXT('part definition',#1440,'mechanical');
#1442=PRODUCT('\X2\30B930A430C330C130CE30D6\X0\1','\X2\30B930A430C330C130CE30D6\X0\1',
$,(#1441));
#1443=PRESENTATION_STYLE_ASSIGNMENT((#1445));
#1444=PRESENTATION_STYLE_ASSIGNMENT((#1446));
#1445=SURFACE_STYLE_USAGE(.BOTH.,#1447);
#1446=SURFACE_STYLE_USAGE(.BOTH.,#1448);
#1447=SURFACE_SIDE_STYLE('',(#1449));
#1448=SURFACE_SIDE_STYLE('',(#1450));
#1449=SURFACE_STYLE_FILL_AREA(#1451);
#1450=SURFACE_STYLE_FILL_AREA(#1452);
#1451=FILL_AREA_STYLE('\X2\92FC\X0\ - \X2\30B530C630F3\X0\',(#1453));
#1452=FILL_AREA_STYLE('ABS(\X2\767D\X0\)',(#1454));
#1453=FILL_AREA_STYLE_COLOUR('\X2\92FC\X0\ - \X2\30B530C630F3\X0\',#1455);
#1454=FILL_AREA_STYLE_COLOUR('ABS(\X2\767D\X0\)',#1456);
#1455=COLOUR_RGB('\X2\92FC\X0\ - \X2\30B530C630F3\X0\',0.627450980392157,
0.627450980392157,0.627450980392157);
#1456=COLOUR_RGB('ABS(\X2\767D\X0\)',0.964705882352941,0.964705882352941,
0.952941176470588);
ENDSEC;
END-ISO-10303-21;
